<mxfile host="app.diagrams.net" modified="2023-02-08T09:28:24.005Z" agent="5.0 (Windows NT 10.0; Win64; x64) AppleWebKit/537.36 (KHTML, like Gecko) Chrome/109.0.0.0 Safari/537.36" etag="s3SN8k4HpMCOC-WZj-4R" version="20.8.17" type="github">
  <diagram id="RkA_13CBty0s5V47uSro" name="Page-1">
    <mxGraphModel dx="2334" dy="1345" grid="1" gridSize="10" guides="1" tooltips="1" connect="1" arrows="1" fold="1" page="1" pageScale="1" pageWidth="1600" pageHeight="900" math="0" shadow="0">
      <root>
        <mxCell id="0" />
        <mxCell id="1" parent="0" />
        <mxCell id="IXPr_4PSgs1dPin-ic8F-1" value="&lt;font style=&quot;font-size: 22px;&quot;&gt;IT基础设施&lt;/font&gt;" style="rounded=0;whiteSpace=wrap;html=1;fillColor=#f8cecc;strokeColor=#b85450;" parent="1" vertex="1">
          <mxGeometry x="80" y="480" width="1440" height="100" as="geometry" />
        </mxCell>
        <mxCell id="IXPr_4PSgs1dPin-ic8F-2" value="服务器" style="rounded=1;whiteSpace=wrap;html=1;fillColor=#d5e8d4;strokeColor=#82b366;fontSize=22;" parent="1" vertex="1">
          <mxGeometry x="110" y="500" width="280" height="70" as="geometry" />
        </mxCell>
        <mxCell id="IXPr_4PSgs1dPin-ic8F-3" value="网络" style="rounded=1;whiteSpace=wrap;html=1;fillColor=#d5e8d4;strokeColor=#82b366;fontSize=22;" parent="1" vertex="1">
          <mxGeometry x="410" y="500" width="270" height="70" as="geometry" />
        </mxCell>
        <mxCell id="IXPr_4PSgs1dPin-ic8F-4" value="存储" style="rounded=1;whiteSpace=wrap;html=1;fillColor=#d5e8d4;strokeColor=#82b366;fontSize=22;" parent="1" vertex="1">
          <mxGeometry x="900" y="490" width="290" height="80" as="geometry" />
        </mxCell>
        <mxCell id="IXPr_4PSgs1dPin-ic8F-5" value="机房" style="rounded=1;whiteSpace=wrap;html=1;fillColor=#d5e8d4;strokeColor=#82b366;fontSize=22;" parent="1" vertex="1">
          <mxGeometry x="1230" y="490" width="250" height="80" as="geometry" />
        </mxCell>
        <mxCell id="IXPr_4PSgs1dPin-ic8F-6" value="&lt;font style=&quot;font-size: 22px;&quot;&gt;存储软件平台&lt;/font&gt;" style="rounded=0;whiteSpace=wrap;html=1;fillColor=#f8cecc;strokeColor=#b85450;" parent="1" vertex="1">
          <mxGeometry x="80" y="270" width="1440" height="130" as="geometry" />
        </mxCell>
        <mxCell id="IXPr_4PSgs1dPin-ic8F-7" value="&lt;font style=&quot;font-size: 15px;&quot;&gt;各种系统日志：&amp;nbsp; &amp;nbsp; &amp;nbsp; &amp;nbsp; &amp;nbsp; &amp;nbsp; &amp;nbsp; &amp;nbsp; &amp;nbsp; &amp;nbsp; &amp;nbsp; &amp;nbsp; &amp;nbsp; &amp;nbsp; &amp;nbsp; &amp;nbsp; &amp;nbsp; &amp;nbsp; &amp;nbsp; &amp;nbsp; &amp;nbsp; &amp;nbsp; &amp;nbsp; &amp;nbsp; &amp;nbsp; &amp;nbsp; &amp;nbsp; &amp;nbsp; &amp;nbsp; &amp;nbsp; &amp;nbsp; &amp;nbsp; &amp;nbsp; &amp;nbsp; &amp;nbsp; &amp;nbsp; &amp;nbsp; &amp;nbsp; &amp;nbsp; &amp;nbsp; &amp;nbsp; &amp;nbsp; &amp;nbsp; &amp;nbsp; &amp;nbsp; &amp;nbsp; &amp;nbsp; &amp;nbsp; &amp;nbsp; &amp;nbsp; &amp;nbsp; &amp;nbsp; &amp;nbsp; &amp;nbsp; &amp;nbsp; &amp;nbsp; &amp;nbsp; &amp;nbsp; &amp;nbsp; &amp;nbsp; &amp;nbsp; &amp;nbsp; &amp;nbsp; &amp;nbsp; &amp;nbsp; &amp;nbsp; &amp;nbsp; &amp;nbsp; &amp;nbsp; &amp;nbsp;&amp;nbsp;&lt;/font&gt;" style="rounded=0;whiteSpace=wrap;html=1;fillColor=#d5e8d4;strokeColor=#82b366;" parent="1" vertex="1">
          <mxGeometry x="900" y="290" width="580" height="90" as="geometry" />
        </mxCell>
        <mxCell id="IXPr_4PSgs1dPin-ic8F-8" value="网络&amp;amp;设备日志" style="shape=note;whiteSpace=wrap;html=1;backgroundOutline=1;darkOpacity=0.05;fillColor=#008a00;strokeColor=#005700;fontColor=#ffffff;" parent="1" vertex="1">
          <mxGeometry x="1010" y="295" width="60" height="80" as="geometry" />
        </mxCell>
        <mxCell id="IXPr_4PSgs1dPin-ic8F-9" value="存储软件日志" style="shape=note;whiteSpace=wrap;html=1;backgroundOutline=1;darkOpacity=0.05;fillColor=#008a00;strokeColor=#005700;fontColor=#ffffff;" parent="1" vertex="1">
          <mxGeometry x="1120" y="295" width="60" height="80" as="geometry" />
        </mxCell>
        <mxCell id="IXPr_4PSgs1dPin-ic8F-10" value="管理软件日志" style="shape=note;whiteSpace=wrap;html=1;backgroundOutline=1;darkOpacity=0.05;fillColor=#008a00;strokeColor=#005700;fontColor=#ffffff;" parent="1" vertex="1">
          <mxGeometry x="1230" y="295" width="60" height="80" as="geometry" />
        </mxCell>
        <mxCell id="IXPr_4PSgs1dPin-ic8F-12" value="&lt;font style=&quot;font-size: 15px;&quot;&gt;各种系统指标数据：&amp;nbsp; &amp;nbsp; &amp;nbsp; &amp;nbsp; &amp;nbsp; &amp;nbsp; &amp;nbsp; &amp;nbsp; &amp;nbsp; &amp;nbsp; &amp;nbsp; &amp;nbsp; &amp;nbsp; &amp;nbsp; &amp;nbsp; &amp;nbsp; &amp;nbsp; &amp;nbsp; &amp;nbsp; &amp;nbsp; &amp;nbsp; &amp;nbsp; &amp;nbsp; &amp;nbsp; &amp;nbsp; &amp;nbsp; &amp;nbsp; &amp;nbsp; &amp;nbsp; &amp;nbsp; &amp;nbsp; &amp;nbsp; &amp;nbsp; &amp;nbsp; &amp;nbsp; &amp;nbsp; &amp;nbsp; &amp;nbsp; &amp;nbsp; &amp;nbsp; &amp;nbsp; &amp;nbsp; &amp;nbsp; &amp;nbsp; &amp;nbsp; &amp;nbsp; &amp;nbsp; &amp;nbsp; &amp;nbsp; &amp;nbsp; &amp;nbsp; &amp;nbsp; &amp;nbsp; &amp;nbsp; &amp;nbsp; &amp;nbsp; &amp;nbsp; &amp;nbsp; &amp;nbsp; &amp;nbsp; &amp;nbsp; &amp;nbsp; &amp;nbsp; &amp;nbsp; &amp;nbsp; &amp;nbsp; &amp;nbsp; &amp;nbsp; &amp;nbsp; &amp;nbsp;&amp;nbsp;&lt;/font&gt;" style="rounded=0;whiteSpace=wrap;html=1;fillColor=#d5e8d4;strokeColor=#82b366;" parent="1" vertex="1">
          <mxGeometry x="110" y="290" width="580" height="90" as="geometry" />
        </mxCell>
        <mxCell id="IXPr_4PSgs1dPin-ic8F-13" value="系统指标数据" style="shape=note;whiteSpace=wrap;html=1;backgroundOutline=1;darkOpacity=0.05;fillColor=#008a00;strokeColor=#005700;fontColor=#ffffff;" parent="1" vertex="1">
          <mxGeometry x="240" y="295" width="60" height="80" as="geometry" />
        </mxCell>
        <mxCell id="IXPr_4PSgs1dPin-ic8F-14" value="性能指标数据" style="shape=note;whiteSpace=wrap;html=1;backgroundOutline=1;darkOpacity=0.05;fillColor=#008a00;strokeColor=#005700;fontColor=#ffffff;" parent="1" vertex="1">
          <mxGeometry x="390" y="295" width="60" height="80" as="geometry" />
        </mxCell>
        <mxCell id="IXPr_4PSgs1dPin-ic8F-15" value="告警事件数据" style="shape=note;whiteSpace=wrap;html=1;backgroundOutline=1;darkOpacity=0.05;fillColor=#008a00;strokeColor=#005700;fontColor=#ffffff;" parent="1" vertex="1">
          <mxGeometry x="540" y="295" width="60" height="80" as="geometry" />
        </mxCell>
        <mxCell id="IXPr_4PSgs1dPin-ic8F-16" value="巡检日志" style="shape=note;whiteSpace=wrap;html=1;backgroundOutline=1;darkOpacity=0.05;fillColor=#008a00;strokeColor=#005700;fontColor=#ffffff;" parent="1" vertex="1">
          <mxGeometry x="1340" y="295" width="60" height="80" as="geometry" />
        </mxCell>
        <mxCell id="IXPr_4PSgs1dPin-ic8F-17" value="&lt;font style=&quot;font-size: 22px;&quot;&gt;数据采集层&lt;/font&gt;" style="rounded=0;whiteSpace=wrap;html=1;fillColor=#dae8fc;strokeColor=#6c8ebf;" parent="1" vertex="1">
          <mxGeometry x="80" y="136.5" width="1440" height="80" as="geometry" />
        </mxCell>
        <mxCell id="IXPr_4PSgs1dPin-ic8F-24" value="&lt;font style=&quot;font-size: 22px;&quot;&gt;数据存储层&lt;/font&gt;" style="rounded=0;whiteSpace=wrap;html=1;fillColor=#f9f7ed;strokeColor=#36393d;" parent="1" vertex="1">
          <mxGeometry x="80" y="-80" width="1440" height="150" as="geometry" />
        </mxCell>
        <mxCell id="IXPr_4PSgs1dPin-ic8F-25" value="" style="shape=image;verticalLabelPosition=bottom;labelBackgroundColor=default;verticalAlign=top;aspect=fixed;imageAspect=0;image=https://upload.wikimedia.org/wikipedia/commons/thumb/b/b2/Database-mysql.svg/1448px-Database-mysql.svg.png;" parent="1" vertex="1">
          <mxGeometry x="133.85" y="-80" width="106.15" height="150" as="geometry" />
        </mxCell>
        <mxCell id="IXPr_4PSgs1dPin-ic8F-29" value="" style="shape=image;verticalLabelPosition=bottom;labelBackgroundColor=default;verticalAlign=top;aspect=fixed;imageAspect=0;image=data:image/png,iVBORw0KGgoAAAANSUhEUgAAAOAAAAB2CAYAAADREp+/AAAgAElEQVR4nO29d5gc13Xo+auqzjlMzphBDgQBAiAIECQhikkkRVIkJVO2ZOopeJ/12ZTf+q20Xmv3vdXnXWn9yZbs5/BoSZYVLFkSk5hJkQQBAiQCEYg4AAaYnLt7OqequvtHdTdmBj3IwABk//AVuqa6uu6tqnvuPffcc8+VhBCCChUqzArybGegQoWPMqbZzsC1QDqdJh6Pl7ZkMlnaEokEqVSKTCZDOp0mnU6X9qd/ZrNZ8vn8lC2Xy512TFVVdF0vbUKI0/aLnwCyLCNJ0pTP6fuyLGMymTCbzVM2i8Vy2jGr1Yrdbsdms5X9LO47HA5cLhdOp7O0ud3u0ma322f5zV39SB8FFVQIQSQSIRQKEQqFGB8fJxwOE4lEpmwTExNEo9EpWzweR1XV2b6FaxKTyYTb7cbr9U7ZfD4ffr9/yhYIBKiqqiIYDBIMBvH7/UiSNNu3cNm5ZgVQCMH4+DiDg4MMDg4yMjLC8PBwaRsbG2N0dJTR0VFCoRCaps12liucB4qiEAwGqampoaamhurqaurq6kpbbW0tDQ0NNDQ0UFVVdc0K61UrgPF4nO7ubrq7u+np6aGvr4++vj56e3vp7+9naGiIXC53RfJitVpxuty4XG6cLhcOpxOHw1n6tDsc2Gw2bHY7VqsNm82O1WbDZrMVPu3Y7PaSumcyGaqeadK+2WLGbCoeMyHJMrI0VZWUyqiawGmqqZiuugodoeuoqoqaz5NX8+RzRXU3bxwr7BfV4kw6TSaTJpvJkMlkCp9pstlM4bsM6VSKVCpJKpksfSYTCRKJOMlEnGw2e0Xej8Viob6+nqamJlpaWmhubqa5uZnW1lba2tpoa2vD7XZfkbycL7MqgBMTExw5coSjR49y/Phxjh8/TldXF11dXYRCoUualtvjIRCowhcI4A8E8PuDeH1+fH4/Xp8fr8+Hx+vD4/Hg9nhxezx4PF6cLjdms/mS5uWjQj6fJ5mIE4tFicdixGNRYrEYsegE0YkJohMRJiIRohMRIpEQkXCYiXCYcHiceCx2SfMSDAbp6Oigo6ODuXPnMnfuXObPn8/ChQvx+XyXNK3z4YoIYCwWY9++fRw4cIADBw5w8OBBDh8+zOjo6EVd1+PxUtfQQG1dA9U1tVTX1lJdU0dNbS3BqurSFghWVYToGiOfzxMOjRMaHyttoyMjjI0OMzYywtjoCCPDgwwPDhKLRS8qrZqaGhYtWsSSJUtYunQpS5cuZfny5Xg8nkt0NzNzyQUwkUiwa9cuduzYwc6dO9mzZw8nTpzgfJOxWq00NrfQ1NJGc0sr9Y1NNDY109DYRH1DI3X1jdgqVrYKQCadZnhogKHBAQYH+hno72NooJ++3h76e7sZ6Os9b3VYkiTa29tZsWIFq1evZs2aNaxatQqXy3VJ837RAphIJHjrrbd466232LJlC3v27Dlng4fVamVOxzw65s2nvWMerXPaaW3voLWtndq6+mu2Y13h6kIIwcjwED3dJ+g50UXPyROc6DpG17GjnOw6ds7CqSgKK1asYMOGDWzcuJGNGzdetEBekAD29vbyzDPP8Oyzz7J161by+fwZz1cUhY5581m8dDkLFi9hwaIlzF+4iKbm1pIhoUKF2UDXdfr7ejh65DCdhw/Seegghw7so+vY0bM2JGazmfXr1/Pggw/y0EMP0dLSct7pn7MAZjIZfvGLX/DjH/+YLVu2nFGl7Jg3n5WrbmT5yhtYvmIVCxYvxWaznXfmKlSYLTKZDJ2HDrBvzy727X6f3bu203Xs6IznS5LEhg0bePzxx3nsscfOubyfVQCTySTf+973+P73v8/Y2FjZc+YvWszNt2zkpg23sWbtOvyB4DklXqHCtUQkHGLHe9t4d8sm3tn8FkcPHyp7XnV1NU888QRf+9rXcDqdZ7zmGQXwxRdf5Ctf+QqDg4NTjsuyzLoNt3HP/Q9y+5330NDUfAG3U6HCtc1gfx9vvPYyLz//LNu2bCq5BhZpaGjgySef5N57753xGjMK4He+8x2+8Y1vTDnW2tbOH3zhyzz8e79PVXXNJbiFChU+HIyPjfLUL3/Oz/71X+jpPjHlu29/+9t8/etfL/u7sgL49NNP8/DDD5f+bmhq5hv/57e4/6FHURTlEme9QoUPD5qm8fwzv+bb//c3GezvKx1/6qmn+NSnPnXa+WUFcMWKFezduxeAO++5j+//zx/jvMTjHxUqfJhJJhI88UeP89rLLwCGTO3evfu088oKoNlsLs0A2N3ZW1E3K1S4AMbHRlm5wBiaMJlMZYfryg7CTZ5+842v/THJROIyZbFChQ8nyUSCb3ztj0t/zzSl7ayj4K+9/AK3r1vBs7/5ZWVKT4UKZ0HTNJ79zS+5fd2Kkvp5JsqqoDO5gFWsoBUqlOdMVtAi5QYcziqA1bV1jI0MT/lelmXW37KRu+97oDIOWOEjS3Ec8JUXnmPr5rdOGwecLjsXJIDbjgzz8x/8A//+o38iEh4vm5GKJ0yFjwLn6gnjD1Tx2f/0n/n9L32VdQvrSscvSAD39MYByGYyvPLbX/PbX/2c3Tu2njGj031BFy5ZhtVqPbe7rFDhKuB8fUEBVq5Zzyc//fvc/clHsRZ8QVe0nJqJf1ECOJmhgT7efOV53nr1efbteu+sQYsURaFj/gIWL7muMhuiwlVF2dkQBz+g62jnWY2OJpOJ5avWsvGu+/nY3fdT33h6V+yyCOBkUskEO7dtZue7m9mzYxtHDuw7TReeCavNxpz2uZX5gBUuK5dqPqAsyyxcupwVa9ax+qZbWL3uFhzOMzuoXHYBnE4qmeDQB3s4sHcXB/a+z5GD+xjo7T6va8BZZsQ3NlFX11CZEV8BKMyIHx5kaKD/ks2IB2hsaWPR0utZsnwlS69fxeLrVpxV4KZzxQWwHIl4jKOH9nO88xBdnYfpOnqYE8ePEAmVN+qcK16vj9r6+kpMmA8h5xoTZmRoiGh04qLS8geraJ+7kI75i+hYsIi5CxYzf/EyXO6LjwlzVQjgTMQmInSfOEbPieP0dZ+gr7uLvp6T9PecJDoRvqRpeTxe/IEgvkCAQDCIzxeYFBFt5qhoLrcHk6kSQPxCUFWVRDx2xqhoxchoExNhwqEQE+EwkXDoogMtTcfrC9DUOofm1jk0t3XQ3NZOa/tc5nTMx+29fFHRrmoBPBPJRJzB/l4G+3oYGuhjeLCf4YE+hocGGB0aYGx0GPUsoTAuFeXigjqdLuwORyk+qNVqLRsXtHRselzQ02KEmk7FBTWbjXDy0pljgk6OC3rG2KDC2Ffz+VJcUDWvFkLh51BVlXwud1pc0MkxQM8UFzSdSpFMJmYtLqjJbDY0n3ojWFddYzN1DU3UNzbT0NxKQ1MLTtfsxAW9ZgXwbAghiITHGRsZZmxkiNDYCOOjI4TGRgiNjxIeHyMSGiccGiMaCZ+zYajC1YEsy3j9AQLBavzBKgJV1QSraghW11JVU0uwupbq2nqqa+vwB67eyNgfWgE8H4QQxKIRJiJhopEwE+EQ0YkIsegEsYkIsaixn4jHSMRixGOF/UScVCJe8YG9QBRFwVHQHFxuD26PD5fHg8vtMdR9rx+Pz4/H6zOCJAeCeP0BfP4AHu+HY22IswngR6JzI0kSXl8Ary8Ac87/95lMmlQiQTIRJ5VMkC6oXalUgnQqRSadIpvJkM1mJn0aqyFlC+Hds9kM+VyWfK4QDr4QEn5yuHi1GCpeVaeokKIYXr6wP1nVLN5fUTUtqarSNLW1sDqSqaDmTg6DXwyRb6jGZswWK1arEVbfarNjtVoLn4VjhU+b3VFQww113O5w4nC6cLrcOFwubLaKlfpsfCQE8GKx2ezYbHYCVdWznZUKHzIqbigVKswiFQGsUGEWqQhghQqzSEUAK1SYRSoCWKHCLFIRwAoVZpGKAFaoMItUBLBChVmkIoAVKswiFQGsUGEWuSpc0YQAXVd54bkd/GZ/J2FZp17IPLb2ejbevhxZmbmeEEJ8KJx2K3w0uSoEEAS/eXorvx2bIHDvx/Gjo2vww2070BSdO2+/4TRB03WBJEsgSVOckitUuJaYVRVUCIFAEI/F2TIcwn/TaiShoqZSKDJ41q7ht3uOkM1kSsIlhEAIgSxLxiwBVTVmAUwSxAoVrhWuihYwEgqh+LxIikxqbAL/ggWMHziAp6UNzedleHCYlvZWhC6QJBlJgsP7u+gcHiCn6cyvrWfZsg6UMqEjzqV1LDtRchZa0+n5mFzpTOdaae0vpFI833u70Ir3aniGsy6AEhL+YJBsZBdmTWB1e9AyGXxz5hAfGSeo5QlWVwESIJAkePG1XTx9oIf83GZkk4kXt3Ryb/84D965CrPFcqo1LD1gCQEw+dC0XEznSvUthQCBQEKaMR+zmb+LYeo7OPffTK80z3qFC3wOgqnPcTae5qypoEbBA10IPF4Pt7fVM/z2OwjFTC6VwexwkDzRy5ychsvtQsIIUzA0EOZn73fiuuNm/PXVeKr8BO5Yzy+PDLDvcK8hfIU0JCiop8V9I93pSFK57fKrtKLwv1zM47SNyfkvk7+rGUP2TlUr57rJklTaii9LUP69FTnfNKanJxUSmY0OzKy0gLpu9OGkSXXO/XesxrllD1s+2MdoKkOv2UzD4oW8/+omfvQPz7B4xTzWrlvK9i2vITfVYJYkMpqGxeGCXBbX4rkc6x5hxdI2ZMWEBOze0cnbe4+QUgSLXQHufegmLBYzkyvmwdAE2w+cKKi2RmujaSpL25uY31JXNv+Xgsm1fDKT5VjfKEOhCNmsiiRLmBSZdcvmkVdV3t1/HAqqt6YLHFYzqxfPIeB2XpUtocB4vgOpHNuHw5hkGXEOWRRC4FAUqu1Wml1WqmyW0nfFiD5S6VwjjbF0jneGI5Pe37mlY5El/DYL9XYbTS4rJkkyGgXpyraEV1wAi8Knaxpdx06g5lUaW+rxeH3cfftq1sdTpLM5vvdPzxNeqCFtvIltsTRv7jrCs1s/YFjP4L3pekweNyZVJZdMYnbaQdMxKYoh1Lrg1Xf28eS2A9StuQFhs3Csq4ej//oKT3z+Tmx2a+kFHj4xyHd/8xYlHVWAyWbl87ddz/yWustSwA3VzFC/X91+kKc3vU/X4Bg5XaAXVE5JUviuz42m6/zzK7uIx2JG/mSFpuoqagMeAm4ns6M4nRmh60iyzIFQlP/RnyAXj8E5LkGgIDALQbVFYWnAxcaGAGtrfIbRTYiCcEsltb07mea7x8dA1TklpmdHQmBCxyXDHJedjQ1BPtFShVVRrmildkUFUC9YL3sHxvnnf3+DAZcJ3STjeXk3X73vZhYtasHrc+MFvvi5O/izv3uWxX/2OGank9TIKKGRUex2B9mJCKmxEIrFhKQo6EIhuf8wSx+5FcVkIhSO85M3dtP8yH2Qy5JPpwneuJIdm7bxzo5Obr9lWUlF0oROMp0FXaeohFiEhHpZAzEZhemnr27jRy9vJ5pMg9ALepYOyKCYjDwISKezJFMp46eyiXQ2gy6u/ihvuoBkNk8umwVFmabjTe7bTtqXJUAmpKscHYrz8mCYW2p9/OG8euZ5nacJhq4LkjkV1Nzp15+pQSz2RySZCSQG8jm2TwxyNJbmKwsa8duuXBDnKyaAQhh9nXwuz//345fIrllJoL6mFK/yH195jz+3W2ibU08ul6e2ysNiv4/E2Dh1Xh8pRUYbj2COdtIhFI7sP4Rj8QIkk5nw/m18/saFzO9oAOBE9wCpuioUBdLJBLLNhh6PUXvdYnZvep+PbVhK8YUrigK6anSGpWKfQEcxXZ7ucbF2Pd43wi/e2ks0mUbW1UKtrqMjlwoHYDghCA1FNoxQmq4iI5Al5bLk71IiSyDrKmZZQtMnV2jFTq4o/lVo0UDSdAQqQisIsGLi5dEUByaO8bWlrWysD0yRK0kG8llkXZ+kDAhARi+jHZT6frow0gFQs+RkE78cSuC1DPPFBU0ohbJwubmiAihJEtve3keiuZGq5nqSw4MoZhsWp4OegJ99x/toaa3FZJJxe1xcf2Mbzx09gUlRCL2znVusdh64bw11jc0M9o/x3gdHySRTrP7kOuYtbCuob+B22VDDUWSzGWdtLelwGMlqJZ9IYHNapuZLL7ysYgskSchIUzr9Mw0PzPT9TOcVjqLrgt1HexgORZGFikAgdIFiMrOgPkhN0E0yncPvcTIeSYAko2sCJAEoBc8hbca0z6Y+nel+zvd6ZzJUCSSEJKMJQ5hKKArIytQOHfKpv9U8sq4jI0BTQVfpk5389cEBGuwWFvpcp4RQALJivHshjFQlGYvZjMNuRxeGYBetyQJBThdkiq2mriHJEorQ0LU8v+4Jc3dTkDa3Y8b7upRc8T7gyNAI9upGtHQaZDO2qiqSA/14a4NEE3GErqOYTAwNDDB4pAf38uuY2H2Ah6pcPPzYnUiSxPjoKLqucvet1+NwOoFiF67QscsJ9OEYssWKrunIZgu62Urk/a3cfMcNhdamYHqWJKNgTzadTqG8NbRYJo2vikMkEpOHDaZb4YUw+kfpXJ6uISP0vjG2CUIxs2xOLd/60qeoDrjI5lRcDjtvjB401NOZEKLUWp46NHMfptywxtTzz3fI4/RrTX5cRUt06aCisMxnY77LjlYYFxK6Tk6DaC7PoCoYTMvkdB1yGRBGX0/JphjGyQ+PDPDNlR24TJMF+FR6sgDdYmVt0M7djUE0CShWXpJEXheEs3l2jiXYFdbR0EGABsjZNGG7m85Ymla344r0rq+cABZe4NKVC/n5S+8xd87dmDUNJLDXNzD4yts0r5qHZJL5zQvvsKt3nH7NjMflwpZKcOejH0dIgudeeJf3uofJKg4cisbqOVV88vY1hlVVkujuOsnf/MfrND26kZFde8n1jmBtqcY5FOUPFrey8roOo8xyekEETus3zGTyLxbkU19NEujplysUYEkCSTGsmXlVK/1MkiRQzNyyYgGNNX4ALCZz4fen92UkuahIMYOf7MxFZ6ZWWUzKY/nvT69MJg+XTL2+NPnAlFwJk4VPNFbxe3Prp/xOF4KsqjOYzrA3FOeZvgkOxiTkXBqdgvEum+J3IY0Nw1HubQrMdIdgtrDA7+bulpnDSD7SrvG3+7t5djCGnEsXFWCQZPqTOXQhUD5MKqhcMPMuXNLBJz7o4oVX3qB57UosQjC8+wNu89tZe8N8nn5mG0+Pxai+ZR01JgXFbGbA6eKDE0OM9e3nqaE4wVvWg9CJComfb34Pa+pt1t92PW9v+oDnD58kd9MqTJE09Xs7+fRD68mYNOqWt9E+r7lUcM51iG8sEmMwZCwUImEYbfxuB211VQAMjEV4/0gP3UNjJDM5FEXG73LQ1hBk1cJ2/G5Habxzf1cf6UyevKYxHIoWWrbCuKWu0jcSYXdnD5lsFpPZzPVzmw2r7rRyIATIssREPMXRviF03fhb1wVmk8L8lnrcDuuUlqs44D84FqFneNywGMsyqqpR7XMzr7mW4VCMzt4h7Faz8VtZRlVVGqv8tNZXlaqs4uicrsPuo91omtFCS7KEqmr4vW4WNtcW0j39QeuF4QK9lD/DPmA3K3SYnXR4nNxY7eNb+3rYEdaRc1l0CSRdA0nilydG2FDrxW81nX59CdAFOaGhFjQHuUyF5DErfLajnhf7I6iygjRp6QJNFxfkRHAhXFYBLKkjhbcmFTq2n3vgVhq37uVn/74J6fN34h0f5rFHNyLL8Py+TqofvBc9lURxGuNcwRXLeOHlLQzGwgQ+8xDkMuj5LBa3h/qb1/Drd7ey6bnNDCc0nLfdRnVbIwNbttNQ62HlDQum54rzMd1v3neMn72+k1w+jyR0dNnEuoUt/OUX7uet3Yd58rnNDEUSJDNGrYkkY5JlXDYLbXVe/vyxu1nUWk8un+fvn3qT/vEEklCZiKdB14z+nwBJz/HazkO8e+AEGjIBr4u//qMHSxXX9OeqSDIHTvTxd89uJZZIFHo3MjUBH3/+yG1cN6952n0ai7S8ve8YP/ndbmQ9D0JHVyxsWNTCXz5+H6lMlh++/C5jEynQjYVvdGSagy6++yefweO0Y1QZhrbx3JY9/PCV7ai5XKF/KqHq8GcPb2Rhc61RiMtUdNqk4RaDUy2sDqDrNLls/K9LGvnKu0eJaQqSrqIjIWXSdOoandEka2u8pa7ElNeLMOq2QqUzXZCKwuUwyyhCJ49RIxuL3QiCNnNZob0cXDZPmKLwyXLBs6GgIuqawOG0cuvaRdhSEYQu8Ad8+ANeohNRdJcNk91KYmgYyWQiPjiE2Wai83APMQFWp5XYwCD26hq0XB5nlQ/r8uuJNM/Hvep6qjpakBUFW10t42bjIeoCVE1D1/XzHt+JJlL0jUcZjCQYCMcZiiQJJ5K8/O5+/vu/vsCRgRDRRBJNzYGmIdQsuWyacCzO7q4R/q8fPU/XwChmxcRIKMbIRILhSIJMLs/00plI5xiKxBmNphiZiJNT8zPnV5JIZ1VGIglGIgmGw3FGIgnGogmyM6waJYSRxuhEiuFwnOFwnNGJJBOFIY6WugD3rFnEcCTO8ESS4Uic0XCUPSdH+NGLW0+5bEnQNTDKT17fSf9oxDg/HGc4mqXW52LtsjklB/ly2S86YJQ8lDglIzKGGqsKnbkeJ/c0BBBWR8kiKSHQTRb2hBOoQi8Z3sqlICGhyMoU7xpZklAKY5Kd0RRZ2YwsNGRZQpNlLLksS3x2ZPkaF8BixzsajXPy5EkmIlHDIKJIaKrG/3h6MxOLWzBZTERTOuHQBFU1VZgSKbKxBL6WZhIDA9iDQXKpPNdfPx+vLJOOJ/E2NxDvH0Qxm0mMhkjv3EngxFHGN73DyMGjaPk8qe4BqhLG+gromqFyXYBKYTYpmGUJWago6Mh6jmN9I/zd028RzaggdGSTBclsRS8OHUiSYYLXchwbjvLz3+0inTPUU5NiLEMmy9P1YKMGNpvMmBQFi8lyZt8oITCZZBRZRxYaiqQj6XkURFmn9KIWIkuAlkUWGmYZ0HJYTIZlVZZk7lt3HWvmNyBhDIorkgA1zwvvHeLN9w8jSxI5VeVfnt9M93AIExomdCQETQEnX33oVgLuSavIThpuOFckSUJGRpYlbqv3I2k5tMn+aLpO50QCVRPlx94lkIRETheomk5O06ZsGVVj91iMfz7UjxBGX1xHQnZ4eKS9hhanfQbBvvRcNhU0l1d56c3dvLSni4zfjj2a5s6lc/j4uiXs2XGYXfE8iz7zEBISJ602jh4dor6xni/dtY7/uWUb7htXYq+qIpfOEd2xmz/55A3094T46Y59OFZeh8XvI59Ok3hvH0/csoIVNyzivXcO8cPXtzAwMoK1PsjBk128/Nq7aLpgTks9C+Y1Y7Fazp75Sei64X2h60Uzt0b/eBQkBafNxPL2Zhqr/AgEnX0jHOkdQ1WzCF0YhV3N8sbOg3z29lU8/on1jE/EEbrgjT2ddPaOIhVGq4RkYu2iNm5a1k46k8dmNVPt93ByaHzGroihxcnG3EjJGEkzyumZBukNQ4MudKPwKiZjiAOj3+N22PnDu9cyGE7QPxJCQkNCIhyL84MXtnJdexOv7jzAOwd7kHQNTWiAjMVq5dO3Xs9NSzvQdFEat5zSBzkPikayVpcNnySIKGYkNWdcR9cYTufRkVCU6UYvHbJp3hnRieXz5IrvoYCmQzibZ384QVyArOYRyNjtNj7mt/CFjhocZuWKTW27bAL49rYD/OOuIyz+5F04CsaGn776NoeODXOiO0zw3tVY3W5EPo+zvYXX399JQ72fmho3bdEUm3/yaxYv7iDgNPHAohYWzDO2XC7Hm7u3k5HN9O89wfUNQVxuF+lUhrU3L2bRkga++ddPkbz1BtSVy/jnY70EGmuJv/Ae98/r57P3r8NsMp1z//rUeYLJ/Uefy8aX71vPpz+2GpNiDIpHEyn+9lev89y2A8i6aox9CZVYRqF7aJwHN6wAIJnJMhCO0dkfAs0Yh8JkZvWidv7gzpumpK/r+lnLbimP5+JwafwCqTh0ISi5iUmy0ZNct2wej24Y4e+f2WJUQMIYkzsxHObbP3+JntEoyVQaqTCGpiOzYUkbj911Y6HgFp9TGTPpueaw8DubIlPlsBJJaUi6sWoUQiOeNeaSSjJT5FtIMpKmciwJx7JlHlyhjyiVhA+EDMvdJv7rdS14LSbDY+sKuaJdNhX0p09vY+E9t4OWIz8RQTErtN9zG33L52H77EYEgv4d7zO47yCy0DjZ1MR3fvY2f/XCLoaWteOpa8A3OsF/eegW7vr4anRdoOuCez5xI//tc/dQNxbFrDjpndfId17Yzo+f3kw0lsTr9/HVz9/J8Vc3U7N0IUseuAf/nDnMeegefnW0n737uw2/wgu8LwkJxWzhtuvn8tk71mJSDPVNCPC6HDz+ifU4zRK6pBSMToAkMxSOomkauhDk8xrqaZ5ugryqAoZ1UC+MXF8en0QxtZWcvHipMIYkHvnYGtYvbUMvrNKr6zrZdIo39hzjeP8wktALBkeZ1toA//lTGzHJyukmrotoSIrugm6zApJy6mJCoIqSxJW5O4ymLp+DfHbSlgM1C7kssq6dup6u05vM8bOuIbrjqbKGr8vFZRPAPjWJxWEjNTqGraoGPZfH6nETO9yDf38ny8NDrAr3cN3QCfx792O1WHF8+i5qHrgbx9y5LPjcg/SvWMq/vbQTVdUMC1mh0Lz5Tif7G+toeeJR3IsW47v/Tt5QFZ557X1yuRyyRcJXE0TL5MglEmjZNCKZYM7Gdbz5yt5zalWmMlUYvE4nG1csAooqqvFP13SCHhdL21tBNhVH6kCSiCczheEIwzwnJnVeTg3m64W/z+/tX3RhmeQoLUnG3TpsFv7LZ+5kTl0VOoYhw+hbFRy8hABFwWIx88Qjt9HeUF2+5biY+qPQgJok+VQrVzTWlFrwMnG51mAAABliSURBVE4SGH1wsyRhluSpW2Fpb81sQ7e5Cv1NGMzq/KAvzl/s7qVzIsVF1RznwWVTQZdVVZMYi+BpaiYVCuGoDjIxMEL9wAh//OU7qGusRVGMcZwTx47znVd3Y144H5FNIysKsb4+AksWcviNt+nvGaCtowVFNnTzX/1uOw1f+DS5iNGqkFdpWbuCN37+HA9sXE4mlSNnNoEuSI+OgWLCZC75p1zA3RTH0gzztd0i01IbNL6ZNFCvy4YBpsrr4lTJM1SyYqdeKgibNElvMgr9KXO5MY/u3EvupW4k5UKL11IX5IlP3cY3nnyWbE47lediwyHgcx9fxcaViwoW5ktbn0uArgkSeRWEMQYoCYGQZOyTnbsndTNlDE+YjdVOHm6pIqnpyFOaZYmspjGQyrF5NMoB3YqUyyDls8i6ymHh5q8/OMnf37QQu/ny+9teNgH80qMb+atnNyNuWYPV7SI2HGLi3V38b49soKm1CR2BEBLIUFUdxO3yoWsaicEBHNU1qMkUkizjdDqw2S2kUylUNY/b40VYTMhmhXwyidnrRcvnMJkUcppR0Jsbq2mIZUgnU9irq1AzWcweH0eef4VHNy5CluWLsHJJyAhsljKPrmBwMJ/hxZ1TIT3PQeDLMWYsSTKarnPz8nk8ePMyfrlpH7KeL7VyumRiYVM1n7l9tVH+Z/SiuTjyCEZTGVChJGmKQrXdgixJhnV0MgIwWWj32FlXP5O3DOR0nY0NAb57qI/3whJyNoWu6ZjSCfZoFraPxbitwX/pb2gal68FXNLK/6HfzItbDjBo1ZmjKtx51xpWXNde8FUvenhIeLw+zMkJxvqHCTQ3kZmI4J83n4neAewDQ7y6xcL7Y+OoQue6QIBai5WJ7h78c9rQ0hmsVVWMd3WzqD6AzWbF4bTx1Ydv5vsvvE1sXhtWt4sTm7ZyT62fG1cuKLiiXSDFluwKjRPNHoWZ+rJEPFWwPhaG4UVh2tRYNEYkkaTa7zEGyS9h6oVJWZxMpAlrEpKaKx1DMtHqsaHIhup/etaNPqIqdCRxesUgIWGRZeZ6Hfxhey07Ro8aQ0hCRwgNHZlNQ+FrWwBBcN11c1i4sKlklrZYDP/GXDbH6Pg4mqZSXVWD3W7lcxtv5G9f3Ew4tRBrVYBI53Fyez9Azmi8ks5Te8utWCSJnSd7iMU7MW97H7IqzvpaUuEw0Ve38cTnbsfhtCGEYMWydv4q4GL7rk5iI2EWrV/K9cvnYyvMsr5SnewrjYSEVM4aWvAKUQv+t2driYtOFE9v2s0b+44XWj+p4HFjTPYJJ3P8zS/f4PtPfAarxVyabH1O+Sx2NstnFYC8rvFy7zi6yYSiZo3WTpJAaCzzOTBJZ/BXEZSEr5xFUxSsofUOK7V2K0M5DSmXMSoXTaU7kTmn+7hYLpsAGpYzURK64kMdGBrn357aQicayBI1quDR9ctYvXI+/93j5M3NHzA4MUazzUn12uX84GA3LevXkh4bRqgqwcXzyYQj3KlJmOJRXt38Ps5H7sApmbEqOsWYMEJAU1MtTU21pTwVA/5clGXxCpmnLxRN6OS1cp4wEqqqE09lOc2iMQ1d15Flma6BMZ58fjOZdLrgmiWKVnx0BLKWY+exfn704jv80YO3AedmQBKl88pbGyWjZ8KuUIyX+kJIukAvaC26YsKr51nmc5+KHVMmhZKRtOiONsVB3NiKbfZp7mwYjuFXgsvqC1p0EEYYQXRTqQzf+/nrjC9eRKClASF0ohMJ/u61d/mbxiBNLTV8/g8+Xvr9O7sOoXnckM9hcXlJhcbREgkCc+eS3P4Bf/zFB3FVmXl6OERiYR0/eXEHXzRbaetoLD3vWDSGqqp4vG5MJvMVG2C9EpgUGZmpKlY6lycUTQLFAXmjtAkE2Vyek0PjxvuYfCF9skXW8MhJprP8w9NvMhpLI6OjC5AlpTT7QisIuVBz/Oy197hhQStrFrefU9/aPKPgGKhC53A4yXf29ZGTZGSRN9RPCYTVwcdq7VTbDU3mtMsUujVywRGgGMZyJrpiaUbSWSShUbJESzJO85WJV3bZZ0MYsTyMQrJ1025CVTUE2pvIjI0hmc14anxk2ufy4us7uP3m5Xi8dvJ5FVXV2L67E8wu7MEgmXAERZIxuV2MHDlBsNaLUdPZ0TI55t9yE90fHOF7v9jEfR9byNzaWnqHwuzo7CebFTTVOrhz3TLq66su9y1fEYQQuBw2TIo8aWqQTiKV4cDJIT6xbnnBudhAQuL44Bj7T/QbA9qTDTdT4rUYrdKv39zFe539oOYRhRPtDiv3rF7IvhNDHOsfA11FkiGV0/mnZzfT0VhN0Oue6h1WxkiSUHWGkwUVrzhbA4GqCyIZld3jUX7TG2IgpyNr+VLfT5cUvCLPvY0NOGcwdElFB1Pd0HR09MJ0ylOtvoYgldc4Gk3yg+PDCEVBzhmeNTISKCYW+pzn/1IugCsyHamo9g30jmBr7kBLphBCwhEIoqYz1Fy/gDd27Gb/7w7iyCdQhUw2k2G0ppq6ua0MHTyCszqIvbaOUPcg7r4+Pv6V+0nE4+w70E3VXRuxBquYs241ofpq/u1kL769uwnlVNxrlmOxWjnYN8i7P32Fb33pfqr83osbn7oKEBI0BLxYFTCc+Y2SruVVXt91mLVL2lk+twmr2UQ6q7L/RD///OwmklkVSdemKmWFQX+hC2RFYtv+Y/z0te2k02kKEwQQssLqha38+WN38fzWD/jbp94mlUoYswjQ+KB7hH98ZhP/9bG7St2O6VMDBYCa5ZmeMd4dj6OLySYUiZyuM5LOE1aNoRspl0EgIaMjZBmsdr44r4plAXehRS7zXASQy7B91AjSlFH1wrw+QwB1XZDVdUazKgdiGSKqgEwaveC/K0wWbLrGfS1XpqK+IgJY7HMtXj6P3+3uonZuE3I+TyYSwer3EznRg+Rykm6vIme1Y3Y50DJZ7ONjJLe+z1KXnYGuk2Q1nescVh753N0EvW62vrefD7IZ2iwy6WiMeP8A/e/uwtvaiL5yCY21taCqJIeHaFo6n35V4/XX9vDYZ25FGJpGsZMwKbOUptucQhS/OqXCXlFNVpQGyMEo2LouqPF7aKvx0Ts6gVIYuxNCYzya4Fs/eYm22gA2s0IinaVvLEooUQj+NH1CZKEBlGWZiXiKH7z4HuFkpjD/zpiS1BB08ycP3YbVYuHedcs52D3Eb987BGrO6Fvnc7z43iHmNVTze3euNXItSv8Z+UYCXWcwqzKoZcs8Q8MAIgsBukppDFU2g8XKHVU2HmmtwaIoZX9qKJACSc1zKKZzKHWGwFqSDKqKrKsFSRZgMqNb7XyuycUCn2vm315CrpAAGp/X37CAVUd6eWfLe9SvuA4kweDeg1T19nBrazUvbOqk6ZEHcVcFyaVShDZv4fNLqll/8xqisTRC16mrD3Bw33G2vbmbN7cfo+r37qDvuTcx5TM0+pw8sWoOh451szkaY05NFdlEAovbTXY8RHBOE0ef2zI1LEOxr4BRUcjTvPeLXh+GR5lciCEzg/QVfmsYGAVyof9hzBOc/JtJhbKQpkYxOvb0axY3qVQBlKbuyDKfWLeMnV3DZFIpJNkYqEbSGZ+IMx5LnkpOkrBZLCxsDNA1OE4inUGRZaPAFly+dCF4fedBPjg5cKpgCh2TycLn7lxLe2MNmqZjt5r54n3r2XOsl57hiBH+SIZsPs9/bN7DLSsX0lDlK6QtMBrRSfes5pA0tcwDFKeejgAhKWC1IefzPNzg5svzG7CblJIRp1RJCmM2xqlAI4bHDmpuxtckFSbdCozWXZjMgMxD1XY+O7eh/Pu9DFzBoExgsVr48qc/RvPv3mfHrvfJC/iYx8Pdn7mDmlovXX//G04eOIRl1Qqig4M44kk+fseDKCYLLrcLIeC7//oiB/M61poq1NtXoU4kuNFj4TP33ozL5cTnczO/rYnn/uk5WtatRkslULM5PHV1hAdGqKn1F2K3GPlSVQ0UM8WFYoyBZoV83iggqi4QkoJQzIYjsCIbL0wvU7sWBFvVjNpUzeUN9c5qRtMLVlh0hABNSKCY0YUxZUo2m1D10y1vmqYjJFMhWpoA2YSOYrjTARtvWMzeE0P8atNedM2YHoUukNARqmb07yQZRZZ5+JZlXNfexP/+L88hFDN5XQWzmVzBB3X3kW7+8bdb0AqBqgBQrNy6bA6funUlUDSs6TRVB/jSvev5f37xBul0hmL/qmc8yb+9tp0/fehWdAHCbCWfSYPZPKkJL/43gwlUkg2vlnyGZU4Tn57TwK31AZzmU76mxV/qABYbQlPLz46f/oPivgkjHUkCTaXOLPGFefXc1RjAW4gIcM3PiJ9MUW1yuuw8dP9N3KdqRggFs4KpMH/tT778AP/vd/6DYaFhd3lZ4fCimCyomjGf719+8CL7nW6Caxeh5XJU1dXSs2sv3moXjY21hQm/OtXVAW6f28iRwyfwz2vFpOmkEhnGt+3kzi/ce6qjDrgddhp9TmRFKvUpVFUQ9LoB8Lsc1Hmt6MKKSVFQVY16rwtzOU+YwsTjoMtG0AJunx9JkokmUvic9lKNbTIp+O1mapwmHDYbEgrJTBa/y3HqYRVw2+1UORR8Vo8RSyavE7TLOArjmWbFxJ89ejsNfjfPbt7LYCiGLhVnmEvIQqO1LsADN1/Pwxtv4Ej3EK01XoQwnn0ylaMh6CeZyfHqzoNImkZblRuBQNMFLpuNr37qNixm02njfJ+46Tr2nxhk855ObFZzoQKD7QeO07t2EUG3l2A+gdVhRtPF9NhRlOuIWySZoNXCHLeDG6rd3FDlxmMxGd43ZXxNHbJCg6KhmIrjfae+L3YzSt2NScdNsoTXYqbFbWOZ38WqKg/NLpvhiA1cHif405FEGbv85MT39MYvaYLTX2Jx5rzQdWRF4aVnfsVT+WpMDg8fj4zw6OfvQeiCXDbDV//+1zjuuIN8eAxXfQNqLocuS9h+t5M/ffgGGlubjOvIMuFwjCf/4w0Oa3nMNgdyJMzjt61m7Q0Lp7hNZXI5JhLpSfdcmBdnt+O0W0mmc8RTqdLgtRACkyIT8LhOKwzFe4mn06Qy2ZIVUtd13A4HTpulpOrFkxnS2SxSwcohdIHbacdps065ZiaXJ5pIIQomdaHrKIqC12XHYpoqFOPROJ3dQwxH4qRzeSyKQmOVj8XtjfgLYfayuTzxlBGEqDjLwW614LBaGInEkCVKedJ1HZvZis/toLgk3PT3mMurhGLxwr0aanIur+FxWLHZ7YSz2XP2ERW6jtWk4DQrWCZZZoUQiILT9HRymkY4Y/QXpXOMvi3QUZBwmc3YJ8V/Laq2l3Iq0ooW96nrlxmiueJhCUtjg5MoGhi27jnCS+9EMN0xFz2vcrh3kNhEAq/PbcxyMJmMQEE5FclkJjc2hjkQIKcKVNWYZSDLxgTVQMDD1/+XB+k5cZJkIktbx604Xe4pfSgAm8VCXWDmSbpOuwWn/dwm8RYDDHmdDrzO0+NKltaDALwuO16Xvew5k5cls1nM2ALeGdOUZakU+7LK66ZqubvsecX+jtVixmo5PfKzEOJUv63Md9M9XIrv0WI2UR+c2WWrzmGb8bszYQz4i9IQyEyiZVEU6pwX7jRddCwQRgf7is0DLDIri7NMbwElSWL7zsN87609VD3ycbwBP3lV5dDIOD99YStf+fTteLw+mhSZk/1DBNqaSY2NYvX7SMczLKpzEawOlK5XLByyLNHW0T4lremUXf6r0E8oGQvLdFdmek9Tlkab0u+YtAyWJJ2e7rRzZrxWmXOLalNREE+7x8K15Mn3O83Ie8a0ZsAY4y2TXuEdlHu058LkhWsM388zX+RCDdKT0ykaoq40s75CLhLomsYLOw4QXH8TJlNhpoKmUn/TKvbF8xzZ3wXAf3rgY9R3nWRwzwFy2Txjx3oQO3Zx74ZFuD2uKcMHRSEsjjLMNMG17PJfnHrnk/+evJ2J0rJcU653lnTLnFP2WjNdj0l9oKI7XuGb0hJck9NlioF1ynXOJV+n8nf6VqxgT0vnHLeii9m5isOFpDE9nVmQPeAqWKATQNVUMlYLFo+D1GAfjmCQ5OAA9tpqLF4fI8OjCBbQ3FbLn336VnYePsJ4dAS3y8zKB9bRNqe82XhyS/vhn71gcKriOP/7vdqWOfsoMKsCeMoqaMab1+gZCeFvbSM5OIjZ5UbXZfKhcdpWrEDCaNFq6oLcW7eeXDaD2WKtFJoK1zSzqoLCKeffh265gfT7u4gOjyM7nAhJZmzbdtbXemmf1wxMVSvNVisUhh0qVLhWmXUVtNiCLbtuDn+B4Ddv76VHzWLT4fc62vnEA6tQ5FNWrqJaWZzPVX5thAoVrg2u+DhghQofJc42DlhpPipUmEUqAlihwixSEcAKFWaRigBWqDCLVASwQoVZpCKAFSrMIhUBrFBhFqkIYIUKs0hFACtUmEUqAlihwixSEcAKFWaRigBWqDCLVASwQoVZpCKAFSrMIhUBrFBhFikrgMVAuQDpVPKKZaZChQ8Tk2VnskxNpqwALl26tLT/F3/6RVLJxCXOWoUKH25SyQR/8adfLP29bNmysueVFcBvfvObpf1Nr73Iw7ev5qVnf4WmnWG1mQoVKqBpGi89+ysevn01m157sXT8L//yL8ueXzYkBcB3vvMdvvGNb0w51tQ6h0f+4Ivc//BnCVRVX8JsV6hwbRMeH+P5p/6d3/zsh/T3nJzy3be//W2+/vWvl/3djAII8OKLL/KVr3yFwcHBKcdlWWbN+lv52N2fZMPtd1PX0HQJbqFChWuL4cF+trzxCm++8lt2bH27tGJVkYaGBp588knuvffeGa9xRgEESCaTfO973+P73/8+Y2NjZc/pmL+IG2++jVU33cKKNTfh8wcv4HYqVLi6mYiE2LPjXXa9u5nt72yi6+jhsudVV1fzxBNP8LWvfQ2n88xLXZ9VAItkMhl+8Ytf8OMf/5gtW7aUjfBUpK1jPstWrmbJ8pUsWX4D8xcuxWK1znh+hQpXG9lMhmOdBzm4730O7tvN/t076e46OuP5kiSxYcMGHn/8cR577DFstnNblOacBXAyvb29PPPMMzz77LNs3bqVfD5/xvMVRaGtYz7zFy9j7oLFzF2wmI75i6hvaikt4VWhwmyg6zpD/b10HT3M8c5DHO88xNFD++nuOnpWo6PZbGb9+vU8+OCDPPTQQ7S0tJx3+hckgJNJJBK89dZbvPXWW2zZsoU9e/acs7XUarXRMqeDto75tLTPpbl1Ds2t7TS1tlNdW1cJO1/hkiCEYGxkmP6eE/T1nKCv5yS9J47T3XWUnpPHyWWz53QdRVFYsWIFGzZsYOPGjWzcuBGX6+LWkr9oAZxOIpFg165d7Nixgx07drBnzx5Onjx5RpW1HBarlfrGFhqaWmhobqWuvpG6xmbqGpqorW+kuq4em+309fUqfPTIZNKMDQ8xMjTA8GA/wwN9DA8NMNjXw2B/L0MDvecsZEUkSWLOnDmsXLmS1atXs2bNGlatWnXRAndaOpdaAMsRi8XYt28fBw4c4MCBAxw8eJDDhw8zOjp6Udd1e31U19ZRU1tPsLqWYHUtVdW1BGtqCQSr8QerCASr8QWCmM2nL0pZ4eoln88zEQ4RDo0RCY0TDo0RGh1hfGyEUGEbHRlibGSYeHTiotKqqalh0aJFLFmyhKVLl7J06VKWL1+Ox+O5RHczM1dEAGciEonQ2dnJ0aNHOX78OMePH6erq4uuri5CodAlTcvl8eLzB/D6AvgDQTw+P16fH4/Xj9vrw+P14fZ4cXk8uN1eXG4PLo8Hp8szoxtRhTOjqirJRIxELEYiHiMej5KIxYjHosSiE8SjE8SiEaITEWITESLhENGJMBORMIlY9JLmJRgM0tHRQUdHB3PnzmXu3LnMnz+fhQsX4vOVXxn4SjCrAngm4vE43d3ddHd309PTQ19fH729vfT19dHf38/Q0BC5XO6K5MViteJ0unG4XDidLuwOJ3anE7vdid3hwO5wYrVasdrsWKxWbDY7FqsNm8025ZjZYsVkNmEymTGbLZjMZkwmEyazGbPJXPjbOCbJMrIsGwtqyjKydGpfkiTkwvdgGBJ0XTeWoS586kI/ta8b+6qqoqp51HyefOFTzedRVZV8Plf4TiWfy5LJpMlls2QzaTKZDLls5rRjmXSKdCpFOp0knUySTiVJJhOkEgmSyfh5q30X/H4sFurr62lqaqK5uZmWlhaam5tpbW2lra2NtrY23O7yS3fPNletAJ4NIQTj4+MMDg4yODjI8PBwaRsZGWF0dJSxsTFGR0cJhUIVN7prDEVRCAaD1NTUUF1dTU1NDbW1tdTV1ZW2hoYGGhoaqKqqumYNdtesAJ4PQggikQihUIhQKMT4+DjhcJhIJFL6jEQiRKNRotEoExMTRKNRYrEY8XgcVVVn+xauSUwmE263G4/Hg9frxefz4fV68Xq9+P1+/H4/gUCg9FlVVUUwGCQYDOL3+69ZoTofPhICeLGk02ni8XhpSyaTJJNJEokEyWSSVCpFOm2oZeU+i/vZbJZcLkc+nz/rNlmtnL4/+RhQUkeLqulkFXXyvtlsPutmsViwWq3YbDbsdjt2u720P/3T4XDgdDpxuVw4nU6cTidut7u02e0VK/XZqAhghQqzyP8PcvtvdM9G+RoAAAAASUVORK5CYII=;" parent="1" vertex="1">
          <mxGeometry x="1210" y="-52" width="205.02" height="108" as="geometry" />
        </mxCell>
        <mxCell id="IXPr_4PSgs1dPin-ic8F-31" value="" style="shape=image;verticalLabelPosition=bottom;labelBackgroundColor=default;verticalAlign=top;aspect=fixed;imageAspect=0;image=https://static001.geekbang.org/infoq/2a/2acf888aa0e0fb9bee75c79b79972c82.png;" parent="1" vertex="1">
          <mxGeometry x="520" y="-54" width="191.88" height="100" as="geometry" />
        </mxCell>
        <mxCell id="IXPr_4PSgs1dPin-ic8F-32" value="" style="shape=image;verticalLabelPosition=bottom;labelBackgroundColor=default;verticalAlign=top;aspect=fixed;imageAspect=0;image=https://antaresnet.com/wp-content/uploads/2018/07/Elasticsearch-Logo-Color-V.png;" parent="1" vertex="1">
          <mxGeometry x="934.74" y="-64" width="230.26" height="120" as="geometry" />
        </mxCell>
        <mxCell id="IXPr_4PSgs1dPin-ic8F-34" value="" style="shape=image;verticalLabelPosition=bottom;labelBackgroundColor=default;verticalAlign=top;aspect=fixed;imageAspect=0;image=https://download.logo.wine/logo/Redis/Redis-Logo.wine.png;" parent="1" vertex="1">
          <mxGeometry x="270" y="-75" width="224.78" height="150" as="geometry" />
        </mxCell>
        <mxCell id="IXPr_4PSgs1dPin-ic8F-36" value="" style="shape=image;verticalLabelPosition=bottom;labelBackgroundColor=default;verticalAlign=top;aspect=fixed;imageAspect=0;image=https://linuxtips.us/wp-content/uploads/Filebeat-logo.png;" parent="1" vertex="1">
          <mxGeometry x="921.89" y="146.5" width="165.96" height="60" as="geometry" />
        </mxCell>
        <mxCell id="IXPr_4PSgs1dPin-ic8F-37" value="" style="shape=image;verticalLabelPosition=bottom;labelBackgroundColor=default;verticalAlign=top;aspect=fixed;imageAspect=0;image=https://bimap.sharkcdn.io/webIcons/4c8ff70aaf77983e34d216c7b2da4223dff724e0.png;" parent="1" vertex="1">
          <mxGeometry x="1180" y="146.5" width="218.18" height="60" as="geometry" />
        </mxCell>
        <mxCell id="IXPr_4PSgs1dPin-ic8F-38" value="" style="shape=image;verticalLabelPosition=bottom;labelBackgroundColor=default;verticalAlign=top;aspect=fixed;imageAspect=0;image=https://user-images.githubusercontent.com/7990614/27530684-09d7c75a-5a5a-11e7-9893-1395507feb2e.png;" parent="1" vertex="1">
          <mxGeometry x="165.51" y="136.5" width="74.49" height="80" as="geometry" />
        </mxCell>
        <mxCell id="IXPr_4PSgs1dPin-ic8F-39" value="" style="shape=image;verticalLabelPosition=bottom;labelBackgroundColor=default;verticalAlign=top;aspect=fixed;imageAspect=0;image=https://res.cloudinary.com/dy5dvcuc1/image/upload/v1577243198/walkerfree/celery.png;" parent="1" vertex="1">
          <mxGeometry x="390" y="120" width="215.24" height="113" as="geometry" />
        </mxCell>
        <mxCell id="IXPr_4PSgs1dPin-ic8F-41" value="+" style="text;html=1;strokeColor=none;fillColor=none;align=center;verticalAlign=middle;whiteSpace=wrap;rounded=0;fontSize=37;" parent="1" vertex="1">
          <mxGeometry x="280" y="161.5" width="60" height="30" as="geometry" />
        </mxCell>
        <mxCell id="IXPr_4PSgs1dPin-ic8F-42" value="数据计算层" style="rounded=0;whiteSpace=wrap;html=1;fontSize=22;fillColor=#b0e3e6;strokeColor=#0e8088;" parent="1" vertex="1">
          <mxGeometry x="80" y="-300" width="1440" height="150" as="geometry" />
        </mxCell>
        <mxCell id="IXPr_4PSgs1dPin-ic8F-47" value="数据接口" style="rounded=1;whiteSpace=wrap;html=1;fontSize=17;fillColor=#cdeb8b;strokeColor=#36393d;" parent="1" vertex="1">
          <mxGeometry x="104.49000000000001" y="-265" width="120" height="60" as="geometry" />
        </mxCell>
        <mxCell id="IXPr_4PSgs1dPin-ic8F-48" value="" style="shape=flexArrow;endArrow=classic;html=1;rounded=0;fontSize=17;exitX=1;exitY=0.5;exitDx=0;exitDy=0;entryX=0;entryY=0.5;entryDx=0;entryDy=0;fillColor=#cdeb8b;strokeColor=#36393d;" parent="1" source="IXPr_4PSgs1dPin-ic8F-47" target="IXPr_4PSgs1dPin-ic8F-49" edge="1">
          <mxGeometry width="50" height="50" relative="1" as="geometry">
            <mxPoint x="770" y="-60" as="sourcePoint" />
            <mxPoint x="820" y="-110" as="targetPoint" />
          </mxGeometry>
        </mxCell>
        <mxCell id="IXPr_4PSgs1dPin-ic8F-49" value="" style="shape=image;verticalLabelPosition=bottom;labelBackgroundColor=default;verticalAlign=top;aspect=fixed;imageAspect=0;image=https://upload.wikimedia.org/wikipedia/commons/thumb/0/05/Scikit_learn_logo_small.svg/800px-Scikit_learn_logo_small.svg.png;" parent="1" vertex="1">
          <mxGeometry x="300" y="-280" width="167.14" height="90" as="geometry" />
        </mxCell>
        <mxCell id="IXPr_4PSgs1dPin-ic8F-50" value="机器学习算法模块" style="text;html=1;strokeColor=none;fillColor=none;align=center;verticalAlign=middle;whiteSpace=wrap;rounded=0;fontSize=17;" parent="1" vertex="1">
          <mxGeometry x="310" y="-190" width="140" height="30" as="geometry" />
        </mxCell>
        <mxCell id="IXPr_4PSgs1dPin-ic8F-51" value="" style="shape=flexArrow;endArrow=classic;html=1;rounded=0;fontSize=17;exitX=1;exitY=0.5;exitDx=0;exitDy=0;entryX=0;entryY=0.5;entryDx=0;entryDy=0;entryPerimeter=0;fillColor=#cdeb8b;strokeColor=#36393d;" parent="1" source="IXPr_4PSgs1dPin-ic8F-49" target="IXPr_4PSgs1dPin-ic8F-52" edge="1">
          <mxGeometry width="50" height="50" relative="1" as="geometry">
            <mxPoint x="234.48999999999978" y="-225" as="sourcePoint" />
            <mxPoint x="310" y="-225" as="targetPoint" />
          </mxGeometry>
        </mxCell>
        <mxCell id="IXPr_4PSgs1dPin-ic8F-52" value="模型库" style="shape=cylinder3;whiteSpace=wrap;html=1;boundedLbl=1;backgroundOutline=1;size=15;fontSize=17;fillColor=#cdeb8b;strokeColor=#36393d;" parent="1" vertex="1">
          <mxGeometry x="530" y="-272.5" width="100" height="75" as="geometry" />
        </mxCell>
        <mxCell id="IXPr_4PSgs1dPin-ic8F-55" value="输入" style="text;html=1;strokeColor=none;fillColor=none;align=center;verticalAlign=middle;whiteSpace=wrap;rounded=0;fontSize=17;" parent="1" vertex="1">
          <mxGeometry x="220" y="-235" width="60" height="30" as="geometry" />
        </mxCell>
        <mxCell id="IXPr_4PSgs1dPin-ic8F-56" value="输出" style="text;html=1;strokeColor=none;fillColor=none;align=center;verticalAlign=middle;whiteSpace=wrap;rounded=0;fontSize=17;" parent="1" vertex="1">
          <mxGeometry x="467.14" y="-230" width="60" height="30" as="geometry" />
        </mxCell>
        <mxCell id="IXPr_4PSgs1dPin-ic8F-57" value="" style="swimlane;startSize=0;fontSize=17;" parent="1" vertex="1">
          <mxGeometry x="910" y="-286.25" width="560" height="122.5" as="geometry" />
        </mxCell>
        <mxCell id="IXPr_4PSgs1dPin-ic8F-59" value="实时计算分析" style="text;html=1;strokeColor=none;fillColor=none;align=center;verticalAlign=middle;whiteSpace=wrap;rounded=0;fontSize=17;" parent="IXPr_4PSgs1dPin-ic8F-57" vertex="1">
          <mxGeometry x="190" width="180" height="30" as="geometry" />
        </mxCell>
        <mxCell id="IXPr_4PSgs1dPin-ic8F-60" value="" style="shape=image;verticalLabelPosition=bottom;labelBackgroundColor=default;verticalAlign=top;aspect=fixed;imageAspect=0;image=https://flink.apache.org/img/logo/png/1000/flink_squirrel_1000.png;" parent="IXPr_4PSgs1dPin-ic8F-57" vertex="1">
          <mxGeometry x="350" y="6.25" width="110" height="110" as="geometry" />
        </mxCell>
        <mxCell id="IXPr_4PSgs1dPin-ic8F-61" value="数据流" style="text;html=1;strokeColor=none;fillColor=none;align=center;verticalAlign=middle;whiteSpace=wrap;rounded=0;fontSize=17;" parent="IXPr_4PSgs1dPin-ic8F-57" vertex="1">
          <mxGeometry x="100" y="46.25" width="70" height="43.75" as="geometry" />
        </mxCell>
        <mxCell id="IXPr_4PSgs1dPin-ic8F-62" value="&lt;font style=&quot;font-size: 22px;&quot;&gt;&amp;nbsp;数据展示层&lt;/font&gt;" style="rounded=0;whiteSpace=wrap;html=1;fontSize=17;fillColor=#b1ddf0;strokeColor=#10739e;" parent="1" vertex="1">
          <mxGeometry x="80" y="-600" width="1440" height="230" as="geometry" />
        </mxCell>
        <mxCell id="IXPr_4PSgs1dPin-ic8F-63" value="" style="shape=image;verticalLabelPosition=bottom;labelBackgroundColor=default;verticalAlign=top;aspect=fixed;imageAspect=0;image=https://m.esensoft.com/data/upload/editer/image/2021/03/12/46604b31c5d2647.jpg;" parent="1" vertex="1">
          <mxGeometry x="140.81" y="-549.62" width="258.39" height="160" as="geometry" />
        </mxCell>
        <mxCell id="IXPr_4PSgs1dPin-ic8F-64" value="ElasticSearch可视化" style="text;html=1;strokeColor=none;fillColor=none;align=center;verticalAlign=middle;whiteSpace=wrap;rounded=0;fontSize=22;" parent="1" vertex="1">
          <mxGeometry x="154.82" y="-590" width="250" height="30" as="geometry" />
        </mxCell>
        <mxCell id="IXPr_4PSgs1dPin-ic8F-68" value="" style="shape=image;verticalLabelPosition=bottom;labelBackgroundColor=default;verticalAlign=top;aspect=fixed;imageAspect=0;image=https://i.ytimg.com/vi/cUP_ZRn5rro/maxresdefault.jpg;" parent="1" vertex="1">
          <mxGeometry x="900" y="-554.61" width="301.71" height="170" as="geometry" />
        </mxCell>
        <mxCell id="IXPr_4PSgs1dPin-ic8F-69" value="智能运维Kibana可视化" style="text;html=1;strokeColor=none;fillColor=none;align=center;verticalAlign=middle;whiteSpace=wrap;rounded=0;fontSize=22;" parent="1" vertex="1">
          <mxGeometry x="915" y="-590" width="250" height="30" as="geometry" />
        </mxCell>
        <mxCell id="IXPr_4PSgs1dPin-ic8F-70" value="" style="shape=image;verticalLabelPosition=bottom;labelBackgroundColor=default;verticalAlign=top;aspect=fixed;imageAspect=0;image=https://www.whyvv.top/images/gfa_grafana.png;" parent="1" vertex="1">
          <mxGeometry x="427.64" y="-544.3199999999999" width="304.71" height="149.42" as="geometry" />
        </mxCell>
        <mxCell id="IXPr_4PSgs1dPin-ic8F-72" value="Grafana监控可视化" style="text;html=1;strokeColor=none;fillColor=none;align=center;verticalAlign=middle;whiteSpace=wrap;rounded=0;fontSize=22;" parent="1" vertex="1">
          <mxGeometry x="450" y="-584.61" width="250" height="30" as="geometry" />
        </mxCell>
        <mxCell id="IXPr_4PSgs1dPin-ic8F-73" value="" style="shape=image;verticalLabelPosition=bottom;labelBackgroundColor=default;verticalAlign=top;aspect=fixed;imageAspect=0;image=https://image.plob.org/wp-content/uploads/2012/12/colordimension.jpg;" parent="1" vertex="1">
          <mxGeometry x="1250" y="-554.61" width="257.49" height="169.35" as="geometry" />
        </mxCell>
        <mxCell id="IXPr_4PSgs1dPin-ic8F-74" value="数据挖掘可视化" style="text;html=1;strokeColor=none;fillColor=none;align=center;verticalAlign=middle;whiteSpace=wrap;rounded=0;fontSize=22;" parent="1" vertex="1">
          <mxGeometry x="1245" y="-590" width="250" height="30" as="geometry" />
        </mxCell>
        <mxCell id="IXPr_4PSgs1dPin-ic8F-75" value="历史库" style="text;html=1;strokeColor=none;fillColor=none;align=center;verticalAlign=middle;whiteSpace=wrap;rounded=0;fontSize=22;" parent="1" vertex="1">
          <mxGeometry x="1430" y="-13" width="80" height="30" as="geometry" />
        </mxCell>
        <mxCell id="IXPr_4PSgs1dPin-ic8F-76" value="Cli工具" style="text;html=1;strokeColor=none;fillColor=none;align=center;verticalAlign=middle;whiteSpace=wrap;rounded=0;fontSize=22;" parent="1" vertex="1">
          <mxGeometry x="80" y="161.5" width="80" height="30" as="geometry" />
        </mxCell>
        <mxCell id="IXPr_4PSgs1dPin-ic8F-77" value="" style="shape=flexArrow;endArrow=classic;html=1;rounded=0;fontSize=22;fillColor=#e3c800;strokeColor=#B09500;" parent="1" source="IXPr_4PSgs1dPin-ic8F-2" edge="1">
          <mxGeometry width="50" height="50" relative="1" as="geometry">
            <mxPoint x="760" y="360" as="sourcePoint" />
            <mxPoint x="250" y="400" as="targetPoint" />
          </mxGeometry>
        </mxCell>
        <mxCell id="IXPr_4PSgs1dPin-ic8F-78" value="" style="shape=flexArrow;endArrow=classic;html=1;rounded=0;fontSize=22;exitX=0.5;exitY=0;exitDx=0;exitDy=0;fillColor=#e3c800;strokeColor=#B09500;" parent="1" source="IXPr_4PSgs1dPin-ic8F-3" edge="1">
          <mxGeometry width="50" height="50" relative="1" as="geometry">
            <mxPoint x="257.03999999999996" y="490.0999999999999" as="sourcePoint" />
            <mxPoint x="545" y="400" as="targetPoint" />
          </mxGeometry>
        </mxCell>
        <mxCell id="IXPr_4PSgs1dPin-ic8F-79" value="" style="shape=flexArrow;endArrow=classic;html=1;rounded=0;fontSize=22;fillColor=#e3c800;strokeColor=#B09500;entryX=0.669;entryY=1.004;entryDx=0;entryDy=0;entryPerimeter=0;" parent="1" source="IXPr_4PSgs1dPin-ic8F-4" target="IXPr_4PSgs1dPin-ic8F-6" edge="1">
          <mxGeometry width="50" height="50" relative="1" as="geometry">
            <mxPoint x="267.03999999999996" y="500.0999999999999" as="sourcePoint" />
            <mxPoint x="267.0000000000002" y="420" as="targetPoint" />
          </mxGeometry>
        </mxCell>
        <mxCell id="IXPr_4PSgs1dPin-ic8F-80" value="" style="shape=flexArrow;endArrow=classic;html=1;rounded=0;fontSize=22;exitX=0.5;exitY=0;exitDx=0;exitDy=0;fillColor=#e3c800;strokeColor=#B09500;entryX=0.886;entryY=1.004;entryDx=0;entryDy=0;entryPerimeter=0;" parent="1" source="IXPr_4PSgs1dPin-ic8F-5" target="IXPr_4PSgs1dPin-ic8F-6" edge="1">
          <mxGeometry width="50" height="50" relative="1" as="geometry">
            <mxPoint x="277.03999999999996" y="510.0999999999999" as="sourcePoint" />
            <mxPoint x="280" y="430" as="targetPoint" />
          </mxGeometry>
        </mxCell>
        <mxCell id="IXPr_4PSgs1dPin-ic8F-81" value="" style="shape=flexArrow;endArrow=classic;html=1;rounded=0;fontSize=22;exitX=0.166;exitY=-0.001;exitDx=0;exitDy=0;exitPerimeter=0;fillColor=#e3c800;strokeColor=#B09500;" parent="1" source="IXPr_4PSgs1dPin-ic8F-6" edge="1">
          <mxGeometry width="50" height="50" relative="1" as="geometry">
            <mxPoint x="287.03999999999996" y="520.0999999999999" as="sourcePoint" />
            <mxPoint x="319" y="220" as="targetPoint" />
          </mxGeometry>
        </mxCell>
        <mxCell id="IXPr_4PSgs1dPin-ic8F-82" value="" style="shape=flexArrow;endArrow=classic;html=1;rounded=0;fontSize=22;exitX=0.75;exitY=0;exitDx=0;exitDy=0;fillColor=#e3c800;strokeColor=#B09500;entryX=0.75;entryY=1;entryDx=0;entryDy=0;" parent="1" source="IXPr_4PSgs1dPin-ic8F-6" target="IXPr_4PSgs1dPin-ic8F-17" edge="1">
          <mxGeometry width="50" height="50" relative="1" as="geometry">
            <mxPoint x="329.03999999999996" y="279.8700000000001" as="sourcePoint" />
            <mxPoint x="329" y="230.00000000000023" as="targetPoint" />
          </mxGeometry>
        </mxCell>
        <mxCell id="IXPr_4PSgs1dPin-ic8F-83" value="" style="shape=flexArrow;endArrow=classic;html=1;rounded=0;fontSize=22;exitX=0.21;exitY=-0.025;exitDx=0;exitDy=0;exitPerimeter=0;fillColor=#e3c800;strokeColor=#B09500;entryX=0.5;entryY=1;entryDx=0;entryDy=0;" parent="1" source="IXPr_4PSgs1dPin-ic8F-17" target="IXPr_4PSgs1dPin-ic8F-34" edge="1">
          <mxGeometry width="50" height="50" relative="1" as="geometry">
            <mxPoint x="339.03999999999996" y="289.8700000000001" as="sourcePoint" />
            <mxPoint x="339" y="240.00000000000023" as="targetPoint" />
          </mxGeometry>
        </mxCell>
        <mxCell id="IXPr_4PSgs1dPin-ic8F-84" value="" style="shape=flexArrow;endArrow=classic;html=1;rounded=0;fontSize=22;exitX=0.75;exitY=0;exitDx=0;exitDy=0;fillColor=#e3c800;strokeColor=#B09500;entryX=0.75;entryY=1;entryDx=0;entryDy=0;" parent="1" source="IXPr_4PSgs1dPin-ic8F-17" target="IXPr_4PSgs1dPin-ic8F-24" edge="1">
          <mxGeometry width="50" height="50" relative="1" as="geometry">
            <mxPoint x="349.03999999999996" y="299.8700000000001" as="sourcePoint" />
            <mxPoint x="349" y="250.00000000000023" as="targetPoint" />
          </mxGeometry>
        </mxCell>
        <mxCell id="IXPr_4PSgs1dPin-ic8F-85" value="" style="shape=flexArrow;endArrow=classic;html=1;rounded=0;fontSize=22;exitX=0.221;exitY=0;exitDx=0;exitDy=0;exitPerimeter=0;fillColor=#e3c800;strokeColor=#B09500;entryX=0.221;entryY=1.016;entryDx=0;entryDy=0;entryPerimeter=0;" parent="1" source="IXPr_4PSgs1dPin-ic8F-24" target="IXPr_4PSgs1dPin-ic8F-42" edge="1">
          <mxGeometry width="50" height="50" relative="1" as="geometry">
            <mxPoint x="359.03999999999996" y="309.8700000000001" as="sourcePoint" />
            <mxPoint x="359" y="260.0000000000002" as="targetPoint" />
          </mxGeometry>
        </mxCell>
        <mxCell id="IXPr_4PSgs1dPin-ic8F-86" value="" style="shape=flexArrow;endArrow=classic;html=1;rounded=0;fontSize=22;exitX=0.75;exitY=0;exitDx=0;exitDy=0;fillColor=#e3c800;strokeColor=#B09500;entryX=0.75;entryY=1;entryDx=0;entryDy=0;" parent="1" source="IXPr_4PSgs1dPin-ic8F-24" target="IXPr_4PSgs1dPin-ic8F-42" edge="1">
          <mxGeometry width="50" height="50" relative="1" as="geometry">
            <mxPoint x="369.03999999999996" y="319.8700000000001" as="sourcePoint" />
            <mxPoint x="369" y="270.0000000000002" as="targetPoint" />
          </mxGeometry>
        </mxCell>
        <mxCell id="IXPr_4PSgs1dPin-ic8F-87" value="" style="shape=flexArrow;endArrow=classic;html=1;rounded=0;fontSize=22;exitX=0.25;exitY=0;exitDx=0;exitDy=0;fillColor=#e3c800;strokeColor=#B09500;entryX=0.25;entryY=1;entryDx=0;entryDy=0;" parent="1" source="IXPr_4PSgs1dPin-ic8F-42" target="IXPr_4PSgs1dPin-ic8F-62" edge="1">
          <mxGeometry width="50" height="50" relative="1" as="geometry">
            <mxPoint x="408.2399999999998" y="-70" as="sourcePoint" />
            <mxPoint x="408.2399999999998" y="-137.5999999999999" as="targetPoint" />
          </mxGeometry>
        </mxCell>
        <mxCell id="IXPr_4PSgs1dPin-ic8F-88" value="" style="shape=flexArrow;endArrow=classic;html=1;rounded=0;fontSize=22;exitX=0.75;exitY=0;exitDx=0;exitDy=0;fillColor=#e3c800;strokeColor=#B09500;entryX=0.75;entryY=1;entryDx=0;entryDy=0;" parent="1" source="IXPr_4PSgs1dPin-ic8F-42" target="IXPr_4PSgs1dPin-ic8F-62" edge="1">
          <mxGeometry width="50" height="50" relative="1" as="geometry">
            <mxPoint x="418.2399999999998" y="-60" as="sourcePoint" />
            <mxPoint x="418.2399999999998" y="-127.59999999999991" as="targetPoint" />
          </mxGeometry>
        </mxCell>
        <mxCell id="tR1yyYKcrdSd5KUUS996-3" value="" style="shape=flexArrow;endArrow=classic;html=1;rounded=0;fillColor=#dae8fc;strokeColor=#6c8ebf;" parent="1" edge="1">
          <mxGeometry width="50" height="50" relative="1" as="geometry">
            <mxPoint x="99.83" y="1245" as="sourcePoint" />
            <mxPoint x="100" y="700" as="targetPoint" />
          </mxGeometry>
        </mxCell>
        <mxCell id="tR1yyYKcrdSd5KUUS996-4" value="" style="shape=flexArrow;endArrow=classic;html=1;rounded=0;fillColor=#dae8fc;strokeColor=#6c8ebf;" parent="1" edge="1">
          <mxGeometry width="50" height="50" relative="1" as="geometry">
            <mxPoint x="100" y="1245" as="sourcePoint" />
            <mxPoint x="1180" y="1245" as="targetPoint" />
          </mxGeometry>
        </mxCell>
        <mxCell id="tR1yyYKcrdSd5KUUS996-5" value="TaoAIOps Roadmap" style="text;html=1;align=center;verticalAlign=middle;resizable=0;points=[];autosize=1;strokeColor=none;fillColor=none;fontSize=30;" parent="1" vertex="1">
          <mxGeometry x="105" y="660" width="290" height="50" as="geometry" />
        </mxCell>
        <mxCell id="tR1yyYKcrdSd5KUUS996-6" value="自然年" style="text;html=1;align=center;verticalAlign=middle;resizable=0;points=[];autosize=1;strokeColor=none;fillColor=none;fontSize=22;" parent="1" vertex="1">
          <mxGeometry x="1180" y="1225" width="90" height="40" as="geometry" />
        </mxCell>
        <mxCell id="tR1yyYKcrdSd5KUUS996-7" value="2022Q4" style="text;html=1;align=center;verticalAlign=middle;resizable=0;points=[];autosize=1;strokeColor=none;fillColor=none;fontSize=22;" parent="1" vertex="1">
          <mxGeometry x="50" y="1275" width="100" height="40" as="geometry" />
        </mxCell>
        <mxCell id="tR1yyYKcrdSd5KUUS996-8" value="" style="triangle;whiteSpace=wrap;html=1;fontSize=22;rotation=-90;fillColor=#dae8fc;strokeColor=#6c8ebf;" parent="1" vertex="1">
          <mxGeometry x="90" y="1245" width="20" height="30" as="geometry" />
        </mxCell>
        <mxCell id="tR1yyYKcrdSd5KUUS996-9" value="" style="triangle;whiteSpace=wrap;html=1;fontSize=22;rotation=-90;fillColor=#dae8fc;strokeColor=#6c8ebf;" parent="1" vertex="1">
          <mxGeometry x="350" y="1245" width="20" height="30" as="geometry" />
        </mxCell>
        <mxCell id="tR1yyYKcrdSd5KUUS996-10" value="2023Q1" style="text;html=1;align=center;verticalAlign=middle;resizable=0;points=[];autosize=1;strokeColor=none;fillColor=none;fontSize=22;" parent="1" vertex="1">
          <mxGeometry x="310" y="1275" width="100" height="40" as="geometry" />
        </mxCell>
        <mxCell id="tR1yyYKcrdSd5KUUS996-11" value="&lt;div style=&quot;text-align: center; font-size: 11px;&quot;&gt;&lt;span style=&quot;font-size: 11px; background-color: initial;&quot;&gt;TaoAIOps v1.0&lt;/span&gt;&lt;/div&gt;&lt;font style=&quot;font-size: 11px;&quot;&gt;&lt;div style=&quot;text-align: center; font-size: 11px;&quot;&gt;&lt;span style=&quot;background-color: initial; font-size: 11px;&quot;&gt;(智能运维工具taocli)&lt;/span&gt;&lt;/div&gt;&lt;br style=&quot;font-size: 11px;&quot;&gt;&lt;ul style=&quot;font-size: 11px;&quot;&gt;&lt;li style=&quot;font-size: 11px;&quot;&gt;&lt;font style=&quot;font-size: 11px;&quot;&gt;节点健康监测&lt;/font&gt;&lt;/li&gt;&lt;/ul&gt;&lt;/font&gt;&lt;blockquote style=&quot;margin: 0px 0px 0px 40px; border: none; padding: 0px; font-size: 11px;&quot;&gt;&lt;font style=&quot;font-size: 11px;&quot;&gt;&amp;nbsp; &amp;nbsp; 基础环境监测(安装，配置，端口)&lt;/font&gt;&lt;/blockquote&gt;&lt;font style=&quot;font-size: 11px;&quot;&gt;&lt;span style=&quot;white-space: pre; font-size: 11px;&quot;&gt; &amp;nbsp;&lt;/span&gt;&amp;nbsp; &amp;nbsp; &amp;nbsp; &amp;nbsp;硬件监测&lt;br style=&quot;font-size: 11px;&quot;&gt;&lt;span style=&quot;white-space: pre; font-size: 11px;&quot;&gt; &lt;/span&gt;&amp;nbsp; &amp;nbsp; &amp;nbsp; &amp;nbsp; 服务监测(主要进程)&lt;br style=&quot;font-size: 11px;&quot;&gt;&lt;span style=&quot;white-space: pre; font-size: 11px;&quot;&gt; &lt;span style=&quot;white-space: pre; font-size: 11px;&quot;&gt; &lt;/span&gt;健康&lt;/span&gt;监测报告&lt;span style=&quot;font-family: 微软雅黑; font-variant-numeric: normal; font-variant-east-asian: normal; line-height: 24px; widows: 1; font-size: 11px;&quot;&gt;&lt;br style=&quot;font-size: 11px;&quot;&gt;&lt;/span&gt;&lt;br style=&quot;font-size: 11px;&quot;&gt;&lt;ul style=&quot;font-size: 11px;&quot;&gt;&lt;li style=&quot;font-size: 11px;&quot;&gt;&lt;font style=&quot;font-size: 11px;&quot;&gt;维护模式&lt;/font&gt;&lt;/li&gt;&lt;/ul&gt;&lt;span style=&quot;white-space: pre; font-size: 11px;&quot;&gt; &lt;span style=&quot;white-space: pre; font-size: 11px;&quot;&gt; &lt;/span&gt;&lt;/span&gt;替换节点与brick&lt;br style=&quot;font-size: 11px;&quot;&gt;&lt;span style=&quot;font-family: 微软雅黑; font-variant-numeric: normal; font-variant-east-asian: normal; line-height: 24px; widows: 1; font-size: 11px;&quot;&gt;&lt;span style=&quot;white-space: pre; font-size: 11px;&quot;&gt; &lt;span style=&quot;white-space: pre; font-size: 11px;&quot;&gt; &lt;/span&gt;&lt;/span&gt;配置raid&lt;br style=&quot;font-size: 11px;&quot;&gt;&lt;/span&gt;&lt;span style=&quot;white-space: pre; font-size: 11px;&quot;&gt; &lt;span style=&quot;white-space: pre; font-size: 11px;&quot;&gt; &lt;/span&gt;&lt;/span&gt;一键安装辅助工具&lt;br style=&quot;font-size: 11px;&quot;&gt;&lt;br style=&quot;font-size: 11px;&quot;&gt;&lt;ul style=&quot;font-size: 11px;&quot;&gt;&lt;li style=&quot;font-size: 11px;&quot;&gt;&lt;font style=&quot;font-size: 11px;&quot;&gt;故障分析与恢复&lt;/font&gt;&lt;/li&gt;&lt;li style=&quot;font-size: 11px;&quot;&gt;&lt;font style=&quot;font-size: 11px;&quot;&gt;自动操作&lt;/font&gt;&lt;/li&gt;&lt;/ul&gt;&lt;/font&gt;" style="rounded=0;whiteSpace=wrap;html=1;fontSize=11;fillColor=#d5e8d4;strokeColor=#82b366;align=left;verticalAlign=top;spacing=2;" parent="1" vertex="1">
          <mxGeometry x="113.85" y="885" width="236.15" height="340" as="geometry" />
        </mxCell>
        <mxCell id="tR1yyYKcrdSd5KUUS996-12" value="&lt;div style=&quot;text-align: center; font-size: 13px;&quot;&gt;&lt;span style=&quot;background-color: initial; font-size: 13px;&quot;&gt;TaoAIOps v1.1&lt;/span&gt;&lt;/div&gt;&lt;div style=&quot;text-align: center; font-size: 13px;&quot;&gt;&lt;span style=&quot;background-color: initial; font-size: 13px;&quot;&gt;(日志采集大数据平台ELK)&lt;/span&gt;&lt;/div&gt;&lt;div style=&quot;font-size: 13px;&quot;&gt;&lt;ul style=&quot;font-size: 13px;&quot;&gt;&lt;li style=&quot;font-size: 13px;&quot;&gt;&lt;span style=&quot;background-color: initial; font-size: 13px;&quot;&gt;日志标准化&lt;/span&gt;&lt;/li&gt;&lt;li style=&quot;font-size: 13px;&quot;&gt;&lt;span style=&quot;background-color: initial; font-size: 13px;&quot;&gt;日志集中收集&lt;/span&gt;&lt;/li&gt;&lt;li style=&quot;font-size: 13px;&quot;&gt;&lt;span style=&quot;background-color: initial; font-size: 13px;&quot;&gt;TaoAIOps平台前后端开发&lt;/span&gt;&lt;/li&gt;&lt;li style=&quot;font-size: 13px;&quot;&gt;&lt;span style=&quot;background-color: initial; font-size: 13px;&quot;&gt;taocli的系统集成&amp;nbsp;&lt;/span&gt;&lt;/li&gt;&lt;li style=&quot;font-size: 13px;&quot;&gt;&lt;span style=&quot;background-color: initial; font-size: 13px;&quot;&gt;日志搜索与分析&lt;/span&gt;&lt;/li&gt;&lt;/ul&gt;&lt;/div&gt;&lt;div style=&quot;font-size: 13px;&quot;&gt;&lt;ul style=&quot;font-size: 13px;&quot;&gt;&lt;li style=&quot;font-size: 13px;&quot;&gt;&lt;span style=&quot;background-color: initial; font-size: 13px;&quot;&gt;自定义日志分析面板&lt;/span&gt;&lt;/li&gt;&lt;/ul&gt;&lt;/div&gt;" style="rounded=0;whiteSpace=wrap;html=1;fontSize=13;fillColor=#d5e8d4;strokeColor=#82b366;align=left;verticalAlign=top;" parent="1" vertex="1">
          <mxGeometry x="402.62" y="825" width="197.38" height="200" as="geometry" />
        </mxCell>
        <mxCell id="tR1yyYKcrdSd5KUUS996-13" value="" style="triangle;whiteSpace=wrap;html=1;fontSize=22;rotation=-90;fillColor=#dae8fc;strokeColor=#6c8ebf;" parent="1" vertex="1">
          <mxGeometry x="590" y="1245" width="20" height="30" as="geometry" />
        </mxCell>
        <mxCell id="tR1yyYKcrdSd5KUUS996-14" value="2023Q2" style="text;html=1;align=center;verticalAlign=middle;resizable=0;points=[];autosize=1;strokeColor=none;fillColor=none;fontSize=22;" parent="1" vertex="1">
          <mxGeometry x="550" y="1275" width="100" height="40" as="geometry" />
        </mxCell>
        <mxCell id="tR1yyYKcrdSd5KUUS996-15" value="&lt;div style=&quot;text-align: center;&quot;&gt;&lt;span style=&quot;background-color: initial;&quot;&gt;TaoAIOps v1.2&lt;/span&gt;&lt;/div&gt;&lt;div style=&quot;text-align: center;&quot;&gt;&lt;span style=&quot;background-color: initial;&quot;&gt;(Prom监控告警)&lt;/span&gt;&lt;/div&gt;&lt;ul&gt;&lt;li&gt;关键指标监控&lt;/li&gt;&lt;/ul&gt;&lt;ul&gt;&lt;li&gt;告警管理&lt;/li&gt;&lt;/ul&gt;&lt;span style=&quot;white-space: pre;&quot;&gt; &lt;/span&gt;&lt;span style=&quot;white-space: pre;&quot;&gt; &lt;/span&gt;告警规则管理&lt;br&gt;&lt;span style=&quot;white-space: pre;&quot;&gt; &lt;/span&gt;&lt;span style=&quot;white-space: pre;&quot;&gt; &lt;/span&gt;告警记录管理" style="rounded=0;whiteSpace=wrap;html=1;fontSize=14;fillColor=#d5e8d4;strokeColor=#82b366;align=left;verticalAlign=top;" parent="1" vertex="1">
          <mxGeometry x="660" y="790" width="180" height="180" as="geometry" />
        </mxCell>
        <mxCell id="tR1yyYKcrdSd5KUUS996-16" value="" style="triangle;whiteSpace=wrap;html=1;fontSize=22;rotation=-90;fillColor=#dae8fc;strokeColor=#6c8ebf;" parent="1" vertex="1">
          <mxGeometry x="830" y="1245" width="20" height="30" as="geometry" />
        </mxCell>
        <mxCell id="tR1yyYKcrdSd5KUUS996-17" value="2023Q3" style="text;html=1;align=center;verticalAlign=middle;resizable=0;points=[];autosize=1;strokeColor=none;fillColor=none;fontSize=22;" parent="1" vertex="1">
          <mxGeometry x="790" y="1275" width="100" height="40" as="geometry" />
        </mxCell>
        <mxCell id="tR1yyYKcrdSd5KUUS996-18" value="" style="triangle;whiteSpace=wrap;html=1;fontSize=22;rotation=-90;fillColor=#dae8fc;strokeColor=#6c8ebf;" parent="1" vertex="1">
          <mxGeometry x="1070" y="1245" width="20" height="30" as="geometry" />
        </mxCell>
        <mxCell id="tR1yyYKcrdSd5KUUS996-19" value="2023Q4" style="text;html=1;align=center;verticalAlign=middle;resizable=0;points=[];autosize=1;strokeColor=none;fillColor=none;fontSize=22;" parent="1" vertex="1">
          <mxGeometry x="1030" y="1275" width="100" height="40" as="geometry" />
        </mxCell>
        <mxCell id="tR1yyYKcrdSd5KUUS996-20" value="TaoAIOps v2.0&lt;br style=&quot;font-size: 14px;&quot;&gt;(智能运维决策算法)&lt;br style=&quot;font-size: 14px;&quot;&gt;&lt;ul&gt;&lt;li&gt;智能容量预测&lt;/li&gt;&lt;li&gt;智能异常检测&lt;/li&gt;&lt;li&gt;智能故障诊断&lt;/li&gt;&lt;li&gt;故障自愈&lt;/li&gt;&lt;/ul&gt;" style="rounded=0;whiteSpace=wrap;html=1;fontSize=14;fillColor=#d5e8d4;strokeColor=#82b366;verticalAlign=top;" parent="1" vertex="1">
          <mxGeometry x="900" y="730" width="175" height="150" as="geometry" />
        </mxCell>
        <mxCell id="tR1yyYKcrdSd5KUUS996-23" value="taocli设计" style="text;html=1;align=center;verticalAlign=middle;resizable=0;points=[];autosize=1;strokeColor=none;fillColor=none;fontSize=20;" parent="1" vertex="1">
          <mxGeometry x="10" y="1390" width="110" height="40" as="geometry" />
        </mxCell>
        <mxCell id="tR1yyYKcrdSd5KUUS996-24" value="XDFS" style="rounded=0;whiteSpace=wrap;html=1;fontSize=20;" parent="1" vertex="1">
          <mxGeometry x="1245" y="1350" width="300" height="200" as="geometry" />
        </mxCell>
        <mxCell id="tR1yyYKcrdSd5KUUS996-26" value="taocli" style="rounded=0;whiteSpace=wrap;html=1;fontSize=20;" parent="1" vertex="1">
          <mxGeometry x="1245" y="1350" width="60" height="30" as="geometry" />
        </mxCell>
        <mxCell id="tR1yyYKcrdSd5KUUS996-28" value="&amp;nbsp; &amp;nbsp; &amp;nbsp; &amp;nbsp; &amp;nbsp; &amp;nbsp; &amp;nbsp; &amp;nbsp; &amp;nbsp; &amp;nbsp; &amp;nbsp; &amp;nbsp; &amp;nbsp; &amp;nbsp; &amp;nbsp; &amp;nbsp; &amp;nbsp; &amp;nbsp; &amp;nbsp; &amp;nbsp; &amp;nbsp; &amp;nbsp; &amp;nbsp; &amp;nbsp;taocli&amp;nbsp; xdfs&amp;nbsp; &amp;nbsp;check-conf&amp;nbsp; &amp;nbsp; &amp;nbsp; &amp;nbsp; &amp;nbsp; &amp;nbsp; -c&amp;nbsp; &amp;nbsp; &amp;nbsp; &amp;nbsp; keepalived.conf&lt;br&gt;&amp;nbsp; &amp;nbsp; &amp;nbsp; &amp;nbsp; &amp;nbsp; &amp;nbsp; &amp;nbsp; &amp;nbsp; &amp;nbsp; &amp;nbsp; &amp;nbsp; &amp;nbsp; &amp;nbsp; &amp;nbsp; &amp;nbsp; taocli&amp;nbsp; fass&amp;nbsp; &amp;nbsp;check-process&amp;nbsp; &amp;nbsp; --name&amp;nbsp; redis&lt;br&gt;&amp;nbsp; &amp;nbsp; &amp;nbsp; &amp;nbsp; &amp;nbsp; &amp;nbsp; &amp;nbsp; &amp;nbsp; &amp;nbsp; &amp;nbsp; &amp;nbsp; &amp;nbsp; &amp;nbsp; &amp;nbsp; &amp;nbsp;taocli&amp;nbsp; system&amp;nbsp; check-disk&amp;nbsp; &amp;nbsp; &amp;nbsp; &amp;nbsp;--name&amp;nbsp; &amp;nbsp;sdb" style="text;html=1;align=center;verticalAlign=middle;resizable=0;points=[];autosize=1;strokeColor=none;fillColor=none;fontSize=20;" parent="1" vertex="1">
          <mxGeometry x="-250" y="1435" width="760" height="90" as="geometry" />
        </mxCell>
        <mxCell id="tR1yyYKcrdSd5KUUS996-31" value="" style="endArrow=classic;html=1;rounded=0;fontSize=12;" parent="1" edge="1">
          <mxGeometry width="50" height="50" relative="1" as="geometry">
            <mxPoint x="44.81999999999999" y="1615" as="sourcePoint" />
            <mxPoint x="44.81999999999999" y="1585" as="targetPoint" />
          </mxGeometry>
        </mxCell>
        <mxCell id="tR1yyYKcrdSd5KUUS996-32" value="主命令" style="text;html=1;align=center;verticalAlign=middle;resizable=0;points=[];autosize=1;strokeColor=none;fillColor=none;fontSize=12;" parent="1" vertex="1">
          <mxGeometry x="4.819999999999993" y="1620" width="60" height="30" as="geometry" />
        </mxCell>
        <mxCell id="tR1yyYKcrdSd5KUUS996-33" value="" style="endArrow=classic;html=1;rounded=0;fontSize=12;" parent="1" edge="1">
          <mxGeometry width="50" height="50" relative="1" as="geometry">
            <mxPoint x="114.82" y="1615" as="sourcePoint" />
            <mxPoint x="114.82" y="1585" as="targetPoint" />
          </mxGeometry>
        </mxCell>
        <mxCell id="tR1yyYKcrdSd5KUUS996-34" value="命令组" style="text;html=1;align=center;verticalAlign=middle;resizable=0;points=[];autosize=1;strokeColor=none;fillColor=none;fontSize=12;" parent="1" vertex="1">
          <mxGeometry x="84.82" y="1620" width="60" height="30" as="geometry" />
        </mxCell>
        <mxCell id="tR1yyYKcrdSd5KUUS996-35" value="" style="endArrow=classic;html=1;rounded=0;fontSize=12;" parent="1" edge="1">
          <mxGeometry width="50" height="50" relative="1" as="geometry">
            <mxPoint x="204.82" y="1615" as="sourcePoint" />
            <mxPoint x="204.82" y="1585" as="targetPoint" />
          </mxGeometry>
        </mxCell>
        <mxCell id="tR1yyYKcrdSd5KUUS996-36" value="子命令" style="text;html=1;align=center;verticalAlign=middle;resizable=0;points=[];autosize=1;strokeColor=none;fillColor=none;fontSize=12;" parent="1" vertex="1">
          <mxGeometry x="174.82" y="1620" width="60" height="30" as="geometry" />
        </mxCell>
        <mxCell id="tR1yyYKcrdSd5KUUS996-39" value="ES-cluster" style="rounded=0;whiteSpace=wrap;html=1;fontSize=20;" parent="1" vertex="1">
          <mxGeometry x="1445" y="1350" width="100" height="30" as="geometry" />
        </mxCell>
        <mxCell id="tR1yyYKcrdSd5KUUS996-40" value="broker" style="shape=cylinder3;whiteSpace=wrap;html=1;boundedLbl=1;backgroundOutline=1;size=15;fontSize=12;" parent="1" vertex="1">
          <mxGeometry x="1495" y="1500" width="50" height="50" as="geometry" />
        </mxCell>
        <mxCell id="tR1yyYKcrdSd5KUUS996-41" value="" style="rounded=0;whiteSpace=wrap;html=1;fontSize=12;" parent="1" vertex="1">
          <mxGeometry x="1325" y="1500" width="110" height="45" as="geometry" />
        </mxCell>
        <mxCell id="tR1yyYKcrdSd5KUUS996-42" value="input plugin" style="rounded=0;whiteSpace=wrap;html=1;fontSize=12;" parent="1" vertex="1">
          <mxGeometry x="1335" y="1515" width="40" height="30" as="geometry" />
        </mxCell>
        <mxCell id="tR1yyYKcrdSd5KUUS996-43" value="output plugin" style="rounded=0;whiteSpace=wrap;html=1;fontSize=12;" parent="1" vertex="1">
          <mxGeometry x="1385" y="1515" width="40" height="30" as="geometry" />
        </mxCell>
        <mxCell id="tR1yyYKcrdSd5KUUS996-44" value="logs" style="shape=card;whiteSpace=wrap;html=1;fontSize=12;" parent="1" vertex="1">
          <mxGeometry x="1245" y="1497.5" width="40" height="52.5" as="geometry" />
        </mxCell>
        <mxCell id="tR1yyYKcrdSd5KUUS996-46" value="logstash-shipper" style="text;html=1;align=center;verticalAlign=middle;resizable=0;points=[];autosize=1;strokeColor=none;fillColor=none;fontSize=8;" parent="1" vertex="1">
          <mxGeometry x="1325" y="1490" width="110" height="30" as="geometry" />
        </mxCell>
        <mxCell id="tR1yyYKcrdSd5KUUS996-47" value="save" style="rounded=0;whiteSpace=wrap;html=1;fontSize=8;rotation=-90;" parent="1" vertex="1">
          <mxGeometry x="1495" y="1440" width="50" height="20" as="geometry" />
        </mxCell>
        <mxCell id="tR1yyYKcrdSd5KUUS996-48" value="" style="endArrow=classic;html=1;rounded=0;fontSize=8;exitX=1;exitY=0.5;exitDx=0;exitDy=0;exitPerimeter=0;entryX=0;entryY=0.5;entryDx=0;entryDy=0;" parent="1" source="tR1yyYKcrdSd5KUUS996-44" target="tR1yyYKcrdSd5KUUS996-41" edge="1">
          <mxGeometry width="50" height="50" relative="1" as="geometry">
            <mxPoint x="1445" y="1470" as="sourcePoint" />
            <mxPoint x="1495" y="1420" as="targetPoint" />
          </mxGeometry>
        </mxCell>
        <mxCell id="tR1yyYKcrdSd5KUUS996-49" value="" style="endArrow=classic;html=1;rounded=0;fontSize=8;exitX=1.002;exitY=0.591;exitDx=0;exitDy=0;exitPerimeter=0;" parent="1" source="tR1yyYKcrdSd5KUUS996-41" edge="1">
          <mxGeometry width="50" height="50" relative="1" as="geometry">
            <mxPoint x="1435" y="1470" as="sourcePoint" />
            <mxPoint x="1495" y="1527" as="targetPoint" />
          </mxGeometry>
        </mxCell>
        <mxCell id="tR1yyYKcrdSd5KUUS996-50" value="" style="endArrow=classic;html=1;rounded=0;fontSize=8;exitX=0.5;exitY=0;exitDx=0;exitDy=0;exitPerimeter=0;entryX=0;entryY=0.5;entryDx=0;entryDy=0;" parent="1" source="tR1yyYKcrdSd5KUUS996-40" target="tR1yyYKcrdSd5KUUS996-47" edge="1">
          <mxGeometry width="50" height="50" relative="1" as="geometry">
            <mxPoint x="1435" y="1470" as="sourcePoint" />
            <mxPoint x="1485" y="1420" as="targetPoint" />
          </mxGeometry>
        </mxCell>
        <mxCell id="tR1yyYKcrdSd5KUUS996-51" value="" style="endArrow=classic;html=1;rounded=0;fontSize=8;exitX=1;exitY=0.5;exitDx=0;exitDy=0;" parent="1" source="tR1yyYKcrdSd5KUUS996-47" edge="1">
          <mxGeometry width="50" height="50" relative="1" as="geometry">
            <mxPoint x="1435" y="1470" as="sourcePoint" />
            <mxPoint x="1520" y="1380" as="targetPoint" />
          </mxGeometry>
        </mxCell>
        <mxCell id="tR1yyYKcrdSd5KUUS996-52" value="FASS" style="rounded=0;whiteSpace=wrap;html=1;fontSize=20;" parent="1" vertex="1">
          <mxGeometry x="1245" y="1600" width="300" height="200" as="geometry" />
        </mxCell>
        <mxCell id="tR1yyYKcrdSd5KUUS996-53" value="taocli" style="rounded=0;whiteSpace=wrap;html=1;fontSize=20;" parent="1" vertex="1">
          <mxGeometry x="1245" y="1600" width="60" height="30" as="geometry" />
        </mxCell>
        <mxCell id="tR1yyYKcrdSd5KUUS996-54" value="ES-cluster" style="rounded=0;whiteSpace=wrap;html=1;fontSize=20;" parent="1" vertex="1">
          <mxGeometry x="1445" y="1600" width="100" height="30" as="geometry" />
        </mxCell>
        <mxCell id="tR1yyYKcrdSd5KUUS996-55" value="broker" style="shape=cylinder3;whiteSpace=wrap;html=1;boundedLbl=1;backgroundOutline=1;size=15;fontSize=12;" parent="1" vertex="1">
          <mxGeometry x="1495" y="1750" width="50" height="50" as="geometry" />
        </mxCell>
        <mxCell id="tR1yyYKcrdSd5KUUS996-56" value="" style="rounded=0;whiteSpace=wrap;html=1;fontSize=12;" parent="1" vertex="1">
          <mxGeometry x="1325" y="1750" width="110" height="45" as="geometry" />
        </mxCell>
        <mxCell id="tR1yyYKcrdSd5KUUS996-57" value="input plugin" style="rounded=0;whiteSpace=wrap;html=1;fontSize=12;" parent="1" vertex="1">
          <mxGeometry x="1335" y="1765" width="40" height="30" as="geometry" />
        </mxCell>
        <mxCell id="tR1yyYKcrdSd5KUUS996-58" value="output plugin" style="rounded=0;whiteSpace=wrap;html=1;fontSize=12;" parent="1" vertex="1">
          <mxGeometry x="1385" y="1765" width="40" height="30" as="geometry" />
        </mxCell>
        <mxCell id="tR1yyYKcrdSd5KUUS996-59" value="logs" style="shape=card;whiteSpace=wrap;html=1;fontSize=12;" parent="1" vertex="1">
          <mxGeometry x="1245" y="1747.5" width="40" height="52.5" as="geometry" />
        </mxCell>
        <mxCell id="tR1yyYKcrdSd5KUUS996-60" value="logstash-shipper" style="text;html=1;align=center;verticalAlign=middle;resizable=0;points=[];autosize=1;strokeColor=none;fillColor=none;fontSize=8;" parent="1" vertex="1">
          <mxGeometry x="1325" y="1740" width="110" height="30" as="geometry" />
        </mxCell>
        <mxCell id="tR1yyYKcrdSd5KUUS996-61" value="save" style="rounded=0;whiteSpace=wrap;html=1;fontSize=8;rotation=-90;" parent="1" vertex="1">
          <mxGeometry x="1495" y="1690" width="50" height="20" as="geometry" />
        </mxCell>
        <mxCell id="tR1yyYKcrdSd5KUUS996-62" value="" style="endArrow=classic;html=1;rounded=0;fontSize=8;exitX=1;exitY=0.5;exitDx=0;exitDy=0;exitPerimeter=0;entryX=0;entryY=0.5;entryDx=0;entryDy=0;" parent="1" source="tR1yyYKcrdSd5KUUS996-59" target="tR1yyYKcrdSd5KUUS996-56" edge="1">
          <mxGeometry width="50" height="50" relative="1" as="geometry">
            <mxPoint x="1445" y="1720" as="sourcePoint" />
            <mxPoint x="1495" y="1670" as="targetPoint" />
          </mxGeometry>
        </mxCell>
        <mxCell id="tR1yyYKcrdSd5KUUS996-63" value="" style="endArrow=classic;html=1;rounded=0;fontSize=8;exitX=1.002;exitY=0.591;exitDx=0;exitDy=0;exitPerimeter=0;" parent="1" source="tR1yyYKcrdSd5KUUS996-56" edge="1">
          <mxGeometry width="50" height="50" relative="1" as="geometry">
            <mxPoint x="1435" y="1720" as="sourcePoint" />
            <mxPoint x="1495" y="1777" as="targetPoint" />
          </mxGeometry>
        </mxCell>
        <mxCell id="tR1yyYKcrdSd5KUUS996-64" value="" style="endArrow=classic;html=1;rounded=0;fontSize=8;exitX=0.5;exitY=0;exitDx=0;exitDy=0;exitPerimeter=0;entryX=0;entryY=0.5;entryDx=0;entryDy=0;" parent="1" source="tR1yyYKcrdSd5KUUS996-55" target="tR1yyYKcrdSd5KUUS996-61" edge="1">
          <mxGeometry width="50" height="50" relative="1" as="geometry">
            <mxPoint x="1435" y="1720" as="sourcePoint" />
            <mxPoint x="1485" y="1670" as="targetPoint" />
          </mxGeometry>
        </mxCell>
        <mxCell id="tR1yyYKcrdSd5KUUS996-65" value="" style="endArrow=classic;html=1;rounded=0;fontSize=8;exitX=1;exitY=0.5;exitDx=0;exitDy=0;" parent="1" source="tR1yyYKcrdSd5KUUS996-61" edge="1">
          <mxGeometry width="50" height="50" relative="1" as="geometry">
            <mxPoint x="1435" y="1720" as="sourcePoint" />
            <mxPoint x="1520" y="1630" as="targetPoint" />
          </mxGeometry>
        </mxCell>
        <mxCell id="tR1yyYKcrdSd5KUUS996-66" value="" style="endArrow=classic;html=1;rounded=0;fontSize=8;" parent="1" edge="1">
          <mxGeometry width="50" height="50" relative="1" as="geometry">
            <mxPoint x="304.82" y="1615" as="sourcePoint" />
            <mxPoint x="304.82" y="1585" as="targetPoint" />
          </mxGeometry>
        </mxCell>
        <mxCell id="tR1yyYKcrdSd5KUUS996-67" value="选项" style="text;html=1;align=center;verticalAlign=middle;resizable=0;points=[];autosize=1;strokeColor=none;fillColor=none;fontSize=8;" parent="1" vertex="1">
          <mxGeometry x="279.64" y="1620" width="50" height="30" as="geometry" />
        </mxCell>
        <mxCell id="tR1yyYKcrdSd5KUUS996-69" value="" style="endArrow=classic;html=1;rounded=0;fontSize=8;" parent="1" edge="1">
          <mxGeometry width="50" height="50" relative="1" as="geometry">
            <mxPoint x="380" y="1615" as="sourcePoint" />
            <mxPoint x="380" y="1585" as="targetPoint" />
          </mxGeometry>
        </mxCell>
        <mxCell id="tR1yyYKcrdSd5KUUS996-70" value="&amp;nbsp;参数" style="text;html=1;align=center;verticalAlign=middle;resizable=0;points=[];autosize=1;strokeColor=none;fillColor=none;fontSize=8;" parent="1" vertex="1">
          <mxGeometry x="354.82" y="1620" width="50" height="30" as="geometry" />
        </mxCell>
        <mxCell id="tR1yyYKcrdSd5KUUS996-71" value="TaoCli&lt;br&gt;&amp;gt;_" style="ellipse;whiteSpace=wrap;html=1;aspect=fixed;fontSize=22;fillColor=#d5e8d4;strokeColor=#82b366;gradientColor=#97d077;" parent="1" vertex="1">
          <mxGeometry x="140" y="1370" width="80" height="80" as="geometry" />
        </mxCell>
        <mxCell id="tR1yyYKcrdSd5KUUS996-72" value="TaoAIOps平台设计思路" style="text;html=1;align=center;verticalAlign=middle;resizable=0;points=[];autosize=1;strokeColor=none;fillColor=none;fontSize=22;" parent="1" vertex="1">
          <mxGeometry y="1760" width="250" height="40" as="geometry" />
        </mxCell>
        <mxCell id="tR1yyYKcrdSd5KUUS996-73" value="TaoAIOps" style="rounded=0;whiteSpace=wrap;html=1;fontSize=22;" parent="1" vertex="1">
          <mxGeometry y="1950" width="100" height="40" as="geometry" />
        </mxCell>
        <mxCell id="tR1yyYKcrdSd5KUUS996-74" value="配置管理" style="rounded=0;whiteSpace=wrap;html=1;fontSize=22;" parent="1" vertex="1">
          <mxGeometry x="124.49" y="1860" width="100" height="40" as="geometry" />
        </mxCell>
        <mxCell id="tR1yyYKcrdSd5KUUS996-75" value="作业管理" style="rounded=0;whiteSpace=wrap;html=1;fontSize=22;" parent="1" vertex="1">
          <mxGeometry x="124.49" y="2450" width="100" height="50" as="geometry" />
        </mxCell>
        <mxCell id="tR1yyYKcrdSd5KUUS996-76" value="产品" style="rounded=0;whiteSpace=wrap;html=1;fontSize=22;" parent="1" vertex="1">
          <mxGeometry x="290" y="1810" width="60" height="30" as="geometry" />
        </mxCell>
        <mxCell id="tR1yyYKcrdSd5KUUS996-77" value="" style="endArrow=classic;html=1;rounded=0;fontSize=22;entryX=0;entryY=0.5;entryDx=0;entryDy=0;exitX=1;exitY=0.5;exitDx=0;exitDy=0;" parent="1" source="tR1yyYKcrdSd5KUUS996-74" target="tR1yyYKcrdSd5KUUS996-76" edge="1">
          <mxGeometry width="50" height="50" relative="1" as="geometry">
            <mxPoint x="260" y="2080" as="sourcePoint" />
            <mxPoint x="310" y="2030" as="targetPoint" />
          </mxGeometry>
        </mxCell>
        <mxCell id="tR1yyYKcrdSd5KUUS996-78" value="运维对象" style="text;html=1;align=center;verticalAlign=middle;resizable=0;points=[];autosize=1;strokeColor=none;fillColor=none;fontSize=22;" parent="1" vertex="1">
          <mxGeometry x="745" y="2030" width="110" height="40" as="geometry" />
        </mxCell>
        <mxCell id="tR1yyYKcrdSd5KUUS996-79" value="主机" style="rounded=0;whiteSpace=wrap;html=1;fontSize=22;" parent="1" vertex="1">
          <mxGeometry x="290" y="1860" width="60" height="30" as="geometry" />
        </mxCell>
        <mxCell id="tR1yyYKcrdSd5KUUS996-81" value="xdfs/fass" style="text;html=1;align=center;verticalAlign=middle;resizable=0;points=[];autosize=1;strokeColor=none;fillColor=none;fontSize=22;" parent="1" vertex="1">
          <mxGeometry x="357.14" y="1805" width="110" height="40" as="geometry" />
        </mxCell>
        <mxCell id="tR1yyYKcrdSd5KUUS996-82" value="服务" style="rounded=0;whiteSpace=wrap;html=1;fontSize=22;" parent="1" vertex="1">
          <mxGeometry x="290" y="1920" width="60" height="30" as="geometry" />
        </mxCell>
        <mxCell id="tR1yyYKcrdSd5KUUS996-83" value="安装目录" style="rounded=0;whiteSpace=wrap;html=1;fontSize=22;" parent="1" vertex="1">
          <mxGeometry x="290" y="1970" width="100" height="30" as="geometry" />
        </mxCell>
        <mxCell id="tR1yyYKcrdSd5KUUS996-84" value="配置文件" style="rounded=0;whiteSpace=wrap;html=1;fontSize=22;" parent="1" vertex="1">
          <mxGeometry x="290" y="2020" width="100" height="30" as="geometry" />
        </mxCell>
        <mxCell id="tR1yyYKcrdSd5KUUS996-85" value="作业&lt;br&gt;（一系列运维操作：命令+文件分发的组合）" style="rounded=0;whiteSpace=wrap;html=1;fontSize=22;" parent="1" vertex="1">
          <mxGeometry x="234.82" y="2430" width="250.36" height="80" as="geometry" />
        </mxCell>
        <mxCell id="tR1yyYKcrdSd5KUUS996-87" value="命令" style="rounded=0;whiteSpace=wrap;html=1;fontSize=22;" parent="1" vertex="1">
          <mxGeometry x="530" y="2370" width="90" height="40" as="geometry" />
        </mxCell>
        <mxCell id="tR1yyYKcrdSd5KUUS996-88" value="文件分发" style="rounded=0;whiteSpace=wrap;html=1;fontSize=22;" parent="1" vertex="1">
          <mxGeometry x="530" y="2450" width="90" height="40" as="geometry" />
        </mxCell>
        <mxCell id="tR1yyYKcrdSd5KUUS996-89" value="" style="endArrow=classic;html=1;rounded=0;fontSize=22;entryX=0;entryY=0.5;entryDx=0;entryDy=0;exitX=1;exitY=0.5;exitDx=0;exitDy=0;" parent="1" source="tR1yyYKcrdSd5KUUS996-85" target="tR1yyYKcrdSd5KUUS996-87" edge="1">
          <mxGeometry width="50" height="50" relative="1" as="geometry">
            <mxPoint x="750" y="2530" as="sourcePoint" />
            <mxPoint x="800" y="2480" as="targetPoint" />
          </mxGeometry>
        </mxCell>
        <mxCell id="tR1yyYKcrdSd5KUUS996-90" value="" style="endArrow=classic;html=1;rounded=0;fontSize=22;exitX=1;exitY=0.5;exitDx=0;exitDy=0;entryX=0;entryY=0.5;entryDx=0;entryDy=0;" parent="1" source="tR1yyYKcrdSd5KUUS996-85" target="tR1yyYKcrdSd5KUUS996-88" edge="1">
          <mxGeometry width="50" height="50" relative="1" as="geometry">
            <mxPoint x="750" y="2530" as="sourcePoint" />
            <mxPoint x="800" y="2480" as="targetPoint" />
          </mxGeometry>
        </mxCell>
        <mxCell id="tR1yyYKcrdSd5KUUS996-91" value="执行对象" style="rounded=0;whiteSpace=wrap;html=1;fontSize=22;" parent="1" vertex="1">
          <mxGeometry x="527.14" y="2530" width="90" height="40" as="geometry" />
        </mxCell>
        <mxCell id="tR1yyYKcrdSd5KUUS996-92" value="" style="endArrow=classic;html=1;rounded=0;fontSize=22;entryX=0;entryY=0.5;entryDx=0;entryDy=0;" parent="1" target="tR1yyYKcrdSd5KUUS996-91" edge="1">
          <mxGeometry width="50" height="50" relative="1" as="geometry">
            <mxPoint x="490" y="2470" as="sourcePoint" />
            <mxPoint x="800" y="2460" as="targetPoint" />
          </mxGeometry>
        </mxCell>
        <mxCell id="tR1yyYKcrdSd5KUUS996-93" value="node01" style="text;html=1;align=center;verticalAlign=middle;resizable=0;points=[];autosize=1;strokeColor=none;fillColor=none;fontSize=22;" parent="1" vertex="1">
          <mxGeometry x="620" y="2530" width="100" height="40" as="geometry" />
        </mxCell>
        <mxCell id="tR1yyYKcrdSd5KUUS996-94" value="命令" style="rounded=0;whiteSpace=wrap;html=1;fontSize=22;" parent="1" vertex="1">
          <mxGeometry x="290" y="2070" width="90" height="40" as="geometry" />
        </mxCell>
        <mxCell id="tR1yyYKcrdSd5KUUS996-95" value="taocli platform check-redis" style="text;html=1;align=center;verticalAlign=middle;resizable=0;points=[];autosize=1;strokeColor=none;fillColor=none;fontSize=22;" parent="1" vertex="1">
          <mxGeometry x="382.14" y="2070" width="280" height="40" as="geometry" />
        </mxCell>
        <mxCell id="tR1yyYKcrdSd5KUUS996-96" value="作业模板" style="rounded=0;whiteSpace=wrap;html=1;fontSize=22;" parent="1" vertex="1">
          <mxGeometry x="290" y="2140" width="90" height="40" as="geometry" />
        </mxCell>
        <mxCell id="tR1yyYKcrdSd5KUUS996-97" value="作业执行方案" style="rounded=0;whiteSpace=wrap;html=1;fontSize=22;" parent="1" vertex="1">
          <mxGeometry x="290" y="2210" width="150" height="40" as="geometry" />
        </mxCell>
        <mxCell id="tR1yyYKcrdSd5KUUS996-98" value="作业执行日志" style="rounded=0;whiteSpace=wrap;html=1;fontSize=22;" parent="1" vertex="1">
          <mxGeometry x="290" y="2280" width="150" height="40" as="geometry" />
        </mxCell>
        <mxCell id="tR1yyYKcrdSd5KUUS996-99" value="node01: redis is running" style="text;html=1;align=center;verticalAlign=middle;resizable=0;points=[];autosize=1;strokeColor=none;fillColor=none;fontSize=22;" parent="1" vertex="1">
          <mxGeometry x="440" y="2280" width="260" height="40" as="geometry" />
        </mxCell>
        <mxCell id="tR1yyYKcrdSd5KUUS996-100" value="step1, step2, step3" style="text;html=1;align=center;verticalAlign=middle;resizable=0;points=[];autosize=1;strokeColor=none;fillColor=none;fontSize=22;" parent="1" vertex="1">
          <mxGeometry x="400" y="2140" width="210" height="40" as="geometry" />
        </mxCell>
        <mxCell id="tR1yyYKcrdSd5KUUS996-101" value="step1, step2" style="text;html=1;align=center;verticalAlign=middle;resizable=0;points=[];autosize=1;strokeColor=none;fillColor=none;fontSize=22;" parent="1" vertex="1">
          <mxGeometry x="470" y="2210" width="140" height="40" as="geometry" />
        </mxCell>
        <mxCell id="xAq-xUPHlGYa8N6A7qbS-1" value="自动巡检" style="rounded=1;whiteSpace=wrap;html=1;fillColor=#d5e8d4;strokeColor=#82b366;" parent="1" vertex="1">
          <mxGeometry x="104.49000000000001" y="3000" width="120" height="60" as="geometry" />
        </mxCell>
        <mxCell id="xAq-xUPHlGYa8N6A7qbS-2" value="V1.0，1.1，1.2功能模块" style="text;html=1;align=center;verticalAlign=middle;resizable=0;points=[];autosize=1;strokeColor=none;fillColor=none;fontSize=21;" parent="1" vertex="1">
          <mxGeometry x="-20.18" y="2700" width="250" height="40" as="geometry" />
        </mxCell>
        <mxCell id="xAq-xUPHlGYa8N6A7qbS-3" value="作业平台（参考蓝鲸）" style="rounded=1;whiteSpace=wrap;html=1;" parent="1" vertex="1">
          <mxGeometry x="109.82" y="3960" width="120" height="60" as="geometry" />
        </mxCell>
        <mxCell id="xAq-xUPHlGYa8N6A7qbS-4" value="性能检测node-exporter" style="rounded=1;whiteSpace=wrap;html=1;fontSize=15;fillColor=#d5e8d4;strokeColor=#82b366;" parent="1" vertex="1">
          <mxGeometry x="340" y="3060" width="110" height="40" as="geometry" />
        </mxCell>
        <mxCell id="xAq-xUPHlGYa8N6A7qbS-5" value="CPU使用率" style="rounded=1;whiteSpace=wrap;html=1;fontSize=15;fillColor=#d5e8d4;strokeColor=#82b366;" parent="1" vertex="1">
          <mxGeometry x="480" y="2970" width="200.36" height="40" as="geometry" />
        </mxCell>
        <mxCell id="xAq-xUPHlGYa8N6A7qbS-6" value="内存使用率" style="rounded=1;whiteSpace=wrap;html=1;fontSize=15;fillColor=#d5e8d4;strokeColor=#82b366;" parent="1" vertex="1">
          <mxGeometry x="480.36" y="3020" width="200.36" height="40" as="geometry" />
        </mxCell>
        <mxCell id="xAq-xUPHlGYa8N6A7qbS-7" value="每块磁盘使用率、IO" style="rounded=1;whiteSpace=wrap;html=1;fontSize=15;fillColor=#d5e8d4;strokeColor=#82b366;" parent="1" vertex="1">
          <mxGeometry x="480" y="3070" width="200.36" height="40" as="geometry" />
        </mxCell>
        <mxCell id="xAq-xUPHlGYa8N6A7qbS-8" value="系统检测" style="rounded=1;whiteSpace=wrap;html=1;fontSize=15;fillColor=#d5e8d4;strokeColor=#82b366;" parent="1" vertex="1">
          <mxGeometry x="340" y="2770" width="110" height="40" as="geometry" />
        </mxCell>
        <mxCell id="xAq-xUPHlGYa8N6A7qbS-9" value="操作系统版本检测" style="rounded=1;whiteSpace=wrap;html=1;fontSize=15;fillColor=#d5e8d4;strokeColor=#82b366;" parent="1" vertex="1">
          <mxGeometry x="479.64" y="2610" width="200.36" height="40" as="geometry" />
        </mxCell>
        <mxCell id="xAq-xUPHlGYa8N6A7qbS-10" value="网络连通检测" style="rounded=1;whiteSpace=wrap;html=1;fontSize=15;fillColor=#d5e8d4;strokeColor=#82b366;" parent="1" vertex="1">
          <mxGeometry x="479.64" y="2760" width="200.36" height="40" as="geometry" />
        </mxCell>
        <mxCell id="xAq-xUPHlGYa8N6A7qbS-11" value="网络配置检测" style="rounded=1;whiteSpace=wrap;html=1;fontSize=15;fillColor=#d5e8d4;strokeColor=#82b366;" parent="1" vertex="1">
          <mxGeometry x="479.64" y="2810" width="200.36" height="40" as="geometry" />
        </mxCell>
        <mxCell id="xAq-xUPHlGYa8N6A7qbS-12" value="网络端口开放检测" style="rounded=1;whiteSpace=wrap;html=1;fontSize=15;fillColor=#d5e8d4;strokeColor=#82b366;" parent="1" vertex="1">
          <mxGeometry x="479.64" y="2860" width="200.36" height="40" as="geometry" />
        </mxCell>
        <mxCell id="xAq-xUPHlGYa8N6A7qbS-13" value="服务检测xdfs5.5.6" style="rounded=1;whiteSpace=wrap;html=1;fontSize=15;fillColor=#d5e8d4;strokeColor=#82b366;" parent="1" vertex="1">
          <mxGeometry x="340" y="3300" width="110" height="40" as="geometry" />
        </mxCell>
        <mxCell id="xAq-xUPHlGYa8N6A7qbS-14" value="Service(xdfs-mgnt-cntr)" style="rounded=1;whiteSpace=wrap;html=1;fontSize=15;fillColor=#d5e8d4;strokeColor=#82b366;" parent="1" vertex="1">
          <mxGeometry x="480" y="3210" width="200.36" height="40" as="geometry" />
        </mxCell>
        <mxCell id="xAq-xUPHlGYa8N6A7qbS-15" value="Service(xdfs-mgnt-agent)" style="rounded=1;whiteSpace=wrap;html=1;fontSize=15;fillColor=#d5e8d4;strokeColor=#82b366;" parent="1" vertex="1">
          <mxGeometry x="480" y="3270" width="200.36" height="40" as="geometry" />
        </mxCell>
        <mxCell id="xAq-xUPHlGYa8N6A7qbS-16" value="Service(glusterd)" style="rounded=1;whiteSpace=wrap;html=1;fontSize=15;fillColor=#d5e8d4;strokeColor=#82b366;" parent="1" vertex="1">
          <mxGeometry x="480" y="3330" width="200.36" height="40" as="geometry" />
        </mxCell>
        <mxCell id="xAq-xUPHlGYa8N6A7qbS-17" value="Service(smb)" style="rounded=1;whiteSpace=wrap;html=1;fontSize=15;fillColor=#d5e8d4;strokeColor=#82b366;" parent="1" vertex="1">
          <mxGeometry x="479.82" y="3390" width="200.36" height="40" as="geometry" />
        </mxCell>
        <mxCell id="xAq-xUPHlGYa8N6A7qbS-18" value="进程资源占用top5" style="rounded=1;whiteSpace=wrap;html=1;fontSize=15;fillColor=#d5e8d4;strokeColor=#82b366;" parent="1" vertex="1">
          <mxGeometry x="479.64" y="3120" width="200.36" height="40" as="geometry" />
        </mxCell>
        <mxCell id="xAq-xUPHlGYa8N6A7qbS-19" value="系统运行时间" style="rounded=1;whiteSpace=wrap;html=1;fontSize=15;fillColor=#d5e8d4;strokeColor=#82b366;" parent="1" vertex="1">
          <mxGeometry x="479.81999999999994" y="2660" width="200.36" height="40" as="geometry" />
        </mxCell>
        <mxCell id="xAq-xUPHlGYa8N6A7qbS-22" value="日志检测xdfs5.5.6" style="rounded=1;whiteSpace=wrap;html=1;fontSize=15;fillColor=#dae8fc;strokeColor=#6c8ebf;" parent="1" vertex="1">
          <mxGeometry x="340" y="3710" width="110" height="40" as="geometry" />
        </mxCell>
        <mxCell id="xAq-xUPHlGYa8N6A7qbS-24" value="V1.1版本" style="rounded=1;whiteSpace=wrap;html=1;fontSize=15;fillColor=#dae8fc;strokeColor=#6c8ebf;" parent="1" vertex="1">
          <mxGeometry x="480.36" y="3710" width="200.36" height="40" as="geometry" />
        </mxCell>
        <mxCell id="xAq-xUPHlGYa8N6A7qbS-25" value="告警检测xdfs5.5.6" style="rounded=1;whiteSpace=wrap;html=1;fontSize=15;fillColor=#f8cecc;strokeColor=#b85450;" parent="1" vertex="1">
          <mxGeometry x="340" y="3800" width="110" height="40" as="geometry" />
        </mxCell>
        <mxCell id="xAq-xUPHlGYa8N6A7qbS-26" value="V1.2版本" style="rounded=1;whiteSpace=wrap;html=1;fontSize=15;fillColor=#f8cecc;strokeColor=#b85450;" parent="1" vertex="1">
          <mxGeometry x="480.36" y="3800" width="200.36" height="40" as="geometry" />
        </mxCell>
        <mxCell id="xAq-xUPHlGYa8N6A7qbS-27" value="CMDB" style="rounded=1;whiteSpace=wrap;html=1;fontSize=15;fillColor=#d5e8d4;strokeColor=#82b366;" parent="1" vertex="1">
          <mxGeometry x="337.14" y="3900" width="112.86" height="40" as="geometry" />
        </mxCell>
        <mxCell id="xAq-xUPHlGYa8N6A7qbS-28" value="作业管理" style="rounded=1;whiteSpace=wrap;html=1;fontSize=15;fillColor=#d5e8d4;strokeColor=#82b366;" parent="1" vertex="1">
          <mxGeometry x="340" y="4050" width="110" height="40" as="geometry" />
        </mxCell>
        <mxCell id="xAq-xUPHlGYa8N6A7qbS-29" value="配置文件查看xdfs5.5.6（基于cmdb）" style="rounded=1;whiteSpace=wrap;html=1;fontSize=15;fillColor=#d5e8d4;strokeColor=#82b366;" parent="1" vertex="1">
          <mxGeometry x="340" y="3600" width="110" height="60" as="geometry" />
        </mxCell>
        <mxCell id="xAq-xUPHlGYa8N6A7qbS-30" value="日志分析" style="rounded=1;whiteSpace=wrap;html=1;fillColor=#dae8fc;strokeColor=#6c8ebf;" parent="1" vertex="1">
          <mxGeometry x="109.82" y="4160" width="120" height="60" as="geometry" />
        </mxCell>
        <mxCell id="xAq-xUPHlGYa8N6A7qbS-31" value="监控与告警" style="rounded=1;whiteSpace=wrap;html=1;fillColor=#f8cecc;strokeColor=#b85450;" parent="1" vertex="1">
          <mxGeometry x="110" y="4350" width="120" height="60" as="geometry" />
        </mxCell>
        <mxCell id="xAq-xUPHlGYa8N6A7qbS-32" value="巡检报告" style="rounded=1;whiteSpace=wrap;html=1;fontSize=15;fillColor=#d5e8d4;strokeColor=#82b366;" parent="1" vertex="1">
          <mxGeometry x="340" y="3490" width="110" height="40" as="geometry" />
        </mxCell>
        <mxCell id="xAq-xUPHlGYa8N6A7qbS-33" value="一键安装辅助工具" style="rounded=1;whiteSpace=wrap;html=1;fontSize=15;fillColor=#d5e8d4;strokeColor=#82b366;" parent="1" vertex="1">
          <mxGeometry x="495.36" y="4020" width="180" height="40" as="geometry" />
        </mxCell>
        <mxCell id="xAq-xUPHlGYa8N6A7qbS-34" value="一键同步指定服务器时间" style="rounded=1;whiteSpace=wrap;html=1;fontSize=15;fillColor=#d5e8d4;strokeColor=#82b366;" parent="1" vertex="1">
          <mxGeometry x="495.36" y="4080" width="180" height="40" as="geometry" />
        </mxCell>
        <mxCell id="xAq-xUPHlGYa8N6A7qbS-35" value="系统登录用户检测" style="rounded=1;whiteSpace=wrap;html=1;fontSize=15;fillColor=#d5e8d4;strokeColor=#82b366;" parent="1" vertex="1">
          <mxGeometry x="480.35999999999996" y="2710" width="200.36" height="40" as="geometry" />
        </mxCell>
        <mxCell id="xAq-xUPHlGYa8N6A7qbS-36" value="&lt;span style=&quot;&quot;&gt;数据尽可能从底层拉取&lt;br&gt;保证一致性&lt;br&gt;&lt;/span&gt;" style="text;html=1;align=center;verticalAlign=middle;resizable=0;points=[];autosize=1;strokeColor=none;fillColor=none;fontSize=15;" parent="1" vertex="1">
          <mxGeometry x="305.18" y="3930" width="170" height="50" as="geometry" />
        </mxCell>
        <mxCell id="PTs0oj5LiO3yOLS5tf2K-1" value="CMDB设计原则" style="text;html=1;align=center;verticalAlign=middle;resizable=0;points=[];autosize=1;strokeColor=none;fillColor=none;fontSize=25;" parent="1" vertex="1">
          <mxGeometry y="4530" width="200" height="40" as="geometry" />
        </mxCell>
        <mxCell id="PTs0oj5LiO3yOLS5tf2K-2" value="&amp;nbsp; &amp;nbsp; &amp;nbsp; &amp;nbsp; &amp;nbsp; 1、配置项的维护要深度使用自动发现，而不是人工维护&lt;br&gt;2、核心述求是应用生命周期管理，以应用为中心&lt;br&gt;&amp;nbsp; &amp;nbsp; &amp;nbsp; &amp;nbsp; &amp;nbsp; &amp;nbsp; &amp;nbsp; &amp;nbsp; &amp;nbsp; 3、避免大而全的表关系，以公司实际的运维场景和需求出发" style="text;html=1;align=center;verticalAlign=middle;resizable=0;points=[];autosize=1;strokeColor=none;fillColor=none;fontSize=25;" parent="1" vertex="1">
          <mxGeometry x="-45.00000000000001" y="4570" width="810" height="100" as="geometry" />
        </mxCell>
        <mxCell id="PTs0oj5LiO3yOLS5tf2K-3" value="Product" style="shape=table;startSize=30;container=1;collapsible=1;childLayout=tableLayout;fixedRows=1;rowLines=0;fontStyle=1;align=center;resizeLast=1;fontSize=25;" parent="1" vertex="1">
          <mxGeometry x="100" y="4800" width="560" height="220" as="geometry" />
        </mxCell>
        <mxCell id="PTs0oj5LiO3yOLS5tf2K-4" value="" style="shape=tableRow;horizontal=0;startSize=0;swimlaneHead=0;swimlaneBody=0;fillColor=none;collapsible=0;dropTarget=0;points=[[0,0.5],[1,0.5]];portConstraint=eastwest;top=0;left=0;right=0;bottom=1;fontSize=25;" parent="PTs0oj5LiO3yOLS5tf2K-3" vertex="1">
          <mxGeometry y="30" width="560" height="30" as="geometry" />
        </mxCell>
        <mxCell id="PTs0oj5LiO3yOLS5tf2K-5" value="PK" style="shape=partialRectangle;connectable=0;fillColor=none;top=0;left=0;bottom=0;right=0;fontStyle=1;overflow=hidden;fontSize=25;" parent="PTs0oj5LiO3yOLS5tf2K-4" vertex="1">
          <mxGeometry width="30" height="30" as="geometry">
            <mxRectangle width="30" height="30" as="alternateBounds" />
          </mxGeometry>
        </mxCell>
        <mxCell id="PTs0oj5LiO3yOLS5tf2K-6" value="UniqueID" style="shape=partialRectangle;connectable=0;fillColor=none;top=0;left=0;bottom=0;right=0;align=left;spacingLeft=6;fontStyle=5;overflow=hidden;fontSize=25;" parent="PTs0oj5LiO3yOLS5tf2K-4" vertex="1">
          <mxGeometry x="30" width="530" height="30" as="geometry">
            <mxRectangle width="530" height="30" as="alternateBounds" />
          </mxGeometry>
        </mxCell>
        <mxCell id="PTs0oj5LiO3yOLS5tf2K-7" value="" style="shape=tableRow;horizontal=0;startSize=0;swimlaneHead=0;swimlaneBody=0;fillColor=none;collapsible=0;dropTarget=0;points=[[0,0.5],[1,0.5]];portConstraint=eastwest;top=0;left=0;right=0;bottom=0;fontSize=25;" parent="PTs0oj5LiO3yOLS5tf2K-3" vertex="1">
          <mxGeometry y="60" width="560" height="30" as="geometry" />
        </mxCell>
        <mxCell id="PTs0oj5LiO3yOLS5tf2K-8" value="" style="shape=partialRectangle;connectable=0;fillColor=none;top=0;left=0;bottom=0;right=0;editable=1;overflow=hidden;fontSize=25;" parent="PTs0oj5LiO3yOLS5tf2K-7" vertex="1">
          <mxGeometry width="30" height="30" as="geometry">
            <mxRectangle width="30" height="30" as="alternateBounds" />
          </mxGeometry>
        </mxCell>
        <mxCell id="PTs0oj5LiO3yOLS5tf2K-9" value="Row 1               XDFS        5.5.6" style="shape=partialRectangle;connectable=0;fillColor=none;top=0;left=0;bottom=0;right=0;align=left;spacingLeft=6;overflow=hidden;fontSize=25;" parent="PTs0oj5LiO3yOLS5tf2K-7" vertex="1">
          <mxGeometry x="30" width="530" height="30" as="geometry">
            <mxRectangle width="530" height="30" as="alternateBounds" />
          </mxGeometry>
        </mxCell>
        <mxCell id="PTs0oj5LiO3yOLS5tf2K-10" value="" style="shape=tableRow;horizontal=0;startSize=0;swimlaneHead=0;swimlaneBody=0;fillColor=none;collapsible=0;dropTarget=0;points=[[0,0.5],[1,0.5]];portConstraint=eastwest;top=0;left=0;right=0;bottom=0;fontSize=25;" parent="PTs0oj5LiO3yOLS5tf2K-3" vertex="1">
          <mxGeometry y="90" width="560" height="30" as="geometry" />
        </mxCell>
        <mxCell id="PTs0oj5LiO3yOLS5tf2K-11" value="" style="shape=partialRectangle;connectable=0;fillColor=none;top=0;left=0;bottom=0;right=0;editable=1;overflow=hidden;fontSize=25;" parent="PTs0oj5LiO3yOLS5tf2K-10" vertex="1">
          <mxGeometry width="30" height="30" as="geometry">
            <mxRectangle width="30" height="30" as="alternateBounds" />
          </mxGeometry>
        </mxCell>
        <mxCell id="PTs0oj5LiO3yOLS5tf2K-12" value="Row 2               FASS         5.0" style="shape=partialRectangle;connectable=0;fillColor=none;top=0;left=0;bottom=0;right=0;align=left;spacingLeft=6;overflow=hidden;fontSize=25;" parent="PTs0oj5LiO3yOLS5tf2K-10" vertex="1">
          <mxGeometry x="30" width="530" height="30" as="geometry">
            <mxRectangle width="530" height="30" as="alternateBounds" />
          </mxGeometry>
        </mxCell>
        <mxCell id="PTs0oj5LiO3yOLS5tf2K-13" value="" style="shape=tableRow;horizontal=0;startSize=0;swimlaneHead=0;swimlaneBody=0;fillColor=none;collapsible=0;dropTarget=0;points=[[0,0.5],[1,0.5]];portConstraint=eastwest;top=0;left=0;right=0;bottom=0;fontSize=25;" parent="PTs0oj5LiO3yOLS5tf2K-3" vertex="1">
          <mxGeometry y="120" width="560" height="30" as="geometry" />
        </mxCell>
        <mxCell id="PTs0oj5LiO3yOLS5tf2K-14" value="" style="shape=partialRectangle;connectable=0;fillColor=none;top=0;left=0;bottom=0;right=0;editable=1;overflow=hidden;fontSize=25;" parent="PTs0oj5LiO3yOLS5tf2K-13" vertex="1">
          <mxGeometry width="30" height="30" as="geometry">
            <mxRectangle width="30" height="30" as="alternateBounds" />
          </mxGeometry>
        </mxCell>
        <mxCell id="PTs0oj5LiO3yOLS5tf2K-15" value="Row 3               XDFS        6.0" style="shape=partialRectangle;connectable=0;fillColor=none;top=0;left=0;bottom=0;right=0;align=left;spacingLeft=6;overflow=hidden;fontSize=25;" parent="PTs0oj5LiO3yOLS5tf2K-13" vertex="1">
          <mxGeometry x="30" width="530" height="30" as="geometry">
            <mxRectangle width="530" height="30" as="alternateBounds" />
          </mxGeometry>
        </mxCell>
        <mxCell id="PTs0oj5LiO3yOLS5tf2K-23" value="name" style="shape=partialRectangle;fillColor=none;align=left;verticalAlign=middle;strokeColor=none;spacingLeft=34;rotatable=0;points=[[0,0.5],[1,0.5]];portConstraint=eastwest;dropTarget=0;fontSize=25;" parent="1" vertex="1">
          <mxGeometry x="267.14" y="4830" width="90" height="30" as="geometry" />
        </mxCell>
        <mxCell id="PTs0oj5LiO3yOLS5tf2K-24" value="" style="shape=partialRectangle;top=0;left=0;bottom=0;fillColor=none;stokeWidth=1;dashed=1;align=left;verticalAlign=middle;spacingLeft=4;spacingRight=4;overflow=hidden;rotatable=0;points=[];portConstraint=eastwest;part=1;fontSize=25;" parent="PTs0oj5LiO3yOLS5tf2K-23" vertex="1" connectable="0">
          <mxGeometry width="30" height="30" as="geometry" />
        </mxCell>
        <mxCell id="PTs0oj5LiO3yOLS5tf2K-25" value="version" style="shape=partialRectangle;fillColor=none;align=left;verticalAlign=middle;strokeColor=none;spacingLeft=34;rotatable=0;points=[[0,0.5],[1,0.5]];portConstraint=eastwest;dropTarget=0;fontSize=25;" parent="1" vertex="1">
          <mxGeometry x="382.14" y="4830" width="90" height="30" as="geometry" />
        </mxCell>
        <mxCell id="PTs0oj5LiO3yOLS5tf2K-26" value="" style="shape=partialRectangle;top=0;left=0;bottom=0;fillColor=none;stokeWidth=1;dashed=1;align=left;verticalAlign=middle;spacingLeft=4;spacingRight=4;overflow=hidden;rotatable=0;points=[];portConstraint=eastwest;part=1;fontSize=25;" parent="PTs0oj5LiO3yOLS5tf2K-25" vertex="1" connectable="0">
          <mxGeometry width="30" height="30" as="geometry" />
        </mxCell>
        <mxCell id="PTs0oj5LiO3yOLS5tf2K-28" value="参考：https://bk.tencent.com/docs/document/6.0/125/5746" style="text;html=1;align=center;verticalAlign=middle;resizable=0;points=[];autosize=1;strokeColor=none;fillColor=none;fontSize=25;" parent="1" vertex="1">
          <mxGeometry x="790" y="4530" width="670" height="40" as="geometry" />
        </mxCell>
        <mxCell id="PTs0oj5LiO3yOLS5tf2K-29" value="conf" style="shape=table;startSize=30;container=1;collapsible=1;childLayout=tableLayout;fixedRows=1;rowLines=0;fontStyle=1;align=center;resizeLast=1;fontSize=25;" parent="1" vertex="1">
          <mxGeometry x="110" y="5420" width="1020" height="220" as="geometry" />
        </mxCell>
        <mxCell id="PTs0oj5LiO3yOLS5tf2K-30" value="" style="shape=tableRow;horizontal=0;startSize=0;swimlaneHead=0;swimlaneBody=0;fillColor=none;collapsible=0;dropTarget=0;points=[[0,0.5],[1,0.5]];portConstraint=eastwest;top=0;left=0;right=0;bottom=1;fontSize=25;" parent="PTs0oj5LiO3yOLS5tf2K-29" vertex="1">
          <mxGeometry y="30" width="1020" height="30" as="geometry" />
        </mxCell>
        <mxCell id="PTs0oj5LiO3yOLS5tf2K-31" value="PK" style="shape=partialRectangle;connectable=0;fillColor=none;top=0;left=0;bottom=0;right=0;fontStyle=1;overflow=hidden;fontSize=25;" parent="PTs0oj5LiO3yOLS5tf2K-30" vertex="1">
          <mxGeometry width="30" height="30" as="geometry">
            <mxRectangle width="30" height="30" as="alternateBounds" />
          </mxGeometry>
        </mxCell>
        <mxCell id="PTs0oj5LiO3yOLS5tf2K-32" value="UniqueID" style="shape=partialRectangle;connectable=0;fillColor=none;top=0;left=0;bottom=0;right=0;align=left;spacingLeft=6;fontStyle=5;overflow=hidden;fontSize=25;" parent="PTs0oj5LiO3yOLS5tf2K-30" vertex="1">
          <mxGeometry x="30" width="990" height="30" as="geometry">
            <mxRectangle width="990" height="30" as="alternateBounds" />
          </mxGeometry>
        </mxCell>
        <mxCell id="PTs0oj5LiO3yOLS5tf2K-33" value="" style="shape=tableRow;horizontal=0;startSize=0;swimlaneHead=0;swimlaneBody=0;fillColor=none;collapsible=0;dropTarget=0;points=[[0,0.5],[1,0.5]];portConstraint=eastwest;top=0;left=0;right=0;bottom=0;fontSize=25;" parent="PTs0oj5LiO3yOLS5tf2K-29" vertex="1">
          <mxGeometry y="60" width="1020" height="30" as="geometry" />
        </mxCell>
        <mxCell id="PTs0oj5LiO3yOLS5tf2K-34" value="" style="shape=partialRectangle;connectable=0;fillColor=none;top=0;left=0;bottom=0;right=0;editable=1;overflow=hidden;fontSize=25;" parent="PTs0oj5LiO3yOLS5tf2K-33" vertex="1">
          <mxGeometry width="30" height="30" as="geometry">
            <mxRectangle width="30" height="30" as="alternateBounds" />
          </mxGeometry>
        </mxCell>
        <mxCell id="PTs0oj5LiO3yOLS5tf2K-35" value="Row 1               mgnt-master        172.16.107.13                                                         1" style="shape=partialRectangle;connectable=0;fillColor=none;top=0;left=0;bottom=0;right=0;align=left;spacingLeft=6;overflow=hidden;fontSize=25;" parent="PTs0oj5LiO3yOLS5tf2K-33" vertex="1">
          <mxGeometry x="30" width="990" height="30" as="geometry">
            <mxRectangle width="990" height="30" as="alternateBounds" />
          </mxGeometry>
        </mxCell>
        <mxCell id="PTs0oj5LiO3yOLS5tf2K-36" value="" style="shape=tableRow;horizontal=0;startSize=0;swimlaneHead=0;swimlaneBody=0;fillColor=none;collapsible=0;dropTarget=0;points=[[0,0.5],[1,0.5]];portConstraint=eastwest;top=0;left=0;right=0;bottom=0;fontSize=25;" parent="PTs0oj5LiO3yOLS5tf2K-29" vertex="1">
          <mxGeometry y="90" width="1020" height="30" as="geometry" />
        </mxCell>
        <mxCell id="PTs0oj5LiO3yOLS5tf2K-37" value="" style="shape=partialRectangle;connectable=0;fillColor=none;top=0;left=0;bottom=0;right=0;editable=1;overflow=hidden;fontSize=25;" parent="PTs0oj5LiO3yOLS5tf2K-36" vertex="1">
          <mxGeometry width="30" height="30" as="geometry">
            <mxRectangle width="30" height="30" as="alternateBounds" />
          </mxGeometry>
        </mxCell>
        <mxCell id="PTs0oj5LiO3yOLS5tf2K-38" value="Row 2               node-02        172.16.107.14                                                         1" style="shape=partialRectangle;connectable=0;fillColor=none;top=0;left=0;bottom=0;right=0;align=left;spacingLeft=6;overflow=hidden;fontSize=25;" parent="PTs0oj5LiO3yOLS5tf2K-36" vertex="1">
          <mxGeometry x="30" width="990" height="30" as="geometry">
            <mxRectangle width="990" height="30" as="alternateBounds" />
          </mxGeometry>
        </mxCell>
        <mxCell id="PTs0oj5LiO3yOLS5tf2K-39" value="" style="shape=tableRow;horizontal=0;startSize=0;swimlaneHead=0;swimlaneBody=0;fillColor=none;collapsible=0;dropTarget=0;points=[[0,0.5],[1,0.5]];portConstraint=eastwest;top=0;left=0;right=0;bottom=0;fontSize=25;" parent="PTs0oj5LiO3yOLS5tf2K-29" vertex="1">
          <mxGeometry y="120" width="1020" height="30" as="geometry" />
        </mxCell>
        <mxCell id="PTs0oj5LiO3yOLS5tf2K-40" value="" style="shape=partialRectangle;connectable=0;fillColor=none;top=0;left=0;bottom=0;right=0;editable=1;overflow=hidden;fontSize=25;" parent="PTs0oj5LiO3yOLS5tf2K-39" vertex="1">
          <mxGeometry width="30" height="30" as="geometry">
            <mxRectangle width="30" height="30" as="alternateBounds" />
          </mxGeometry>
        </mxCell>
        <mxCell id="PTs0oj5LiO3yOLS5tf2K-41" value="Row 3               node-03        172.16.107.15                                                         1" style="shape=partialRectangle;connectable=0;fillColor=none;top=0;left=0;bottom=0;right=0;align=left;spacingLeft=6;overflow=hidden;fontSize=25;" parent="PTs0oj5LiO3yOLS5tf2K-39" vertex="1">
          <mxGeometry x="30" width="990" height="30" as="geometry">
            <mxRectangle width="990" height="30" as="alternateBounds" />
          </mxGeometry>
        </mxCell>
        <mxCell id="PTs0oj5LiO3yOLS5tf2K-43" value="name" style="shape=partialRectangle;fillColor=none;align=left;verticalAlign=middle;strokeColor=none;spacingLeft=34;rotatable=0;points=[[0,0.5],[1,0.5]];portConstraint=eastwest;dropTarget=0;fontSize=25;" parent="1" vertex="1">
          <mxGeometry x="270" y="5130" width="90" height="30" as="geometry" />
        </mxCell>
        <mxCell id="PTs0oj5LiO3yOLS5tf2K-44" value="" style="shape=partialRectangle;top=0;left=0;bottom=0;fillColor=none;stokeWidth=1;dashed=1;align=left;verticalAlign=middle;spacingLeft=4;spacingRight=4;overflow=hidden;rotatable=0;points=[];portConstraint=eastwest;part=1;fontSize=25;" parent="PTs0oj5LiO3yOLS5tf2K-43" vertex="1" connectable="0">
          <mxGeometry width="30" height="30" as="geometry" />
        </mxCell>
        <mxCell id="PTs0oj5LiO3yOLS5tf2K-45" value="manager_ip" style="shape=partialRectangle;fillColor=none;align=left;verticalAlign=middle;strokeColor=none;spacingLeft=34;rotatable=0;points=[[0,0.5],[1,0.5]];portConstraint=eastwest;dropTarget=0;fontSize=25;" parent="1" vertex="1">
          <mxGeometry x="420" y="5130" width="90" height="30" as="geometry" />
        </mxCell>
        <mxCell id="PTs0oj5LiO3yOLS5tf2K-46" value="" style="shape=partialRectangle;top=0;left=0;bottom=0;fillColor=none;stokeWidth=1;dashed=1;align=left;verticalAlign=middle;spacingLeft=4;spacingRight=4;overflow=hidden;rotatable=0;points=[];portConstraint=eastwest;part=1;fontSize=25;" parent="PTs0oj5LiO3yOLS5tf2K-45" vertex="1" connectable="0">
          <mxGeometry width="30" height="30" as="geometry" />
        </mxCell>
        <mxCell id="PTs0oj5LiO3yOLS5tf2K-47" value="product_id" style="shape=partialRectangle;fillColor=none;align=left;verticalAlign=middle;strokeColor=none;spacingLeft=34;rotatable=0;points=[[0,0.5],[1,0.5]];portConstraint=eastwest;dropTarget=0;fontSize=25;" parent="1" vertex="1">
          <mxGeometry x="930" y="5130" width="90" height="30" as="geometry" />
        </mxCell>
        <mxCell id="PTs0oj5LiO3yOLS5tf2K-48" value="" style="shape=partialRectangle;top=0;left=0;bottom=0;fillColor=none;stokeWidth=1;dashed=1;align=left;verticalAlign=middle;spacingLeft=4;spacingRight=4;overflow=hidden;rotatable=0;points=[];portConstraint=eastwest;part=1;fontSize=25;" parent="PTs0oj5LiO3yOLS5tf2K-47" vertex="1" connectable="0">
          <mxGeometry width="30" height="30" as="geometry" />
        </mxCell>
        <mxCell id="PTs0oj5LiO3yOLS5tf2K-49" value="CMD" style="shape=table;startSize=30;container=1;collapsible=1;childLayout=tableLayout;fixedRows=1;rowLines=0;fontStyle=1;align=center;resizeLast=1;fontSize=25;" parent="1" vertex="1">
          <mxGeometry x="770" y="4800" width="1400" height="280" as="geometry" />
        </mxCell>
        <mxCell id="PTs0oj5LiO3yOLS5tf2K-50" value="" style="shape=tableRow;horizontal=0;startSize=0;swimlaneHead=0;swimlaneBody=0;fillColor=none;collapsible=0;dropTarget=0;points=[[0,0.5],[1,0.5]];portConstraint=eastwest;top=0;left=0;right=0;bottom=1;fontSize=25;" parent="PTs0oj5LiO3yOLS5tf2K-49" vertex="1">
          <mxGeometry y="30" width="1400" height="30" as="geometry" />
        </mxCell>
        <mxCell id="PTs0oj5LiO3yOLS5tf2K-51" value="PK" style="shape=partialRectangle;connectable=0;fillColor=none;top=0;left=0;bottom=0;right=0;fontStyle=1;overflow=hidden;fontSize=25;" parent="PTs0oj5LiO3yOLS5tf2K-50" vertex="1">
          <mxGeometry width="30" height="30" as="geometry">
            <mxRectangle width="30" height="30" as="alternateBounds" />
          </mxGeometry>
        </mxCell>
        <mxCell id="PTs0oj5LiO3yOLS5tf2K-52" value="UniqueID" style="shape=partialRectangle;connectable=0;fillColor=none;top=0;left=0;bottom=0;right=0;align=left;spacingLeft=6;fontStyle=5;overflow=hidden;fontSize=25;" parent="PTs0oj5LiO3yOLS5tf2K-50" vertex="1">
          <mxGeometry x="30" width="1370" height="30" as="geometry">
            <mxRectangle width="1370" height="30" as="alternateBounds" />
          </mxGeometry>
        </mxCell>
        <mxCell id="PTs0oj5LiO3yOLS5tf2K-53" value="" style="shape=tableRow;horizontal=0;startSize=0;swimlaneHead=0;swimlaneBody=0;fillColor=none;collapsible=0;dropTarget=0;points=[[0,0.5],[1,0.5]];portConstraint=eastwest;top=0;left=0;right=0;bottom=0;fontSize=25;" parent="PTs0oj5LiO3yOLS5tf2K-49" vertex="1">
          <mxGeometry y="60" width="1400" height="30" as="geometry" />
        </mxCell>
        <mxCell id="PTs0oj5LiO3yOLS5tf2K-54" value="" style="shape=partialRectangle;connectable=0;fillColor=none;top=0;left=0;bottom=0;right=0;editable=1;overflow=hidden;fontSize=25;" parent="PTs0oj5LiO3yOLS5tf2K-53" vertex="1">
          <mxGeometry width="30" height="30" as="geometry">
            <mxRectangle width="30" height="30" as="alternateBounds" />
          </mxGeometry>
        </mxCell>
        <mxCell id="PTs0oj5LiO3yOLS5tf2K-55" value="Row 1               Display OS information               taocli system info                                                                               1" style="shape=partialRectangle;connectable=0;fillColor=none;top=0;left=0;bottom=0;right=0;align=left;spacingLeft=6;overflow=hidden;fontSize=25;" parent="PTs0oj5LiO3yOLS5tf2K-53" vertex="1">
          <mxGeometry x="30" width="1370" height="30" as="geometry">
            <mxRectangle width="1370" height="30" as="alternateBounds" />
          </mxGeometry>
        </mxCell>
        <mxCell id="PTs0oj5LiO3yOLS5tf2K-56" value="" style="shape=tableRow;horizontal=0;startSize=0;swimlaneHead=0;swimlaneBody=0;fillColor=none;collapsible=0;dropTarget=0;points=[[0,0.5],[1,0.5]];portConstraint=eastwest;top=0;left=0;right=0;bottom=0;fontSize=25;" parent="PTs0oj5LiO3yOLS5tf2K-49" vertex="1">
          <mxGeometry y="90" width="1400" height="30" as="geometry" />
        </mxCell>
        <mxCell id="PTs0oj5LiO3yOLS5tf2K-57" value="" style="shape=partialRectangle;connectable=0;fillColor=none;top=0;left=0;bottom=0;right=0;editable=1;overflow=hidden;fontSize=25;" parent="PTs0oj5LiO3yOLS5tf2K-56" vertex="1">
          <mxGeometry width="30" height="30" as="geometry">
            <mxRectangle width="30" height="30" as="alternateBounds" />
          </mxGeometry>
        </mxCell>
        <mxCell id="PTs0oj5LiO3yOLS5tf2K-58" value="Row 2               Check Celery Instance                taocli platform check-celery                                                               1" style="shape=partialRectangle;connectable=0;fillColor=none;top=0;left=0;bottom=0;right=0;align=left;spacingLeft=6;overflow=hidden;fontSize=25;" parent="PTs0oj5LiO3yOLS5tf2K-56" vertex="1">
          <mxGeometry x="30" width="1370" height="30" as="geometry">
            <mxRectangle width="1370" height="30" as="alternateBounds" />
          </mxGeometry>
        </mxCell>
        <mxCell id="PTs0oj5LiO3yOLS5tf2K-59" value="" style="shape=tableRow;horizontal=0;startSize=0;swimlaneHead=0;swimlaneBody=0;fillColor=none;collapsible=0;dropTarget=0;points=[[0,0.5],[1,0.5]];portConstraint=eastwest;top=0;left=0;right=0;bottom=0;fontSize=25;" parent="PTs0oj5LiO3yOLS5tf2K-49" vertex="1">
          <mxGeometry y="120" width="1400" height="30" as="geometry" />
        </mxCell>
        <mxCell id="PTs0oj5LiO3yOLS5tf2K-60" value="" style="shape=partialRectangle;connectable=0;fillColor=none;top=0;left=0;bottom=0;right=0;editable=1;overflow=hidden;fontSize=25;" parent="PTs0oj5LiO3yOLS5tf2K-59" vertex="1">
          <mxGeometry width="30" height="30" as="geometry">
            <mxRectangle width="30" height="30" as="alternateBounds" />
          </mxGeometry>
        </mxCell>
        <mxCell id="PTs0oj5LiO3yOLS5tf2K-61" value="Row 3               Check Redis Status                    taocli platform check-redis                                                                 1  " style="shape=partialRectangle;connectable=0;fillColor=none;top=0;left=0;bottom=0;right=0;align=left;spacingLeft=6;overflow=hidden;fontSize=25;" parent="PTs0oj5LiO3yOLS5tf2K-59" vertex="1">
          <mxGeometry x="30" width="1370" height="30" as="geometry">
            <mxRectangle width="1370" height="30" as="alternateBounds" />
          </mxGeometry>
        </mxCell>
        <mxCell id="PTs0oj5LiO3yOLS5tf2K-68" value="" style="shape=tableRow;horizontal=0;startSize=0;swimlaneHead=0;swimlaneBody=0;fillColor=none;collapsible=0;dropTarget=0;points=[[0,0.5],[1,0.5]];portConstraint=eastwest;top=0;left=0;right=0;bottom=0;fontSize=25;" parent="PTs0oj5LiO3yOLS5tf2K-49" vertex="1">
          <mxGeometry y="150" width="1400" height="30" as="geometry" />
        </mxCell>
        <mxCell id="PTs0oj5LiO3yOLS5tf2K-69" value="" style="shape=partialRectangle;connectable=0;fillColor=none;top=0;left=0;bottom=0;right=0;editable=1;overflow=hidden;fontSize=25;" parent="PTs0oj5LiO3yOLS5tf2K-68" vertex="1">
          <mxGeometry width="30" height="30" as="geometry">
            <mxRectangle width="30" height="30" as="alternateBounds" />
          </mxGeometry>
        </mxCell>
        <mxCell id="PTs0oj5LiO3yOLS5tf2K-70" value="Row 4               Check Mgnt Agent                      taocli platform check-mgnt-agent                                                        1" style="shape=partialRectangle;connectable=0;fillColor=none;top=0;left=0;bottom=0;right=0;align=left;spacingLeft=6;overflow=hidden;fontSize=25;" parent="PTs0oj5LiO3yOLS5tf2K-68" vertex="1">
          <mxGeometry x="30" width="1370" height="30" as="geometry">
            <mxRectangle width="1370" height="30" as="alternateBounds" />
          </mxGeometry>
        </mxCell>
        <mxCell id="PTs0oj5LiO3yOLS5tf2K-72" value="" style="shape=tableRow;horizontal=0;startSize=0;swimlaneHead=0;swimlaneBody=0;fillColor=none;collapsible=0;dropTarget=0;points=[[0,0.5],[1,0.5]];portConstraint=eastwest;top=0;left=0;right=0;bottom=0;fontSize=25;" parent="PTs0oj5LiO3yOLS5tf2K-49" vertex="1">
          <mxGeometry y="180" width="1400" height="30" as="geometry" />
        </mxCell>
        <mxCell id="PTs0oj5LiO3yOLS5tf2K-73" value="" style="shape=partialRectangle;connectable=0;fillColor=none;top=0;left=0;bottom=0;right=0;editable=1;overflow=hidden;fontSize=25;" parent="PTs0oj5LiO3yOLS5tf2K-72" vertex="1">
          <mxGeometry width="30" height="30" as="geometry">
            <mxRectangle width="30" height="30" as="alternateBounds" />
          </mxGeometry>
        </mxCell>
        <mxCell id="PTs0oj5LiO3yOLS5tf2K-74" value="Row 5               Check Mgnt Master                    taocli platform check-mgnt-master                                                      1" style="shape=partialRectangle;connectable=0;fillColor=none;top=0;left=0;bottom=0;right=0;align=left;spacingLeft=6;overflow=hidden;fontSize=25;" parent="PTs0oj5LiO3yOLS5tf2K-72" vertex="1">
          <mxGeometry x="30" width="1370" height="30" as="geometry">
            <mxRectangle width="1370" height="30" as="alternateBounds" />
          </mxGeometry>
        </mxCell>
        <mxCell id="PTs0oj5LiO3yOLS5tf2K-62" value="name" style="shape=partialRectangle;fillColor=none;align=left;verticalAlign=middle;strokeColor=none;spacingLeft=34;rotatable=0;points=[[0,0.5],[1,0.5]];portConstraint=eastwest;dropTarget=0;fontSize=25;" parent="1" vertex="1">
          <mxGeometry x="950" y="4830" width="90" height="30" as="geometry" />
        </mxCell>
        <mxCell id="PTs0oj5LiO3yOLS5tf2K-63" value="" style="shape=partialRectangle;top=0;left=0;bottom=0;fillColor=none;stokeWidth=1;dashed=1;align=left;verticalAlign=middle;spacingLeft=4;spacingRight=4;overflow=hidden;rotatable=0;points=[];portConstraint=eastwest;part=1;fontSize=25;" parent="PTs0oj5LiO3yOLS5tf2K-62" vertex="1" connectable="0">
          <mxGeometry width="30" height="30" as="geometry" />
        </mxCell>
        <mxCell id="PTs0oj5LiO3yOLS5tf2K-64" value="cmd" style="shape=partialRectangle;fillColor=none;align=left;verticalAlign=middle;strokeColor=none;spacingLeft=34;rotatable=0;points=[[0,0.5],[1,0.5]];portConstraint=eastwest;dropTarget=0;fontSize=25;" parent="1" vertex="1">
          <mxGeometry x="1310" y="4830" width="90" height="30" as="geometry" />
        </mxCell>
        <mxCell id="PTs0oj5LiO3yOLS5tf2K-65" value="" style="shape=partialRectangle;top=0;left=0;bottom=0;fillColor=none;stokeWidth=1;dashed=1;align=left;verticalAlign=middle;spacingLeft=4;spacingRight=4;overflow=hidden;rotatable=0;points=[];portConstraint=eastwest;part=1;fontSize=25;" parent="PTs0oj5LiO3yOLS5tf2K-64" vertex="1" connectable="0">
          <mxGeometry width="30" height="30" as="geometry" />
        </mxCell>
        <mxCell id="PTs0oj5LiO3yOLS5tf2K-75" value="Product_id" style="shape=partialRectangle;fillColor=none;align=left;verticalAlign=middle;strokeColor=none;spacingLeft=34;rotatable=0;points=[[0,0.5],[1,0.5]];portConstraint=eastwest;dropTarget=0;fontSize=25;" parent="1" vertex="1">
          <mxGeometry x="2010" y="4830" width="90" height="30" as="geometry" />
        </mxCell>
        <mxCell id="PTs0oj5LiO3yOLS5tf2K-76" value="" style="shape=partialRectangle;top=0;left=0;bottom=0;fillColor=none;stokeWidth=1;dashed=1;align=left;verticalAlign=middle;spacingLeft=4;spacingRight=4;overflow=hidden;rotatable=0;points=[];portConstraint=eastwest;part=1;fontSize=25;" parent="PTs0oj5LiO3yOLS5tf2K-75" vertex="1" connectable="0">
          <mxGeometry width="30" height="30" as="geometry" />
        </mxCell>
        <mxCell id="PTs0oj5LiO3yOLS5tf2K-77" value="Host" style="shape=table;startSize=30;container=1;collapsible=1;childLayout=tableLayout;fixedRows=1;rowLines=0;fontStyle=1;align=center;resizeLast=1;fontSize=25;" parent="1" vertex="1">
          <mxGeometry x="110" y="5110" width="1020" height="220" as="geometry" />
        </mxCell>
        <mxCell id="PTs0oj5LiO3yOLS5tf2K-78" value="" style="shape=tableRow;horizontal=0;startSize=0;swimlaneHead=0;swimlaneBody=0;fillColor=none;collapsible=0;dropTarget=0;points=[[0,0.5],[1,0.5]];portConstraint=eastwest;top=0;left=0;right=0;bottom=1;fontSize=25;" parent="PTs0oj5LiO3yOLS5tf2K-77" vertex="1">
          <mxGeometry y="30" width="1020" height="30" as="geometry" />
        </mxCell>
        <mxCell id="PTs0oj5LiO3yOLS5tf2K-79" value="PK" style="shape=partialRectangle;connectable=0;fillColor=none;top=0;left=0;bottom=0;right=0;fontStyle=1;overflow=hidden;fontSize=25;" parent="PTs0oj5LiO3yOLS5tf2K-78" vertex="1">
          <mxGeometry width="30" height="30" as="geometry">
            <mxRectangle width="30" height="30" as="alternateBounds" />
          </mxGeometry>
        </mxCell>
        <mxCell id="PTs0oj5LiO3yOLS5tf2K-80" value="UniqueID" style="shape=partialRectangle;connectable=0;fillColor=none;top=0;left=0;bottom=0;right=0;align=left;spacingLeft=6;fontStyle=5;overflow=hidden;fontSize=25;" parent="PTs0oj5LiO3yOLS5tf2K-78" vertex="1">
          <mxGeometry x="30" width="990" height="30" as="geometry">
            <mxRectangle width="990" height="30" as="alternateBounds" />
          </mxGeometry>
        </mxCell>
        <mxCell id="PTs0oj5LiO3yOLS5tf2K-81" value="" style="shape=tableRow;horizontal=0;startSize=0;swimlaneHead=0;swimlaneBody=0;fillColor=none;collapsible=0;dropTarget=0;points=[[0,0.5],[1,0.5]];portConstraint=eastwest;top=0;left=0;right=0;bottom=0;fontSize=25;" parent="PTs0oj5LiO3yOLS5tf2K-77" vertex="1">
          <mxGeometry y="60" width="1020" height="30" as="geometry" />
        </mxCell>
        <mxCell id="PTs0oj5LiO3yOLS5tf2K-82" value="" style="shape=partialRectangle;connectable=0;fillColor=none;top=0;left=0;bottom=0;right=0;editable=1;overflow=hidden;fontSize=25;" parent="PTs0oj5LiO3yOLS5tf2K-81" vertex="1">
          <mxGeometry width="30" height="30" as="geometry">
            <mxRectangle width="30" height="30" as="alternateBounds" />
          </mxGeometry>
        </mxCell>
        <mxCell id="PTs0oj5LiO3yOLS5tf2K-83" value="Row 1               node-01        172.16.107.13                                                         1" style="shape=partialRectangle;connectable=0;fillColor=none;top=0;left=0;bottom=0;right=0;align=left;spacingLeft=6;overflow=hidden;fontSize=25;" parent="PTs0oj5LiO3yOLS5tf2K-81" vertex="1">
          <mxGeometry x="30" width="990" height="30" as="geometry">
            <mxRectangle width="990" height="30" as="alternateBounds" />
          </mxGeometry>
        </mxCell>
        <mxCell id="PTs0oj5LiO3yOLS5tf2K-84" value="" style="shape=tableRow;horizontal=0;startSize=0;swimlaneHead=0;swimlaneBody=0;fillColor=none;collapsible=0;dropTarget=0;points=[[0,0.5],[1,0.5]];portConstraint=eastwest;top=0;left=0;right=0;bottom=0;fontSize=25;" parent="PTs0oj5LiO3yOLS5tf2K-77" vertex="1">
          <mxGeometry y="90" width="1020" height="30" as="geometry" />
        </mxCell>
        <mxCell id="PTs0oj5LiO3yOLS5tf2K-85" value="" style="shape=partialRectangle;connectable=0;fillColor=none;top=0;left=0;bottom=0;right=0;editable=1;overflow=hidden;fontSize=25;" parent="PTs0oj5LiO3yOLS5tf2K-84" vertex="1">
          <mxGeometry width="30" height="30" as="geometry">
            <mxRectangle width="30" height="30" as="alternateBounds" />
          </mxGeometry>
        </mxCell>
        <mxCell id="PTs0oj5LiO3yOLS5tf2K-86" value="Row 2               node-02        172.16.107.14                                                         1" style="shape=partialRectangle;connectable=0;fillColor=none;top=0;left=0;bottom=0;right=0;align=left;spacingLeft=6;overflow=hidden;fontSize=25;" parent="PTs0oj5LiO3yOLS5tf2K-84" vertex="1">
          <mxGeometry x="30" width="990" height="30" as="geometry">
            <mxRectangle width="990" height="30" as="alternateBounds" />
          </mxGeometry>
        </mxCell>
        <mxCell id="PTs0oj5LiO3yOLS5tf2K-87" value="" style="shape=tableRow;horizontal=0;startSize=0;swimlaneHead=0;swimlaneBody=0;fillColor=none;collapsible=0;dropTarget=0;points=[[0,0.5],[1,0.5]];portConstraint=eastwest;top=0;left=0;right=0;bottom=0;fontSize=25;" parent="PTs0oj5LiO3yOLS5tf2K-77" vertex="1">
          <mxGeometry y="120" width="1020" height="30" as="geometry" />
        </mxCell>
        <mxCell id="PTs0oj5LiO3yOLS5tf2K-88" value="" style="shape=partialRectangle;connectable=0;fillColor=none;top=0;left=0;bottom=0;right=0;editable=1;overflow=hidden;fontSize=25;" parent="PTs0oj5LiO3yOLS5tf2K-87" vertex="1">
          <mxGeometry width="30" height="30" as="geometry">
            <mxRectangle width="30" height="30" as="alternateBounds" />
          </mxGeometry>
        </mxCell>
        <mxCell id="PTs0oj5LiO3yOLS5tf2K-89" value="Row 3               node-03        172.16.107.15                                                         1" style="shape=partialRectangle;connectable=0;fillColor=none;top=0;left=0;bottom=0;right=0;align=left;spacingLeft=6;overflow=hidden;fontSize=25;" parent="PTs0oj5LiO3yOLS5tf2K-87" vertex="1">
          <mxGeometry x="30" width="990" height="30" as="geometry">
            <mxRectangle width="990" height="30" as="alternateBounds" />
          </mxGeometry>
        </mxCell>
        <mxCell id="PTs0oj5LiO3yOLS5tf2K-90" value="name" style="shape=partialRectangle;fillColor=none;align=left;verticalAlign=middle;strokeColor=none;spacingLeft=34;rotatable=0;points=[[0,0.5],[1,0.5]];portConstraint=eastwest;dropTarget=0;fontSize=25;" parent="1" vertex="1">
          <mxGeometry x="280" y="5450" width="90" height="30" as="geometry" />
        </mxCell>
        <mxCell id="PTs0oj5LiO3yOLS5tf2K-91" value="" style="shape=partialRectangle;top=0;left=0;bottom=0;fillColor=none;stokeWidth=1;dashed=1;align=left;verticalAlign=middle;spacingLeft=4;spacingRight=4;overflow=hidden;rotatable=0;points=[];portConstraint=eastwest;part=1;fontSize=25;" parent="PTs0oj5LiO3yOLS5tf2K-90" vertex="1" connectable="0">
          <mxGeometry width="30" height="30" as="geometry" />
        </mxCell>
        <mxCell id="PTs0oj5LiO3yOLS5tf2K-92" value="path" style="shape=partialRectangle;fillColor=none;align=left;verticalAlign=middle;strokeColor=none;spacingLeft=34;rotatable=0;points=[[0,0.5],[1,0.5]];portConstraint=eastwest;dropTarget=0;fontSize=25;" parent="1" vertex="1">
          <mxGeometry x="520" y="5450" width="90" height="30" as="geometry" />
        </mxCell>
        <mxCell id="PTs0oj5LiO3yOLS5tf2K-93" value="" style="shape=partialRectangle;top=0;left=0;bottom=0;fillColor=none;stokeWidth=1;dashed=1;align=left;verticalAlign=middle;spacingLeft=4;spacingRight=4;overflow=hidden;rotatable=0;points=[];portConstraint=eastwest;part=1;fontSize=25;" parent="PTs0oj5LiO3yOLS5tf2K-92" vertex="1" connectable="0">
          <mxGeometry width="30" height="30" as="geometry" />
        </mxCell>
        <mxCell id="xWN14-OgWOWJWMfU6hnZ-1" value="CMDB包含的功能" style="text;html=1;align=center;verticalAlign=middle;resizable=0;points=[];autosize=1;strokeColor=none;fillColor=none;fontSize=20;" parent="1" vertex="1">
          <mxGeometry x="970" y="1860" width="180" height="40" as="geometry" />
        </mxCell>
        <mxCell id="xWN14-OgWOWJWMfU6hnZ-2" value="&amp;nbsp; &amp;nbsp; &amp;nbsp; &amp;nbsp; &amp;nbsp; &amp;nbsp; &amp;nbsp; &amp;nbsp; &amp;nbsp; &amp;nbsp; &amp;nbsp; 用户管理：记录运维人员的用户表" style="text;html=1;align=center;verticalAlign=middle;resizable=0;points=[];autosize=1;strokeColor=none;fillColor=none;fontSize=20;" parent="1" vertex="1">
          <mxGeometry x="905" y="1900" width="450" height="40" as="geometry" />
        </mxCell>
        <mxCell id="xWN14-OgWOWJWMfU6hnZ-3" value="主机管理：记录此项目下的物理机和管理IP，内存，CPU，OS等" style="text;html=1;align=center;verticalAlign=middle;resizable=0;points=[];autosize=1;strokeColor=none;fillColor=none;fontSize=20;" parent="1" vertex="1">
          <mxGeometry x="1028.75" y="2000" width="590" height="40" as="geometry" />
        </mxCell>
        <mxCell id="xWN14-OgWOWJWMfU6hnZ-4" value="项目管理：记录此项目是哪个存储产品，版本，项目开始日期，项目负责人等" style="text;html=1;align=center;verticalAlign=middle;resizable=0;points=[];autosize=1;strokeColor=none;fillColor=none;fontSize=20;" parent="1" vertex="1">
          <mxGeometry x="1028.75" y="1950" width="700" height="40" as="geometry" />
        </mxCell>
        <mxCell id="xWN14-OgWOWJWMfU6hnZ-5" value="网络设备管理：记录每台服务器的网卡信息" style="text;html=1;align=center;verticalAlign=middle;resizable=0;points=[];autosize=1;strokeColor=#82b366;fillColor=#d5e8d4;fontSize=20;dashed=1;" parent="1" vertex="1">
          <mxGeometry x="1028.75" y="2050" width="400" height="40" as="geometry" />
        </mxCell>
        <mxCell id="xWN14-OgWOWJWMfU6hnZ-6" value="磁盘设备管理：记录每台服务器的磁盘信息" style="text;html=1;align=center;verticalAlign=middle;resizable=0;points=[];autosize=1;strokeColor=#82b366;fillColor=#d5e8d4;fontSize=20;" parent="1" vertex="1">
          <mxGeometry x="1028.75" y="2100" width="400" height="40" as="geometry" />
        </mxCell>
        <mxCell id="xWN14-OgWOWJWMfU6hnZ-7" value="应用管理：记录每台服务器上部署的软件，开发人员，代码地址，部署目录，依赖的应用，软件信息，配置文件，进程名称等" style="text;html=1;align=center;verticalAlign=middle;resizable=0;points=[];autosize=1;strokeColor=none;fillColor=none;fontSize=20;" parent="1" vertex="1">
          <mxGeometry x="1070.63" y="2490" width="1120" height="40" as="geometry" />
        </mxCell>
        <mxCell id="xWN14-OgWOWJWMfU6hnZ-8" value="应用配置文件管理：记录每个应用的配置文件位置，内容，修改日期等" style="text;html=1;align=center;verticalAlign=middle;resizable=0;points=[];autosize=1;strokeColor=none;fillColor=none;fontSize=20;" parent="1" vertex="1">
          <mxGeometry x="1070.63" y="2535" width="640" height="40" as="geometry" />
        </mxCell>
        <mxCell id="xWN14-OgWOWJWMfU6hnZ-9" value="应用安装目录管理：记录每个应用的安装目录信息" style="text;html=1;align=center;verticalAlign=middle;resizable=0;points=[];autosize=1;strokeColor=none;fillColor=none;fontSize=20;" parent="1" vertex="1">
          <mxGeometry x="1070.63" y="2595" width="460" height="40" as="geometry" />
        </mxCell>
        <mxCell id="xWN14-OgWOWJWMfU6hnZ-10" value="应用进程管理：记录每个应用的当前进程状态，个数等" style="text;html=1;align=center;verticalAlign=middle;resizable=0;points=[];autosize=1;strokeColor=none;fillColor=none;fontSize=20;" parent="1" vertex="1">
          <mxGeometry x="1070.63" y="2645" width="500" height="40" as="geometry" />
        </mxCell>
        <mxCell id="xWN14-OgWOWJWMfU6hnZ-11" value="&amp;nbsp; &amp;nbsp; &amp;nbsp; &amp;nbsp; &amp;nbsp; &amp;nbsp; &amp;nbsp; &amp;nbsp; &amp;nbsp; &amp;nbsp; &amp;nbsp; &amp;nbsp; &amp;nbsp; &amp;nbsp; &amp;nbsp; &amp;nbsp; &amp;nbsp; &amp;nbsp; &amp;nbsp; &amp;nbsp; &amp;nbsp; &amp;nbsp; &amp;nbsp; &amp;nbsp; &amp;nbsp; &amp;nbsp; &amp;nbsp; &amp;nbsp; &amp;nbsp; &amp;nbsp; &amp;nbsp; &amp;nbsp; &amp;nbsp; &amp;nbsp; Agent命令管理：记录每台服务器存在的命令集（一个BashOperator 的 task实例 == 一个taocli命令的执行）" style="text;html=1;align=center;verticalAlign=middle;resizable=0;points=[];autosize=1;strokeColor=none;fillColor=none;fontSize=20;" parent="1" vertex="1">
          <mxGeometry x="648.75" y="2150" width="1350" height="40" as="geometry" />
        </mxCell>
        <mxCell id="xWN14-OgWOWJWMfU6hnZ-12" value="应用日志管理：记录每个应用产生的日志，日志位置，条数，日志等级等" style="text;html=1;align=center;verticalAlign=middle;resizable=0;points=[];autosize=1;strokeColor=none;fillColor=none;fontSize=20;" parent="1" vertex="1">
          <mxGeometry x="1069.38" y="2695" width="660" height="40" as="geometry" />
        </mxCell>
        <mxCell id="xWN14-OgWOWJWMfU6hnZ-13" value="作业模板dag管理：记录用户自定义的作业模板" style="text;html=1;align=center;verticalAlign=middle;resizable=0;points=[];autosize=1;strokeColor=#b85450;fillColor=#f8cecc;fontSize=20;" parent="1" vertex="1">
          <mxGeometry x="1030.63" y="2250" width="440" height="40" as="geometry" />
        </mxCell>
        <mxCell id="xWN14-OgWOWJWMfU6hnZ-14" value="作业结果管理：记录工作流中每一个任务的执行结果" style="text;html=1;align=center;verticalAlign=middle;resizable=0;points=[];autosize=1;strokeColor=#82b366;fillColor=#d5e8d4;fontSize=20;" parent="1" vertex="1">
          <mxGeometry x="1031.88" y="2370" width="480" height="40" as="geometry" />
        </mxCell>
        <mxCell id="xWN14-OgWOWJWMfU6hnZ-16" value="主机告警管理：记录每台服务器的告警信息" style="text;html=1;align=center;verticalAlign=middle;resizable=0;points=[];autosize=1;strokeColor=none;fillColor=none;fontSize=20;" parent="1" vertex="1">
          <mxGeometry x="1030.63" y="2755" width="400" height="40" as="geometry" />
        </mxCell>
        <mxCell id="xWN14-OgWOWJWMfU6hnZ-17" value="主机监控管理：展示主机关键指标" style="text;html=1;align=center;verticalAlign=middle;resizable=0;points=[];autosize=1;strokeColor=none;fillColor=none;fontSize=20;" parent="1" vertex="1">
          <mxGeometry x="1031.88" y="2815" width="320" height="40" as="geometry" />
        </mxCell>
        <mxCell id="xWN14-OgWOWJWMfU6hnZ-18" value="CMDB是所有运维工具的数据基础" style="text;html=1;align=center;verticalAlign=middle;resizable=0;points=[];autosize=1;strokeColor=none;fillColor=none;fontSize=25;" parent="1" vertex="1">
          <mxGeometry x="-7.105427357601002e-15" y="4490" width="400" height="40" as="geometry" />
        </mxCell>
        <mxCell id="xWN14-OgWOWJWMfU6hnZ-19" value="文件分发命令&lt;br&gt;（上传本地文件/修改源文件）" style="rounded=0;whiteSpace=wrap;html=1;fontSize=22;fillColor=#d5e8d4;strokeColor=#82b366;" parent="1" vertex="1">
          <mxGeometry x="655" y="2070" width="315" height="70" as="geometry" />
        </mxCell>
        <mxCell id="xWN14-OgWOWJWMfU6hnZ-20" value="dag_run == job(集成airflow的数据模型)" style="text;html=1;align=center;verticalAlign=middle;resizable=0;points=[];autosize=1;strokeColor=none;fillColor=none;fontSize=25;" parent="1" vertex="1">
          <mxGeometry x="1030.63" y="2895" width="460" height="40" as="geometry" />
        </mxCell>
        <mxCell id="xWN14-OgWOWJWMfU6hnZ-21" value="dag == job模板(集成airflow的数据模型)" style="text;html=1;align=center;verticalAlign=middle;resizable=0;points=[];autosize=1;strokeColor=none;fillColor=none;fontSize=25;" parent="1" vertex="1">
          <mxGeometry x="1030.63" y="2855" width="460" height="40" as="geometry" />
        </mxCell>
        <mxCell id="xWN14-OgWOWJWMfU6hnZ-22" value="作业dag_run管理：记录用户自定义的操作参数" style="text;html=1;align=center;verticalAlign=middle;resizable=0;points=[];autosize=1;strokeColor=#b85450;fillColor=#f8cecc;fontSize=20;" parent="1" vertex="1">
          <mxGeometry x="1030.63" y="2310" width="440" height="40" as="geometry" />
        </mxCell>
        <mxCell id="xWN14-OgWOWJWMfU6hnZ-23" value="Options选项管理：记录每一个Agent命令具有的选项" style="text;html=1;align=center;verticalAlign=middle;resizable=0;points=[];autosize=1;strokeColor=#82b366;fillColor=#d5e8d4;fontSize=25;" parent="1" vertex="1">
          <mxGeometry x="1028.75" y="2200" width="600" height="40" as="geometry" />
        </mxCell>
        <mxCell id="CowkarHb3L10CkKkj1FM-7" value="" style="shape=image;verticalLabelPosition=bottom;labelBackgroundColor=default;verticalAlign=top;aspect=fixed;imageAspect=0;image=https://download.logo.wine/logo/Redis/Redis-Logo.wine.png;" parent="1" vertex="1">
          <mxGeometry x="-24.890000000000015" y="6100" width="104.89" height="70" as="geometry" />
        </mxCell>
        <mxCell id="CowkarHb3L10CkKkj1FM-16" value="" style="swimlane;startSize=0;fillColor=#D5E8D4;strokeColor=#82b366;" parent="1" vertex="1">
          <mxGeometry x="160" y="5790" width="540" height="670" as="geometry" />
        </mxCell>
        <mxCell id="CowkarHb3L10CkKkj1FM-4" value="FSInsight-user-web" style="rounded=1;whiteSpace=wrap;html=1;" parent="CowkarHb3L10CkKkj1FM-16" vertex="1">
          <mxGeometry x="400" y="200.82999999999998" width="120" height="80" as="geometry" />
        </mxCell>
        <mxCell id="CowkarHb3L10CkKkj1FM-9" value="" style="shape=image;verticalLabelPosition=bottom;labelBackgroundColor=default;verticalAlign=top;aspect=fixed;imageAspect=0;image=https://www.gartner.com/imagesrv/peer-insights/vendors/logos/nginx.png;" parent="CowkarHb3L10CkKkj1FM-16" vertex="1">
          <mxGeometry x="195.73000000000002" y="80" width="148.55" height="50" as="geometry" />
        </mxCell>
        <mxCell id="CowkarHb3L10CkKkj1FM-20" value="Docker-FSInsight" style="rounded=1;whiteSpace=wrap;html=1;fillColor=#dae8fc;strokeColor=#6c8ebf;" parent="CowkarHb3L10CkKkj1FM-16" vertex="1">
          <mxGeometry width="140" height="50" as="geometry" />
        </mxCell>
        <mxCell id="CowkarHb3L10CkKkj1FM-2" value="&lt;br&gt;FSInsight-api" style="rounded=1;whiteSpace=wrap;html=1;" parent="CowkarHb3L10CkKkj1FM-16" vertex="1">
          <mxGeometry x="210" y="209.99999999999997" width="110" height="80" as="geometry" />
        </mxCell>
        <mxCell id="CowkarHb3L10CkKkj1FM-18" value="" style="shape=image;verticalLabelPosition=bottom;labelBackgroundColor=default;verticalAlign=top;aspect=fixed;imageAspect=0;image=https://upload.wikimedia.org/wikipedia/commons/thumb/0/00/Gunicorn_logo_2010.svg/2560px-Gunicorn_logo_2010.svg.png;" parent="CowkarHb3L10CkKkj1FM-16" vertex="1">
          <mxGeometry x="217.5" y="219.17000000000002" width="95" height="20.83" as="geometry" />
        </mxCell>
        <mxCell id="CowkarHb3L10CkKkj1FM-8" value="FSInsight-worker" style="rounded=1;whiteSpace=wrap;html=1;" parent="CowkarHb3L10CkKkj1FM-16" vertex="1">
          <mxGeometry x="212.5" y="510" width="105" height="80" as="geometry" />
        </mxCell>
        <mxCell id="CowkarHb3L10CkKkj1FM-12" value="FSInsight&lt;br&gt;Metabase" style="shape=cylinder3;whiteSpace=wrap;html=1;boundedLbl=1;backgroundOutline=1;size=15;" parent="CowkarHb3L10CkKkj1FM-16" vertex="1">
          <mxGeometry x="224.91" y="360" width="80.18" height="77.5" as="geometry" />
        </mxCell>
        <mxCell id="xwVBxFlFO7NAoiI8pQPh-5" value="" style="endArrow=classic;html=1;rounded=0;exitX=0.5;exitY=1;exitDx=0;exitDy=0;exitPerimeter=0;entryX=0.5;entryY=0;entryDx=0;entryDy=0;" edge="1" parent="CowkarHb3L10CkKkj1FM-16" source="CowkarHb3L10CkKkj1FM-12" target="CowkarHb3L10CkKkj1FM-8">
          <mxGeometry width="50" height="50" relative="1" as="geometry">
            <mxPoint x="255" y="540" as="sourcePoint" />
            <mxPoint x="305" y="490" as="targetPoint" />
          </mxGeometry>
        </mxCell>
        <mxCell id="xwVBxFlFO7NAoiI8pQPh-6" value="保存tasks" style="text;html=1;align=center;verticalAlign=middle;resizable=0;points=[];autosize=1;strokeColor=none;fillColor=none;" vertex="1" parent="CowkarHb3L10CkKkj1FM-16">
          <mxGeometry x="188.55" y="315" width="80" height="30" as="geometry" />
        </mxCell>
        <mxCell id="xwVBxFlFO7NAoiI8pQPh-4" value="" style="endArrow=classic;html=1;rounded=0;exitX=0.5;exitY=1;exitDx=0;exitDy=0;" edge="1" parent="CowkarHb3L10CkKkj1FM-16" source="CowkarHb3L10CkKkj1FM-2" target="CowkarHb3L10CkKkj1FM-12">
          <mxGeometry width="50" height="50" relative="1" as="geometry">
            <mxPoint x="255" y="440" as="sourcePoint" />
            <mxPoint x="305" y="390" as="targetPoint" />
          </mxGeometry>
        </mxCell>
        <mxCell id="xwVBxFlFO7NAoiI8pQPh-7" value="取出tasks" style="text;html=1;align=center;verticalAlign=middle;resizable=0;points=[];autosize=1;strokeColor=none;fillColor=none;" vertex="1" parent="CowkarHb3L10CkKkj1FM-16">
          <mxGeometry x="200" y="470" width="80" height="30" as="geometry" />
        </mxCell>
        <mxCell id="CowkarHb3L10CkKkj1FM-3" value="&lt;br&gt;&lt;br&gt;FSInsight-ws" style="rounded=1;whiteSpace=wrap;html=1;" parent="CowkarHb3L10CkKkj1FM-16" vertex="1">
          <mxGeometry x="40" y="210" width="92.86" height="80" as="geometry" />
        </mxCell>
        <mxCell id="CowkarHb3L10CkKkj1FM-19" value="Daphne" style="text;html=1;align=center;verticalAlign=middle;resizable=0;points=[];autosize=1;strokeColor=#82b366;fillColor=#d5e8d4;" parent="CowkarHb3L10CkKkj1FM-16" vertex="1">
          <mxGeometry x="52.860000000000014" y="220" width="70" height="30" as="geometry" />
        </mxCell>
        <mxCell id="xwVBxFlFO7NAoiI8pQPh-17" value="" style="endArrow=classic;startArrow=classic;html=1;rounded=0;exitX=0.5;exitY=0;exitDx=0;exitDy=0;entryX=0.457;entryY=0.977;entryDx=0;entryDy=0;entryPerimeter=0;" edge="1" parent="CowkarHb3L10CkKkj1FM-16" source="CowkarHb3L10CkKkj1FM-3" target="CowkarHb3L10CkKkj1FM-9">
          <mxGeometry width="50" height="50" relative="1" as="geometry">
            <mxPoint x="140" y="320" as="sourcePoint" />
            <mxPoint x="190" y="270" as="targetPoint" />
          </mxGeometry>
        </mxCell>
        <mxCell id="xwVBxFlFO7NAoiI8pQPh-18" value="" style="endArrow=classic;startArrow=classic;html=1;rounded=0;" edge="1" parent="CowkarHb3L10CkKkj1FM-16" source="CowkarHb3L10CkKkj1FM-2">
          <mxGeometry width="50" height="50" relative="1" as="geometry">
            <mxPoint x="140" y="260" as="sourcePoint" />
            <mxPoint x="265" y="130" as="targetPoint" />
          </mxGeometry>
        </mxCell>
        <mxCell id="xwVBxFlFO7NAoiI8pQPh-19" value="" style="endArrow=classic;startArrow=classic;html=1;rounded=0;entryX=0.5;entryY=1;entryDx=0;entryDy=0;exitX=0.5;exitY=0;exitDx=0;exitDy=0;" edge="1" parent="CowkarHb3L10CkKkj1FM-16" source="CowkarHb3L10CkKkj1FM-4" target="CowkarHb3L10CkKkj1FM-9">
          <mxGeometry width="50" height="50" relative="1" as="geometry">
            <mxPoint x="140" y="260" as="sourcePoint" />
            <mxPoint x="190" y="210" as="targetPoint" />
          </mxGeometry>
        </mxCell>
        <mxCell id="CowkarHb3L10CkKkj1FM-28" value="SSH" style="text;html=1;align=center;verticalAlign=middle;resizable=0;points=[];autosize=1;strokeColor=none;fillColor=none;" parent="CowkarHb3L10CkKkj1FM-16" vertex="1">
          <mxGeometry x="30" y="520" width="50" height="30" as="geometry" />
        </mxCell>
        <mxCell id="CowkarHb3L10CkKkj1FM-21" value="" style="swimlane;startSize=0;" parent="1" vertex="1">
          <mxGeometry x="153.57" y="6500" width="400" height="200" as="geometry" />
        </mxCell>
        <mxCell id="CowkarHb3L10CkKkj1FM-13" value="Airflow&lt;br&gt;Metabase" style="shape=cylinder3;whiteSpace=wrap;html=1;boundedLbl=1;backgroundOutline=1;size=15;" parent="CowkarHb3L10CkKkj1FM-21" vertex="1">
          <mxGeometry x="175.63000000000005" y="20" width="80.18" height="75" as="geometry" />
        </mxCell>
        <mxCell id="CowkarHb3L10CkKkj1FM-14" value="MySQL" style="text;html=1;align=center;verticalAlign=middle;resizable=0;points=[];autosize=1;strokeColor=none;fillColor=none;" parent="CowkarHb3L10CkKkj1FM-21" vertex="1">
          <mxGeometry x="40" y="95.00000000000091" width="60" height="30" as="geometry" />
        </mxCell>
        <mxCell id="CowkarHb3L10CkKkj1FM-15" value="MySQL" style="text;html=1;align=center;verticalAlign=middle;resizable=0;points=[];autosize=1;strokeColor=none;fillColor=none;" parent="CowkarHb3L10CkKkj1FM-21" vertex="1">
          <mxGeometry x="182.8" y="95.00000000000091" width="60" height="30" as="geometry" />
        </mxCell>
        <mxCell id="CowkarHb3L10CkKkj1FM-22" value="Docker-MySQL" style="rounded=1;whiteSpace=wrap;html=1;fillColor=#dae8fc;strokeColor=#6c8ebf;" parent="CowkarHb3L10CkKkj1FM-21" vertex="1">
          <mxGeometry y="150" width="140" height="50" as="geometry" />
        </mxCell>
        <mxCell id="CowkarHb3L10CkKkj1FM-23" value="&amp;nbsp; &amp;nbsp; &amp;nbsp; &amp;nbsp; &amp;nbsp;Host1" style="rounded=1;whiteSpace=wrap;html=1;" parent="1" vertex="1">
          <mxGeometry x="-340" y="6260" width="133.6" height="60" as="geometry" />
        </mxCell>
        <mxCell id="CowkarHb3L10CkKkj1FM-24" value="&amp;nbsp; &amp;nbsp; &amp;nbsp; &amp;nbsp; Host2" style="rounded=1;whiteSpace=wrap;html=1;" parent="1" vertex="1">
          <mxGeometry x="-200" y="6260" width="123.69" height="60" as="geometry" />
        </mxCell>
        <mxCell id="CowkarHb3L10CkKkj1FM-25" value="&amp;nbsp; &amp;nbsp; &amp;nbsp; &amp;nbsp; &amp;nbsp;HostN" style="rounded=1;whiteSpace=wrap;html=1;" parent="1" vertex="1">
          <mxGeometry x="-70" y="6260" width="140" height="60" as="geometry" />
        </mxCell>
        <mxCell id="CowkarHb3L10CkKkj1FM-33" value="" style="endArrow=none;dashed=1;html=1;rounded=0;entryX=0;entryY=0.5;entryDx=0;entryDy=0;strokeColor=#FF0000;" parent="1" target="CowkarHb3L10CkKkj1FM-8" edge="1">
          <mxGeometry width="50" height="50" relative="1" as="geometry">
            <mxPoint x="-270" y="6380" as="sourcePoint" />
            <mxPoint x="230" y="6190" as="targetPoint" />
            <Array as="points">
              <mxPoint x="80" y="6380" />
              <mxPoint x="80" y="6340" />
            </Array>
          </mxGeometry>
        </mxCell>
        <mxCell id="CowkarHb3L10CkKkj1FM-37" value="FSInsight&lt;br&gt;Agent" style="rounded=1;whiteSpace=wrap;html=1;fillColor=#dae8fc;strokeColor=#6c8ebf;" parent="1" vertex="1">
          <mxGeometry x="-340" y="6260" width="56.22" height="30" as="geometry" />
        </mxCell>
        <mxCell id="CowkarHb3L10CkKkj1FM-38" value="FSInsight&lt;br&gt;Agent" style="rounded=1;whiteSpace=wrap;html=1;fillColor=#dae8fc;strokeColor=#6c8ebf;" parent="1" vertex="1">
          <mxGeometry x="-200" y="6260" width="60" height="30" as="geometry" />
        </mxCell>
        <mxCell id="CowkarHb3L10CkKkj1FM-39" value="FSInsight&lt;br&gt;Agent" style="rounded=1;whiteSpace=wrap;html=1;fillColor=#dae8fc;strokeColor=#6c8ebf;" parent="1" vertex="1">
          <mxGeometry x="-70" y="6260" width="60" height="30" as="geometry" />
        </mxCell>
        <mxCell id="CowkarHb3L10CkKkj1FM-54" value="" style="endArrow=classic;html=1;rounded=0;strokeColor=#FF0000;entryX=0.5;entryY=1;entryDx=0;entryDy=0;" parent="1" target="CowkarHb3L10CkKkj1FM-25" edge="1">
          <mxGeometry width="50" height="50" relative="1" as="geometry">
            <mxPoint y="6380" as="sourcePoint" />
            <mxPoint x="110" y="6290" as="targetPoint" />
          </mxGeometry>
        </mxCell>
        <mxCell id="CowkarHb3L10CkKkj1FM-55" value="" style="endArrow=classic;html=1;rounded=0;strokeColor=#FF0000;entryX=0.5;entryY=1;entryDx=0;entryDy=0;" parent="1" edge="1">
          <mxGeometry width="50" height="50" relative="1" as="geometry">
            <mxPoint x="-132" y="6380" as="sourcePoint" />
            <mxPoint x="-131.50999999999993" y="6320" as="targetPoint" />
          </mxGeometry>
        </mxCell>
        <mxCell id="CowkarHb3L10CkKkj1FM-56" value="" style="endArrow=classic;html=1;rounded=0;strokeColor=#FF0000;entryX=0.5;entryY=1;entryDx=0;entryDy=0;" parent="1" edge="1">
          <mxGeometry width="50" height="50" relative="1" as="geometry">
            <mxPoint x="-267" y="6380" as="sourcePoint" />
            <mxPoint x="-267.43999999999994" y="6320" as="targetPoint" />
          </mxGeometry>
        </mxCell>
        <mxCell id="xwVBxFlFO7NAoiI8pQPh-1" value="" style="verticalLabelPosition=bottom;html=1;verticalAlign=top;align=center;strokeColor=none;fillColor=#00BEF2;shape=mxgraph.azure.user;" vertex="1" parent="1">
          <mxGeometry x="406.25" y="5695" width="47.5" height="50" as="geometry" />
        </mxCell>
        <mxCell id="xwVBxFlFO7NAoiI8pQPh-2" value="平台用户" style="text;html=1;align=center;verticalAlign=middle;resizable=0;points=[];autosize=1;strokeColor=none;fillColor=none;" vertex="1" parent="1">
          <mxGeometry x="453.75" y="5695" width="70" height="30" as="geometry" />
        </mxCell>
        <mxCell id="xwVBxFlFO7NAoiI8pQPh-3" value="" style="endArrow=classic;html=1;rounded=0;entryX=0.5;entryY=0;entryDx=0;entryDy=0;exitX=0.5;exitY=1;exitDx=0;exitDy=0;exitPerimeter=0;" edge="1" parent="1" source="xwVBxFlFO7NAoiI8pQPh-1" target="CowkarHb3L10CkKkj1FM-9">
          <mxGeometry width="50" height="50" relative="1" as="geometry">
            <mxPoint x="300" y="6030" as="sourcePoint" />
            <mxPoint x="350" y="5980" as="targetPoint" />
          </mxGeometry>
        </mxCell>
        <mxCell id="xwVBxFlFO7NAoiI8pQPh-8" value="异步执行" style="text;html=1;align=center;verticalAlign=middle;resizable=0;points=[];autosize=1;strokeColor=none;fillColor=none;" vertex="1" parent="1">
          <mxGeometry x="-160" y="6390" width="70" height="30" as="geometry" />
        </mxCell>
        <mxCell id="xwVBxFlFO7NAoiI8pQPh-9" value="" style="endArrow=classic;html=1;rounded=0;exitX=1;exitY=0.5;exitDx=0;exitDy=0;entryX=0.455;entryY=1.003;entryDx=0;entryDy=0;entryPerimeter=0;" edge="1" parent="1" source="CowkarHb3L10CkKkj1FM-7" target="CowkarHb3L10CkKkj1FM-3">
          <mxGeometry width="50" height="50" relative="1" as="geometry">
            <mxPoint x="300" y="6130" as="sourcePoint" />
            <mxPoint x="350" y="6080" as="targetPoint" />
            <Array as="points">
              <mxPoint x="242" y="6135" />
            </Array>
          </mxGeometry>
        </mxCell>
        <mxCell id="xwVBxFlFO7NAoiI8pQPh-12" value="执行结果" style="text;html=1;align=center;verticalAlign=middle;resizable=0;points=[];autosize=1;strokeColor=none;fillColor=none;" vertex="1" parent="1">
          <mxGeometry x="85" y="6130" width="70" height="30" as="geometry" />
        </mxCell>
        <mxCell id="xwVBxFlFO7NAoiI8pQPh-20" value="" style="endArrow=none;dashed=1;html=1;rounded=0;strokeColor=#FF0000;" edge="1" parent="1">
          <mxGeometry width="50" height="50" relative="1" as="geometry">
            <mxPoint x="-280" y="6210" as="sourcePoint" />
            <mxPoint y="6210" as="targetPoint" />
          </mxGeometry>
        </mxCell>
        <mxCell id="xwVBxFlFO7NAoiI8pQPh-21" value="" style="endArrow=classic;html=1;rounded=0;exitX=0.5;exitY=0;exitDx=0;exitDy=0;strokeColor=#FF0000;" edge="1" parent="1" source="CowkarHb3L10CkKkj1FM-23">
          <mxGeometry width="50" height="50" relative="1" as="geometry">
            <mxPoint x="160" y="6270" as="sourcePoint" />
            <mxPoint x="-273" y="6210" as="targetPoint" />
          </mxGeometry>
        </mxCell>
        <mxCell id="xwVBxFlFO7NAoiI8pQPh-22" value="" style="endArrow=classic;html=1;rounded=0;strokeColor=#FF0000;" edge="1" parent="1">
          <mxGeometry width="50" height="50" relative="1" as="geometry">
            <mxPoint x="-130" y="6260" as="sourcePoint" />
            <mxPoint x="-130" y="6210" as="targetPoint" />
          </mxGeometry>
        </mxCell>
        <mxCell id="xwVBxFlFO7NAoiI8pQPh-23" value="" style="endArrow=classic;html=1;rounded=0;exitX=0.5;exitY=0;exitDx=0;exitDy=0;strokeColor=#FF0000;" edge="1" parent="1" source="CowkarHb3L10CkKkj1FM-25">
          <mxGeometry width="50" height="50" relative="1" as="geometry">
            <mxPoint x="-241.3100000000004" y="6280.000000000001" as="sourcePoint" />
            <mxPoint y="6210" as="targetPoint" />
          </mxGeometry>
        </mxCell>
        <mxCell id="xwVBxFlFO7NAoiI8pQPh-24" value="" style="endArrow=none;dashed=1;html=1;rounded=0;entryX=0;entryY=0.5;entryDx=0;entryDy=0;strokeColor=#FF0000;" edge="1" parent="1" target="CowkarHb3L10CkKkj1FM-7">
          <mxGeometry width="50" height="50" relative="1" as="geometry">
            <mxPoint x="-130" y="6210" as="sourcePoint" />
            <mxPoint x="210" y="6220" as="targetPoint" />
            <Array as="points">
              <mxPoint x="-130" y="6135" />
            </Array>
          </mxGeometry>
        </mxCell>
      </root>
    </mxGraphModel>
  </diagram>
</mxfile>
